M48
; DRILL file {KiCad 7.0.10} date Wed May 29 19:02:27 2024
; FORMAT={-:-/ absolute / metric / decimal}
; #@! TF.CreationDate,2024-05-29T19:02:27+08:00
; #@! TF.GenerationSoftware,Kicad,Pcbnew,7.0.10
; #@! TF.FileFunction,Plated,1,2,PTH
FMAT,2
METRIC
; #@! TA.AperFunction,Plated,PTH,ComponentDrill
T1C0.900
; #@! TA.AperFunction,Plated,PTH,ComponentDrill
T2C1.000
; #@! TA.AperFunction,Plated,PTH,ComponentDrill
T3C1.020
; #@! TA.AperFunction,Plated,PTH,ComponentDrill
T4C1.170
; #@! TA.AperFunction,Plated,PTH,ComponentDrill
T5C1.200
%
G90
G05
T1
X80.785Y-106.871
X80.785Y-110.871
X80.785Y-114.871
T2
X105.2Y-100.12
X105.2Y-115.36
X107.74Y-100.12
X107.74Y-115.36
X110.28Y-100.12
X110.28Y-115.36
X112.82Y-100.12
X112.82Y-115.36
X115.36Y-100.12
X115.36Y-115.36
X117.9Y-100.12
X117.9Y-115.36
X120.44Y-100.12
X120.44Y-115.36
X122.98Y-100.12
X122.98Y-115.36
X125.52Y-100.12
X125.52Y-115.36
X128.06Y-100.12
X128.06Y-115.36
X130.6Y-100.12
X130.6Y-115.36
X133.14Y-100.12
X133.14Y-115.36
X135.68Y-100.12
X135.68Y-115.36
X138.22Y-100.12
X138.22Y-115.36
X140.76Y-100.12
X140.76Y-115.36
X151.0Y-125.0
X151.0Y-127.54
X151.0Y-130.08
X151.0Y-132.62
X151.0Y-144.0
X151.0Y-146.54
X151.0Y-149.08
T3
X109.42Y-158.5
X111.96Y-158.5
X114.5Y-158.5
X117.04Y-158.5
T4
X87.03Y-132.37
X87.03Y-145.96
X87.11Y-91.16
X100.7Y-91.16
X122.485Y-91.435
X136.075Y-91.435
T5
X76.535Y-104.871
X76.535Y-116.871
X82.535Y-104.871
X82.535Y-116.871
M30
