%TF.GenerationSoftware,KiCad,Pcbnew,7.0.10*%
%TF.CreationDate,2024-05-29T17:31:35+08:00*%
%TF.ProjectId,toilet_monitoring_unit,746f696c-6574-45f6-9d6f-6e69746f7269,rev?*%
%TF.SameCoordinates,Original*%
%TF.FileFunction,Legend,Top*%
%TF.FilePolarity,Positive*%
%FSLAX46Y46*%
G04 Gerber Fmt 4.6, Leading zero omitted, Abs format (unit mm)*
G04 Created by KiCad (PCBNEW 7.0.10) date 2024-05-29 17:31:35*
%MOMM*%
%LPD*%
G01*
G04 APERTURE LIST*
%ADD10C,0.150000*%
%ADD11C,0.300000*%
%ADD12C,0.120000*%
%ADD13C,0.127000*%
G04 APERTURE END LIST*
D10*
X126880826Y-95450247D02*
X126995112Y-95488342D01*
X126995112Y-95488342D02*
X127033207Y-95526438D01*
X127033207Y-95526438D02*
X127071303Y-95602628D01*
X127071303Y-95602628D02*
X127071303Y-95716914D01*
X127071303Y-95716914D02*
X127033207Y-95793104D01*
X127033207Y-95793104D02*
X126995112Y-95831200D01*
X126995112Y-95831200D02*
X126918922Y-95869295D01*
X126918922Y-95869295D02*
X126614160Y-95869295D01*
X126614160Y-95869295D02*
X126614160Y-95069295D01*
X126614160Y-95069295D02*
X126880826Y-95069295D01*
X126880826Y-95069295D02*
X126957017Y-95107390D01*
X126957017Y-95107390D02*
X126995112Y-95145485D01*
X126995112Y-95145485D02*
X127033207Y-95221676D01*
X127033207Y-95221676D02*
X127033207Y-95297866D01*
X127033207Y-95297866D02*
X126995112Y-95374057D01*
X126995112Y-95374057D02*
X126957017Y-95412152D01*
X126957017Y-95412152D02*
X126880826Y-95450247D01*
X126880826Y-95450247D02*
X126614160Y-95450247D01*
X127757017Y-95869295D02*
X127757017Y-95450247D01*
X127757017Y-95450247D02*
X127718922Y-95374057D01*
X127718922Y-95374057D02*
X127642731Y-95335961D01*
X127642731Y-95335961D02*
X127490350Y-95335961D01*
X127490350Y-95335961D02*
X127414160Y-95374057D01*
X127757017Y-95831200D02*
X127680826Y-95869295D01*
X127680826Y-95869295D02*
X127490350Y-95869295D01*
X127490350Y-95869295D02*
X127414160Y-95831200D01*
X127414160Y-95831200D02*
X127376064Y-95755009D01*
X127376064Y-95755009D02*
X127376064Y-95678819D01*
X127376064Y-95678819D02*
X127414160Y-95602628D01*
X127414160Y-95602628D02*
X127490350Y-95564533D01*
X127490350Y-95564533D02*
X127680826Y-95564533D01*
X127680826Y-95564533D02*
X127757017Y-95526438D01*
X128023684Y-95335961D02*
X128328446Y-95335961D01*
X128137970Y-95069295D02*
X128137970Y-95755009D01*
X128137970Y-95755009D02*
X128176065Y-95831200D01*
X128176065Y-95831200D02*
X128252255Y-95869295D01*
X128252255Y-95869295D02*
X128328446Y-95869295D01*
X128480827Y-95335961D02*
X128785589Y-95335961D01*
X128595113Y-95069295D02*
X128595113Y-95755009D01*
X128595113Y-95755009D02*
X128633208Y-95831200D01*
X128633208Y-95831200D02*
X128709398Y-95869295D01*
X128709398Y-95869295D02*
X128785589Y-95869295D01*
X129357018Y-95831200D02*
X129280827Y-95869295D01*
X129280827Y-95869295D02*
X129128446Y-95869295D01*
X129128446Y-95869295D02*
X129052256Y-95831200D01*
X129052256Y-95831200D02*
X129014160Y-95755009D01*
X129014160Y-95755009D02*
X129014160Y-95450247D01*
X129014160Y-95450247D02*
X129052256Y-95374057D01*
X129052256Y-95374057D02*
X129128446Y-95335961D01*
X129128446Y-95335961D02*
X129280827Y-95335961D01*
X129280827Y-95335961D02*
X129357018Y-95374057D01*
X129357018Y-95374057D02*
X129395113Y-95450247D01*
X129395113Y-95450247D02*
X129395113Y-95526438D01*
X129395113Y-95526438D02*
X129014160Y-95602628D01*
X129737970Y-95869295D02*
X129737970Y-95335961D01*
X129737970Y-95488342D02*
X129776065Y-95412152D01*
X129776065Y-95412152D02*
X129814160Y-95374057D01*
X129814160Y-95374057D02*
X129890351Y-95335961D01*
X129890351Y-95335961D02*
X129966541Y-95335961D01*
X130157017Y-95335961D02*
X130347493Y-95869295D01*
X130537970Y-95335961D02*
X130347493Y-95869295D01*
X130347493Y-95869295D02*
X130271303Y-96059771D01*
X130271303Y-96059771D02*
X130233208Y-96097866D01*
X130233208Y-96097866D02*
X130157017Y-96135961D01*
X131414160Y-95145485D02*
X131452256Y-95107390D01*
X131452256Y-95107390D02*
X131528446Y-95069295D01*
X131528446Y-95069295D02*
X131718922Y-95069295D01*
X131718922Y-95069295D02*
X131795113Y-95107390D01*
X131795113Y-95107390D02*
X131833208Y-95145485D01*
X131833208Y-95145485D02*
X131871303Y-95221676D01*
X131871303Y-95221676D02*
X131871303Y-95297866D01*
X131871303Y-95297866D02*
X131833208Y-95412152D01*
X131833208Y-95412152D02*
X131376065Y-95869295D01*
X131376065Y-95869295D02*
X131871303Y-95869295D01*
X112652255Y-97643771D02*
X112366541Y-97643771D01*
X112366541Y-97643771D02*
X112337969Y-97929485D01*
X112337969Y-97929485D02*
X112366541Y-97900914D01*
X112366541Y-97900914D02*
X112423684Y-97872342D01*
X112423684Y-97872342D02*
X112566541Y-97872342D01*
X112566541Y-97872342D02*
X112623684Y-97900914D01*
X112623684Y-97900914D02*
X112652255Y-97929485D01*
X112652255Y-97929485D02*
X112680826Y-97986628D01*
X112680826Y-97986628D02*
X112680826Y-98129485D01*
X112680826Y-98129485D02*
X112652255Y-98186628D01*
X112652255Y-98186628D02*
X112623684Y-98215200D01*
X112623684Y-98215200D02*
X112566541Y-98243771D01*
X112566541Y-98243771D02*
X112423684Y-98243771D01*
X112423684Y-98243771D02*
X112366541Y-98215200D01*
X112366541Y-98215200D02*
X112337969Y-98186628D01*
X112852255Y-97643771D02*
X113052255Y-98243771D01*
X113052255Y-98243771D02*
X113252255Y-97643771D01*
X91005826Y-95550247D02*
X91120112Y-95588342D01*
X91120112Y-95588342D02*
X91158207Y-95626438D01*
X91158207Y-95626438D02*
X91196303Y-95702628D01*
X91196303Y-95702628D02*
X91196303Y-95816914D01*
X91196303Y-95816914D02*
X91158207Y-95893104D01*
X91158207Y-95893104D02*
X91120112Y-95931200D01*
X91120112Y-95931200D02*
X91043922Y-95969295D01*
X91043922Y-95969295D02*
X90739160Y-95969295D01*
X90739160Y-95969295D02*
X90739160Y-95169295D01*
X90739160Y-95169295D02*
X91005826Y-95169295D01*
X91005826Y-95169295D02*
X91082017Y-95207390D01*
X91082017Y-95207390D02*
X91120112Y-95245485D01*
X91120112Y-95245485D02*
X91158207Y-95321676D01*
X91158207Y-95321676D02*
X91158207Y-95397866D01*
X91158207Y-95397866D02*
X91120112Y-95474057D01*
X91120112Y-95474057D02*
X91082017Y-95512152D01*
X91082017Y-95512152D02*
X91005826Y-95550247D01*
X91005826Y-95550247D02*
X90739160Y-95550247D01*
X91882017Y-95969295D02*
X91882017Y-95550247D01*
X91882017Y-95550247D02*
X91843922Y-95474057D01*
X91843922Y-95474057D02*
X91767731Y-95435961D01*
X91767731Y-95435961D02*
X91615350Y-95435961D01*
X91615350Y-95435961D02*
X91539160Y-95474057D01*
X91882017Y-95931200D02*
X91805826Y-95969295D01*
X91805826Y-95969295D02*
X91615350Y-95969295D01*
X91615350Y-95969295D02*
X91539160Y-95931200D01*
X91539160Y-95931200D02*
X91501064Y-95855009D01*
X91501064Y-95855009D02*
X91501064Y-95778819D01*
X91501064Y-95778819D02*
X91539160Y-95702628D01*
X91539160Y-95702628D02*
X91615350Y-95664533D01*
X91615350Y-95664533D02*
X91805826Y-95664533D01*
X91805826Y-95664533D02*
X91882017Y-95626438D01*
X92148684Y-95435961D02*
X92453446Y-95435961D01*
X92262970Y-95169295D02*
X92262970Y-95855009D01*
X92262970Y-95855009D02*
X92301065Y-95931200D01*
X92301065Y-95931200D02*
X92377255Y-95969295D01*
X92377255Y-95969295D02*
X92453446Y-95969295D01*
X92605827Y-95435961D02*
X92910589Y-95435961D01*
X92720113Y-95169295D02*
X92720113Y-95855009D01*
X92720113Y-95855009D02*
X92758208Y-95931200D01*
X92758208Y-95931200D02*
X92834398Y-95969295D01*
X92834398Y-95969295D02*
X92910589Y-95969295D01*
X93482018Y-95931200D02*
X93405827Y-95969295D01*
X93405827Y-95969295D02*
X93253446Y-95969295D01*
X93253446Y-95969295D02*
X93177256Y-95931200D01*
X93177256Y-95931200D02*
X93139160Y-95855009D01*
X93139160Y-95855009D02*
X93139160Y-95550247D01*
X93139160Y-95550247D02*
X93177256Y-95474057D01*
X93177256Y-95474057D02*
X93253446Y-95435961D01*
X93253446Y-95435961D02*
X93405827Y-95435961D01*
X93405827Y-95435961D02*
X93482018Y-95474057D01*
X93482018Y-95474057D02*
X93520113Y-95550247D01*
X93520113Y-95550247D02*
X93520113Y-95626438D01*
X93520113Y-95626438D02*
X93139160Y-95702628D01*
X93862970Y-95969295D02*
X93862970Y-95435961D01*
X93862970Y-95588342D02*
X93901065Y-95512152D01*
X93901065Y-95512152D02*
X93939160Y-95474057D01*
X93939160Y-95474057D02*
X94015351Y-95435961D01*
X94015351Y-95435961D02*
X94091541Y-95435961D01*
X94282017Y-95435961D02*
X94472493Y-95969295D01*
X94662970Y-95435961D02*
X94472493Y-95969295D01*
X94472493Y-95969295D02*
X94396303Y-96159771D01*
X94396303Y-96159771D02*
X94358208Y-96197866D01*
X94358208Y-96197866D02*
X94282017Y-96235961D01*
X95996303Y-95969295D02*
X95539160Y-95969295D01*
X95767732Y-95969295D02*
X95767732Y-95169295D01*
X95767732Y-95169295D02*
X95691541Y-95283580D01*
X95691541Y-95283580D02*
X95615351Y-95359771D01*
X95615351Y-95359771D02*
X95539160Y-95397866D01*
X98234104Y-113010839D02*
X98234104Y-112534649D01*
X98519819Y-113106077D02*
X97519819Y-112772744D01*
X97519819Y-112772744D02*
X98519819Y-112439411D01*
X98519819Y-112106077D02*
X97853152Y-112106077D01*
X98043628Y-112106077D02*
X97948390Y-112058458D01*
X97948390Y-112058458D02*
X97900771Y-112010839D01*
X97900771Y-112010839D02*
X97853152Y-111915601D01*
X97853152Y-111915601D02*
X97853152Y-111820363D01*
X98519819Y-111058458D02*
X97519819Y-111058458D01*
X98472200Y-111058458D02*
X98519819Y-111153696D01*
X98519819Y-111153696D02*
X98519819Y-111344172D01*
X98519819Y-111344172D02*
X98472200Y-111439410D01*
X98472200Y-111439410D02*
X98424580Y-111487029D01*
X98424580Y-111487029D02*
X98329342Y-111534648D01*
X98329342Y-111534648D02*
X98043628Y-111534648D01*
X98043628Y-111534648D02*
X97948390Y-111487029D01*
X97948390Y-111487029D02*
X97900771Y-111439410D01*
X97900771Y-111439410D02*
X97853152Y-111344172D01*
X97853152Y-111344172D02*
X97853152Y-111153696D01*
X97853152Y-111153696D02*
X97900771Y-111058458D01*
X97853152Y-110153696D02*
X98519819Y-110153696D01*
X97853152Y-110582267D02*
X98376961Y-110582267D01*
X98376961Y-110582267D02*
X98472200Y-110534648D01*
X98472200Y-110534648D02*
X98519819Y-110439410D01*
X98519819Y-110439410D02*
X98519819Y-110296553D01*
X98519819Y-110296553D02*
X98472200Y-110201315D01*
X98472200Y-110201315D02*
X98424580Y-110153696D01*
X98519819Y-109677505D02*
X97853152Y-109677505D01*
X97519819Y-109677505D02*
X97567438Y-109725124D01*
X97567438Y-109725124D02*
X97615057Y-109677505D01*
X97615057Y-109677505D02*
X97567438Y-109629886D01*
X97567438Y-109629886D02*
X97519819Y-109677505D01*
X97519819Y-109677505D02*
X97615057Y-109677505D01*
X97853152Y-109201315D02*
X98519819Y-109201315D01*
X97948390Y-109201315D02*
X97900771Y-109153696D01*
X97900771Y-109153696D02*
X97853152Y-109058458D01*
X97853152Y-109058458D02*
X97853152Y-108915601D01*
X97853152Y-108915601D02*
X97900771Y-108820363D01*
X97900771Y-108820363D02*
X97996009Y-108772744D01*
X97996009Y-108772744D02*
X98519819Y-108772744D01*
X98519819Y-108153696D02*
X98472200Y-108248934D01*
X98472200Y-108248934D02*
X98424580Y-108296553D01*
X98424580Y-108296553D02*
X98329342Y-108344172D01*
X98329342Y-108344172D02*
X98043628Y-108344172D01*
X98043628Y-108344172D02*
X97948390Y-108296553D01*
X97948390Y-108296553D02*
X97900771Y-108248934D01*
X97900771Y-108248934D02*
X97853152Y-108153696D01*
X97853152Y-108153696D02*
X97853152Y-108010839D01*
X97853152Y-108010839D02*
X97900771Y-107915601D01*
X97900771Y-107915601D02*
X97948390Y-107867982D01*
X97948390Y-107867982D02*
X98043628Y-107820363D01*
X98043628Y-107820363D02*
X98329342Y-107820363D01*
X98329342Y-107820363D02*
X98424580Y-107867982D01*
X98424580Y-107867982D02*
X98472200Y-107915601D01*
X98472200Y-107915601D02*
X98519819Y-108010839D01*
X98519819Y-108010839D02*
X98519819Y-108153696D01*
X98519819Y-106629886D02*
X97519819Y-106629886D01*
X97519819Y-106629886D02*
X98519819Y-106058458D01*
X98519819Y-106058458D02*
X97519819Y-106058458D01*
X98519819Y-105153696D02*
X97996009Y-105153696D01*
X97996009Y-105153696D02*
X97900771Y-105201315D01*
X97900771Y-105201315D02*
X97853152Y-105296553D01*
X97853152Y-105296553D02*
X97853152Y-105487029D01*
X97853152Y-105487029D02*
X97900771Y-105582267D01*
X98472200Y-105153696D02*
X98519819Y-105248934D01*
X98519819Y-105248934D02*
X98519819Y-105487029D01*
X98519819Y-105487029D02*
X98472200Y-105582267D01*
X98472200Y-105582267D02*
X98376961Y-105629886D01*
X98376961Y-105629886D02*
X98281723Y-105629886D01*
X98281723Y-105629886D02*
X98186485Y-105582267D01*
X98186485Y-105582267D02*
X98138866Y-105487029D01*
X98138866Y-105487029D02*
X98138866Y-105248934D01*
X98138866Y-105248934D02*
X98091247Y-105153696D01*
X97853152Y-104677505D02*
X98519819Y-104677505D01*
X97948390Y-104677505D02*
X97900771Y-104629886D01*
X97900771Y-104629886D02*
X97853152Y-104534648D01*
X97853152Y-104534648D02*
X97853152Y-104391791D01*
X97853152Y-104391791D02*
X97900771Y-104296553D01*
X97900771Y-104296553D02*
X97996009Y-104248934D01*
X97996009Y-104248934D02*
X98519819Y-104248934D01*
X98519819Y-103629886D02*
X98472200Y-103725124D01*
X98472200Y-103725124D02*
X98424580Y-103772743D01*
X98424580Y-103772743D02*
X98329342Y-103820362D01*
X98329342Y-103820362D02*
X98043628Y-103820362D01*
X98043628Y-103820362D02*
X97948390Y-103772743D01*
X97948390Y-103772743D02*
X97900771Y-103725124D01*
X97900771Y-103725124D02*
X97853152Y-103629886D01*
X97853152Y-103629886D02*
X97853152Y-103487029D01*
X97853152Y-103487029D02*
X97900771Y-103391791D01*
X97900771Y-103391791D02*
X97948390Y-103344172D01*
X97948390Y-103344172D02*
X98043628Y-103296553D01*
X98043628Y-103296553D02*
X98329342Y-103296553D01*
X98329342Y-103296553D02*
X98424580Y-103344172D01*
X98424580Y-103344172D02*
X98472200Y-103391791D01*
X98472200Y-103391791D02*
X98519819Y-103487029D01*
X98519819Y-103487029D02*
X98519819Y-103629886D01*
X146586779Y-125119819D02*
X146586779Y-124119819D01*
X146586779Y-124119819D02*
X146824874Y-124119819D01*
X146824874Y-124119819D02*
X146967731Y-124167438D01*
X146967731Y-124167438D02*
X147062969Y-124262676D01*
X147062969Y-124262676D02*
X147110588Y-124357914D01*
X147110588Y-124357914D02*
X147158207Y-124548390D01*
X147158207Y-124548390D02*
X147158207Y-124691247D01*
X147158207Y-124691247D02*
X147110588Y-124881723D01*
X147110588Y-124881723D02*
X147062969Y-124976961D01*
X147062969Y-124976961D02*
X146967731Y-125072200D01*
X146967731Y-125072200D02*
X146824874Y-125119819D01*
X146824874Y-125119819D02*
X146586779Y-125119819D01*
X148015350Y-124119819D02*
X147824874Y-124119819D01*
X147824874Y-124119819D02*
X147729636Y-124167438D01*
X147729636Y-124167438D02*
X147682017Y-124215057D01*
X147682017Y-124215057D02*
X147586779Y-124357914D01*
X147586779Y-124357914D02*
X147539160Y-124548390D01*
X147539160Y-124548390D02*
X147539160Y-124929342D01*
X147539160Y-124929342D02*
X147586779Y-125024580D01*
X147586779Y-125024580D02*
X147634398Y-125072200D01*
X147634398Y-125072200D02*
X147729636Y-125119819D01*
X147729636Y-125119819D02*
X147920112Y-125119819D01*
X147920112Y-125119819D02*
X148015350Y-125072200D01*
X148015350Y-125072200D02*
X148062969Y-125024580D01*
X148062969Y-125024580D02*
X148110588Y-124929342D01*
X148110588Y-124929342D02*
X148110588Y-124691247D01*
X148110588Y-124691247D02*
X148062969Y-124596009D01*
X148062969Y-124596009D02*
X148015350Y-124548390D01*
X148015350Y-124548390D02*
X147920112Y-124500771D01*
X147920112Y-124500771D02*
X147729636Y-124500771D01*
X147729636Y-124500771D02*
X147634398Y-124548390D01*
X147634398Y-124548390D02*
X147586779Y-124596009D01*
X147586779Y-124596009D02*
X147539160Y-124691247D01*
D11*
X132173558Y-158739638D02*
X132173558Y-156739638D01*
X132173558Y-156739638D02*
X132649748Y-156739638D01*
X132649748Y-156739638D02*
X132935463Y-156834876D01*
X132935463Y-156834876D02*
X133125939Y-157025352D01*
X133125939Y-157025352D02*
X133221177Y-157215828D01*
X133221177Y-157215828D02*
X133316415Y-157596780D01*
X133316415Y-157596780D02*
X133316415Y-157882495D01*
X133316415Y-157882495D02*
X133221177Y-158263447D01*
X133221177Y-158263447D02*
X133125939Y-158453923D01*
X133125939Y-158453923D02*
X132935463Y-158644400D01*
X132935463Y-158644400D02*
X132649748Y-158739638D01*
X132649748Y-158739638D02*
X132173558Y-158739638D01*
X134935463Y-158644400D02*
X134744987Y-158739638D01*
X134744987Y-158739638D02*
X134364034Y-158739638D01*
X134364034Y-158739638D02*
X134173558Y-158644400D01*
X134173558Y-158644400D02*
X134078320Y-158453923D01*
X134078320Y-158453923D02*
X134078320Y-157692019D01*
X134078320Y-157692019D02*
X134173558Y-157501542D01*
X134173558Y-157501542D02*
X134364034Y-157406304D01*
X134364034Y-157406304D02*
X134744987Y-157406304D01*
X134744987Y-157406304D02*
X134935463Y-157501542D01*
X134935463Y-157501542D02*
X135030701Y-157692019D01*
X135030701Y-157692019D02*
X135030701Y-157882495D01*
X135030701Y-157882495D02*
X134078320Y-158072971D01*
X135792606Y-158644400D02*
X135983082Y-158739638D01*
X135983082Y-158739638D02*
X136364034Y-158739638D01*
X136364034Y-158739638D02*
X136554511Y-158644400D01*
X136554511Y-158644400D02*
X136649749Y-158453923D01*
X136649749Y-158453923D02*
X136649749Y-158358685D01*
X136649749Y-158358685D02*
X136554511Y-158168209D01*
X136554511Y-158168209D02*
X136364034Y-158072971D01*
X136364034Y-158072971D02*
X136078320Y-158072971D01*
X136078320Y-158072971D02*
X135887844Y-157977733D01*
X135887844Y-157977733D02*
X135792606Y-157787257D01*
X135792606Y-157787257D02*
X135792606Y-157692019D01*
X135792606Y-157692019D02*
X135887844Y-157501542D01*
X135887844Y-157501542D02*
X136078320Y-157406304D01*
X136078320Y-157406304D02*
X136364034Y-157406304D01*
X136364034Y-157406304D02*
X136554511Y-157501542D01*
X137506892Y-158739638D02*
X137506892Y-157406304D01*
X137506892Y-156739638D02*
X137411654Y-156834876D01*
X137411654Y-156834876D02*
X137506892Y-156930114D01*
X137506892Y-156930114D02*
X137602130Y-156834876D01*
X137602130Y-156834876D02*
X137506892Y-156739638D01*
X137506892Y-156739638D02*
X137506892Y-156930114D01*
X139316416Y-157406304D02*
X139316416Y-159025352D01*
X139316416Y-159025352D02*
X139221178Y-159215828D01*
X139221178Y-159215828D02*
X139125940Y-159311066D01*
X139125940Y-159311066D02*
X138935463Y-159406304D01*
X138935463Y-159406304D02*
X138649749Y-159406304D01*
X138649749Y-159406304D02*
X138459273Y-159311066D01*
X139316416Y-158644400D02*
X139125940Y-158739638D01*
X139125940Y-158739638D02*
X138744987Y-158739638D01*
X138744987Y-158739638D02*
X138554511Y-158644400D01*
X138554511Y-158644400D02*
X138459273Y-158549161D01*
X138459273Y-158549161D02*
X138364035Y-158358685D01*
X138364035Y-158358685D02*
X138364035Y-157787257D01*
X138364035Y-157787257D02*
X138459273Y-157596780D01*
X138459273Y-157596780D02*
X138554511Y-157501542D01*
X138554511Y-157501542D02*
X138744987Y-157406304D01*
X138744987Y-157406304D02*
X139125940Y-157406304D01*
X139125940Y-157406304D02*
X139316416Y-157501542D01*
X140268797Y-157406304D02*
X140268797Y-158739638D01*
X140268797Y-157596780D02*
X140364035Y-157501542D01*
X140364035Y-157501542D02*
X140554511Y-157406304D01*
X140554511Y-157406304D02*
X140840226Y-157406304D01*
X140840226Y-157406304D02*
X141030702Y-157501542D01*
X141030702Y-157501542D02*
X141125940Y-157692019D01*
X141125940Y-157692019D02*
X141125940Y-158739638D01*
X143602131Y-158739638D02*
X143602131Y-156739638D01*
X143602131Y-157501542D02*
X143792607Y-157406304D01*
X143792607Y-157406304D02*
X144173560Y-157406304D01*
X144173560Y-157406304D02*
X144364036Y-157501542D01*
X144364036Y-157501542D02*
X144459274Y-157596780D01*
X144459274Y-157596780D02*
X144554512Y-157787257D01*
X144554512Y-157787257D02*
X144554512Y-158358685D01*
X144554512Y-158358685D02*
X144459274Y-158549161D01*
X144459274Y-158549161D02*
X144364036Y-158644400D01*
X144364036Y-158644400D02*
X144173560Y-158739638D01*
X144173560Y-158739638D02*
X143792607Y-158739638D01*
X143792607Y-158739638D02*
X143602131Y-158644400D01*
X145221179Y-157406304D02*
X145697369Y-158739638D01*
X146173560Y-157406304D02*
X145697369Y-158739638D01*
X145697369Y-158739638D02*
X145506893Y-159215828D01*
X145506893Y-159215828D02*
X145411655Y-159311066D01*
X145411655Y-159311066D02*
X145221179Y-159406304D01*
X148364037Y-158168209D02*
X149316418Y-158168209D01*
X148173561Y-158739638D02*
X148840227Y-156739638D01*
X148840227Y-156739638D02*
X149506894Y-158739638D01*
X150459275Y-158739638D02*
X150268799Y-158644400D01*
X150268799Y-158644400D02*
X150173561Y-158453923D01*
X150173561Y-158453923D02*
X150173561Y-156739638D01*
X151221180Y-158739638D02*
X151221180Y-157406304D01*
X151221180Y-156739638D02*
X151125942Y-156834876D01*
X151125942Y-156834876D02*
X151221180Y-156930114D01*
X151221180Y-156930114D02*
X151316418Y-156834876D01*
X151316418Y-156834876D02*
X151221180Y-156739638D01*
X151221180Y-156739638D02*
X151221180Y-156930114D01*
X151887847Y-157406304D02*
X152649751Y-157406304D01*
X152173561Y-158739638D02*
X152173561Y-157025352D01*
X152173561Y-157025352D02*
X152268799Y-156834876D01*
X152268799Y-156834876D02*
X152459275Y-156739638D01*
X152459275Y-156739638D02*
X152649751Y-156739638D01*
X153030704Y-157406304D02*
X153792608Y-157406304D01*
X153316418Y-158739638D02*
X153316418Y-157025352D01*
X153316418Y-157025352D02*
X153411656Y-156834876D01*
X153411656Y-156834876D02*
X153602132Y-156739638D01*
X153602132Y-156739638D02*
X153792608Y-156739638D01*
D10*
X146360588Y-129667438D02*
X146265350Y-129619819D01*
X146265350Y-129619819D02*
X146122493Y-129619819D01*
X146122493Y-129619819D02*
X145979636Y-129667438D01*
X145979636Y-129667438D02*
X145884398Y-129762676D01*
X145884398Y-129762676D02*
X145836779Y-129857914D01*
X145836779Y-129857914D02*
X145789160Y-130048390D01*
X145789160Y-130048390D02*
X145789160Y-130191247D01*
X145789160Y-130191247D02*
X145836779Y-130381723D01*
X145836779Y-130381723D02*
X145884398Y-130476961D01*
X145884398Y-130476961D02*
X145979636Y-130572200D01*
X145979636Y-130572200D02*
X146122493Y-130619819D01*
X146122493Y-130619819D02*
X146217731Y-130619819D01*
X146217731Y-130619819D02*
X146360588Y-130572200D01*
X146360588Y-130572200D02*
X146408207Y-130524580D01*
X146408207Y-130524580D02*
X146408207Y-130191247D01*
X146408207Y-130191247D02*
X146217731Y-130191247D01*
X146836779Y-130619819D02*
X146836779Y-129619819D01*
X146836779Y-129619819D02*
X147408207Y-130619819D01*
X147408207Y-130619819D02*
X147408207Y-129619819D01*
X147884398Y-130619819D02*
X147884398Y-129619819D01*
X147884398Y-129619819D02*
X148122493Y-129619819D01*
X148122493Y-129619819D02*
X148265350Y-129667438D01*
X148265350Y-129667438D02*
X148360588Y-129762676D01*
X148360588Y-129762676D02*
X148408207Y-129857914D01*
X148408207Y-129857914D02*
X148455826Y-130048390D01*
X148455826Y-130048390D02*
X148455826Y-130191247D01*
X148455826Y-130191247D02*
X148408207Y-130381723D01*
X148408207Y-130381723D02*
X148360588Y-130476961D01*
X148360588Y-130476961D02*
X148265350Y-130572200D01*
X148265350Y-130572200D02*
X148122493Y-130619819D01*
X148122493Y-130619819D02*
X147884398Y-130619819D01*
X146586779Y-127869819D02*
X146586779Y-126869819D01*
X146586779Y-126869819D02*
X146824874Y-126869819D01*
X146824874Y-126869819D02*
X146967731Y-126917438D01*
X146967731Y-126917438D02*
X147062969Y-127012676D01*
X147062969Y-127012676D02*
X147110588Y-127107914D01*
X147110588Y-127107914D02*
X147158207Y-127298390D01*
X147158207Y-127298390D02*
X147158207Y-127441247D01*
X147158207Y-127441247D02*
X147110588Y-127631723D01*
X147110588Y-127631723D02*
X147062969Y-127726961D01*
X147062969Y-127726961D02*
X146967731Y-127822200D01*
X146967731Y-127822200D02*
X146824874Y-127869819D01*
X146824874Y-127869819D02*
X146586779Y-127869819D01*
X148062969Y-126869819D02*
X147586779Y-126869819D01*
X147586779Y-126869819D02*
X147539160Y-127346009D01*
X147539160Y-127346009D02*
X147586779Y-127298390D01*
X147586779Y-127298390D02*
X147682017Y-127250771D01*
X147682017Y-127250771D02*
X147920112Y-127250771D01*
X147920112Y-127250771D02*
X148015350Y-127298390D01*
X148015350Y-127298390D02*
X148062969Y-127346009D01*
X148062969Y-127346009D02*
X148110588Y-127441247D01*
X148110588Y-127441247D02*
X148110588Y-127679342D01*
X148110588Y-127679342D02*
X148062969Y-127774580D01*
X148062969Y-127774580D02*
X148015350Y-127822200D01*
X148015350Y-127822200D02*
X147920112Y-127869819D01*
X147920112Y-127869819D02*
X147682017Y-127869819D01*
X147682017Y-127869819D02*
X147586779Y-127822200D01*
X147586779Y-127822200D02*
X147539160Y-127774580D01*
X117139160Y-118044295D02*
X117139160Y-117244295D01*
X117139160Y-117244295D02*
X117329636Y-117244295D01*
X117329636Y-117244295D02*
X117443922Y-117282390D01*
X117443922Y-117282390D02*
X117520112Y-117358580D01*
X117520112Y-117358580D02*
X117558207Y-117434771D01*
X117558207Y-117434771D02*
X117596303Y-117587152D01*
X117596303Y-117587152D02*
X117596303Y-117701438D01*
X117596303Y-117701438D02*
X117558207Y-117853819D01*
X117558207Y-117853819D02*
X117520112Y-117930009D01*
X117520112Y-117930009D02*
X117443922Y-118006200D01*
X117443922Y-118006200D02*
X117329636Y-118044295D01*
X117329636Y-118044295D02*
X117139160Y-118044295D01*
X117862969Y-117244295D02*
X118358207Y-117244295D01*
X118358207Y-117244295D02*
X118091541Y-117549057D01*
X118091541Y-117549057D02*
X118205826Y-117549057D01*
X118205826Y-117549057D02*
X118282017Y-117587152D01*
X118282017Y-117587152D02*
X118320112Y-117625247D01*
X118320112Y-117625247D02*
X118358207Y-117701438D01*
X118358207Y-117701438D02*
X118358207Y-117891914D01*
X118358207Y-117891914D02*
X118320112Y-117968104D01*
X118320112Y-117968104D02*
X118282017Y-118006200D01*
X118282017Y-118006200D02*
X118205826Y-118044295D01*
X118205826Y-118044295D02*
X117977255Y-118044295D01*
X117977255Y-118044295D02*
X117901064Y-118006200D01*
X117901064Y-118006200D02*
X117862969Y-117968104D01*
X146539160Y-143834104D02*
X147015350Y-143834104D01*
X146443922Y-144119819D02*
X146777255Y-143119819D01*
X146777255Y-143119819D02*
X147110588Y-144119819D01*
X147634398Y-143119819D02*
X147729636Y-143119819D01*
X147729636Y-143119819D02*
X147824874Y-143167438D01*
X147824874Y-143167438D02*
X147872493Y-143215057D01*
X147872493Y-143215057D02*
X147920112Y-143310295D01*
X147920112Y-143310295D02*
X147967731Y-143500771D01*
X147967731Y-143500771D02*
X147967731Y-143738866D01*
X147967731Y-143738866D02*
X147920112Y-143929342D01*
X147920112Y-143929342D02*
X147872493Y-144024580D01*
X147872493Y-144024580D02*
X147824874Y-144072200D01*
X147824874Y-144072200D02*
X147729636Y-144119819D01*
X147729636Y-144119819D02*
X147634398Y-144119819D01*
X147634398Y-144119819D02*
X147539160Y-144072200D01*
X147539160Y-144072200D02*
X147491541Y-144024580D01*
X147491541Y-144024580D02*
X147443922Y-143929342D01*
X147443922Y-143929342D02*
X147396303Y-143738866D01*
X147396303Y-143738866D02*
X147396303Y-143500771D01*
X147396303Y-143500771D02*
X147443922Y-143310295D01*
X147443922Y-143310295D02*
X147491541Y-143215057D01*
X147491541Y-143215057D02*
X147539160Y-143167438D01*
X147539160Y-143167438D02*
X147634398Y-143119819D01*
X119739160Y-118069295D02*
X119739160Y-117269295D01*
X119739160Y-117269295D02*
X119929636Y-117269295D01*
X119929636Y-117269295D02*
X120043922Y-117307390D01*
X120043922Y-117307390D02*
X120120112Y-117383580D01*
X120120112Y-117383580D02*
X120158207Y-117459771D01*
X120158207Y-117459771D02*
X120196303Y-117612152D01*
X120196303Y-117612152D02*
X120196303Y-117726438D01*
X120196303Y-117726438D02*
X120158207Y-117878819D01*
X120158207Y-117878819D02*
X120120112Y-117955009D01*
X120120112Y-117955009D02*
X120043922Y-118031200D01*
X120043922Y-118031200D02*
X119929636Y-118069295D01*
X119929636Y-118069295D02*
X119739160Y-118069295D01*
X120882017Y-117535961D02*
X120882017Y-118069295D01*
X120691541Y-117231200D02*
X120501064Y-117802628D01*
X120501064Y-117802628D02*
X120996303Y-117802628D01*
X109312969Y-155369819D02*
X108836779Y-155369819D01*
X108836779Y-155369819D02*
X108789160Y-155846009D01*
X108789160Y-155846009D02*
X108836779Y-155798390D01*
X108836779Y-155798390D02*
X108932017Y-155750771D01*
X108932017Y-155750771D02*
X109170112Y-155750771D01*
X109170112Y-155750771D02*
X109265350Y-155798390D01*
X109265350Y-155798390D02*
X109312969Y-155846009D01*
X109312969Y-155846009D02*
X109360588Y-155941247D01*
X109360588Y-155941247D02*
X109360588Y-156179342D01*
X109360588Y-156179342D02*
X109312969Y-156274580D01*
X109312969Y-156274580D02*
X109265350Y-156322200D01*
X109265350Y-156322200D02*
X109170112Y-156369819D01*
X109170112Y-156369819D02*
X108932017Y-156369819D01*
X108932017Y-156369819D02*
X108836779Y-156322200D01*
X108836779Y-156322200D02*
X108789160Y-156274580D01*
X109646303Y-155369819D02*
X109979636Y-156369819D01*
X109979636Y-156369819D02*
X110312969Y-155369819D01*
X80096009Y-141079887D02*
X80143628Y-140937030D01*
X80143628Y-140937030D02*
X80191247Y-140889411D01*
X80191247Y-140889411D02*
X80286485Y-140841792D01*
X80286485Y-140841792D02*
X80429342Y-140841792D01*
X80429342Y-140841792D02*
X80524580Y-140889411D01*
X80524580Y-140889411D02*
X80572200Y-140937030D01*
X80572200Y-140937030D02*
X80619819Y-141032268D01*
X80619819Y-141032268D02*
X80619819Y-141413220D01*
X80619819Y-141413220D02*
X79619819Y-141413220D01*
X79619819Y-141413220D02*
X79619819Y-141079887D01*
X79619819Y-141079887D02*
X79667438Y-140984649D01*
X79667438Y-140984649D02*
X79715057Y-140937030D01*
X79715057Y-140937030D02*
X79810295Y-140889411D01*
X79810295Y-140889411D02*
X79905533Y-140889411D01*
X79905533Y-140889411D02*
X80000771Y-140937030D01*
X80000771Y-140937030D02*
X80048390Y-140984649D01*
X80048390Y-140984649D02*
X80096009Y-141079887D01*
X80096009Y-141079887D02*
X80096009Y-141413220D01*
X80619819Y-139984649D02*
X80096009Y-139984649D01*
X80096009Y-139984649D02*
X80000771Y-140032268D01*
X80000771Y-140032268D02*
X79953152Y-140127506D01*
X79953152Y-140127506D02*
X79953152Y-140317982D01*
X79953152Y-140317982D02*
X80000771Y-140413220D01*
X80572200Y-139984649D02*
X80619819Y-140079887D01*
X80619819Y-140079887D02*
X80619819Y-140317982D01*
X80619819Y-140317982D02*
X80572200Y-140413220D01*
X80572200Y-140413220D02*
X80476961Y-140460839D01*
X80476961Y-140460839D02*
X80381723Y-140460839D01*
X80381723Y-140460839D02*
X80286485Y-140413220D01*
X80286485Y-140413220D02*
X80238866Y-140317982D01*
X80238866Y-140317982D02*
X80238866Y-140079887D01*
X80238866Y-140079887D02*
X80191247Y-139984649D01*
X79953152Y-139651315D02*
X79953152Y-139270363D01*
X79619819Y-139508458D02*
X80476961Y-139508458D01*
X80476961Y-139508458D02*
X80572200Y-139460839D01*
X80572200Y-139460839D02*
X80619819Y-139365601D01*
X80619819Y-139365601D02*
X80619819Y-139270363D01*
X79953152Y-139079886D02*
X79953152Y-138698934D01*
X79619819Y-138937029D02*
X80476961Y-138937029D01*
X80476961Y-138937029D02*
X80572200Y-138889410D01*
X80572200Y-138889410D02*
X80619819Y-138794172D01*
X80619819Y-138794172D02*
X80619819Y-138698934D01*
X80572200Y-137984648D02*
X80619819Y-138079886D01*
X80619819Y-138079886D02*
X80619819Y-138270362D01*
X80619819Y-138270362D02*
X80572200Y-138365600D01*
X80572200Y-138365600D02*
X80476961Y-138413219D01*
X80476961Y-138413219D02*
X80096009Y-138413219D01*
X80096009Y-138413219D02*
X80000771Y-138365600D01*
X80000771Y-138365600D02*
X79953152Y-138270362D01*
X79953152Y-138270362D02*
X79953152Y-138079886D01*
X79953152Y-138079886D02*
X80000771Y-137984648D01*
X80000771Y-137984648D02*
X80096009Y-137937029D01*
X80096009Y-137937029D02*
X80191247Y-137937029D01*
X80191247Y-137937029D02*
X80286485Y-138413219D01*
X80619819Y-137508457D02*
X79953152Y-137508457D01*
X80143628Y-137508457D02*
X80048390Y-137460838D01*
X80048390Y-137460838D02*
X80000771Y-137413219D01*
X80000771Y-137413219D02*
X79953152Y-137317981D01*
X79953152Y-137317981D02*
X79953152Y-137222743D01*
X79953152Y-136984647D02*
X80619819Y-136746552D01*
X79953152Y-136508457D02*
X80619819Y-136746552D01*
X80619819Y-136746552D02*
X80857914Y-136841790D01*
X80857914Y-136841790D02*
X80905533Y-136889409D01*
X80905533Y-136889409D02*
X80953152Y-136984647D01*
X79619819Y-135460837D02*
X79619819Y-134841790D01*
X79619819Y-134841790D02*
X80000771Y-135175123D01*
X80000771Y-135175123D02*
X80000771Y-135032266D01*
X80000771Y-135032266D02*
X80048390Y-134937028D01*
X80048390Y-134937028D02*
X80096009Y-134889409D01*
X80096009Y-134889409D02*
X80191247Y-134841790D01*
X80191247Y-134841790D02*
X80429342Y-134841790D01*
X80429342Y-134841790D02*
X80524580Y-134889409D01*
X80524580Y-134889409D02*
X80572200Y-134937028D01*
X80572200Y-134937028D02*
X80619819Y-135032266D01*
X80619819Y-135032266D02*
X80619819Y-135317980D01*
X80619819Y-135317980D02*
X80572200Y-135413218D01*
X80572200Y-135413218D02*
X80524580Y-135460837D01*
X111336779Y-156369819D02*
X111336779Y-155369819D01*
X111336779Y-155369819D02*
X111574874Y-155369819D01*
X111574874Y-155369819D02*
X111717731Y-155417438D01*
X111717731Y-155417438D02*
X111812969Y-155512676D01*
X111812969Y-155512676D02*
X111860588Y-155607914D01*
X111860588Y-155607914D02*
X111908207Y-155798390D01*
X111908207Y-155798390D02*
X111908207Y-155941247D01*
X111908207Y-155941247D02*
X111860588Y-156131723D01*
X111860588Y-156131723D02*
X111812969Y-156226961D01*
X111812969Y-156226961D02*
X111717731Y-156322200D01*
X111717731Y-156322200D02*
X111574874Y-156369819D01*
X111574874Y-156369819D02*
X111336779Y-156369819D01*
X112765350Y-155703152D02*
X112765350Y-156369819D01*
X112527255Y-155322200D02*
X112289160Y-156036485D01*
X112289160Y-156036485D02*
X112908207Y-156036485D01*
X117110588Y-155417438D02*
X117015350Y-155369819D01*
X117015350Y-155369819D02*
X116872493Y-155369819D01*
X116872493Y-155369819D02*
X116729636Y-155417438D01*
X116729636Y-155417438D02*
X116634398Y-155512676D01*
X116634398Y-155512676D02*
X116586779Y-155607914D01*
X116586779Y-155607914D02*
X116539160Y-155798390D01*
X116539160Y-155798390D02*
X116539160Y-155941247D01*
X116539160Y-155941247D02*
X116586779Y-156131723D01*
X116586779Y-156131723D02*
X116634398Y-156226961D01*
X116634398Y-156226961D02*
X116729636Y-156322200D01*
X116729636Y-156322200D02*
X116872493Y-156369819D01*
X116872493Y-156369819D02*
X116967731Y-156369819D01*
X116967731Y-156369819D02*
X117110588Y-156322200D01*
X117110588Y-156322200D02*
X117158207Y-156274580D01*
X117158207Y-156274580D02*
X117158207Y-155941247D01*
X117158207Y-155941247D02*
X116967731Y-155941247D01*
X117586779Y-156369819D02*
X117586779Y-155369819D01*
X117586779Y-155369819D02*
X118158207Y-156369819D01*
X118158207Y-156369819D02*
X118158207Y-155369819D01*
X118634398Y-156369819D02*
X118634398Y-155369819D01*
X118634398Y-155369819D02*
X118872493Y-155369819D01*
X118872493Y-155369819D02*
X119015350Y-155417438D01*
X119015350Y-155417438D02*
X119110588Y-155512676D01*
X119110588Y-155512676D02*
X119158207Y-155607914D01*
X119158207Y-155607914D02*
X119205826Y-155798390D01*
X119205826Y-155798390D02*
X119205826Y-155941247D01*
X119205826Y-155941247D02*
X119158207Y-156131723D01*
X119158207Y-156131723D02*
X119110588Y-156226961D01*
X119110588Y-156226961D02*
X119015350Y-156322200D01*
X119015350Y-156322200D02*
X118872493Y-156369819D01*
X118872493Y-156369819D02*
X118634398Y-156369819D01*
X147312969Y-148619819D02*
X146836779Y-148619819D01*
X146836779Y-148619819D02*
X146789160Y-149096009D01*
X146789160Y-149096009D02*
X146836779Y-149048390D01*
X146836779Y-149048390D02*
X146932017Y-149000771D01*
X146932017Y-149000771D02*
X147170112Y-149000771D01*
X147170112Y-149000771D02*
X147265350Y-149048390D01*
X147265350Y-149048390D02*
X147312969Y-149096009D01*
X147312969Y-149096009D02*
X147360588Y-149191247D01*
X147360588Y-149191247D02*
X147360588Y-149429342D01*
X147360588Y-149429342D02*
X147312969Y-149524580D01*
X147312969Y-149524580D02*
X147265350Y-149572200D01*
X147265350Y-149572200D02*
X147170112Y-149619819D01*
X147170112Y-149619819D02*
X146932017Y-149619819D01*
X146932017Y-149619819D02*
X146836779Y-149572200D01*
X146836779Y-149572200D02*
X146789160Y-149524580D01*
X147646303Y-148619819D02*
X147979636Y-149619819D01*
X147979636Y-149619819D02*
X148312969Y-148619819D01*
X78470019Y-129113820D02*
X77470019Y-129113820D01*
X77470019Y-129113820D02*
X77470019Y-128732868D01*
X77470019Y-128732868D02*
X77517638Y-128637630D01*
X77517638Y-128637630D02*
X77565257Y-128590011D01*
X77565257Y-128590011D02*
X77660495Y-128542392D01*
X77660495Y-128542392D02*
X77803352Y-128542392D01*
X77803352Y-128542392D02*
X77898590Y-128590011D01*
X77898590Y-128590011D02*
X77946209Y-128637630D01*
X77946209Y-128637630D02*
X77993828Y-128732868D01*
X77993828Y-128732868D02*
X77993828Y-129113820D01*
X78470019Y-127970963D02*
X78422400Y-128066201D01*
X78422400Y-128066201D02*
X78374780Y-128113820D01*
X78374780Y-128113820D02*
X78279542Y-128161439D01*
X78279542Y-128161439D02*
X77993828Y-128161439D01*
X77993828Y-128161439D02*
X77898590Y-128113820D01*
X77898590Y-128113820D02*
X77850971Y-128066201D01*
X77850971Y-128066201D02*
X77803352Y-127970963D01*
X77803352Y-127970963D02*
X77803352Y-127828106D01*
X77803352Y-127828106D02*
X77850971Y-127732868D01*
X77850971Y-127732868D02*
X77898590Y-127685249D01*
X77898590Y-127685249D02*
X77993828Y-127637630D01*
X77993828Y-127637630D02*
X78279542Y-127637630D01*
X78279542Y-127637630D02*
X78374780Y-127685249D01*
X78374780Y-127685249D02*
X78422400Y-127732868D01*
X78422400Y-127732868D02*
X78470019Y-127828106D01*
X78470019Y-127828106D02*
X78470019Y-127970963D01*
X77803352Y-127304296D02*
X78470019Y-127113820D01*
X78470019Y-127113820D02*
X77993828Y-126923344D01*
X77993828Y-126923344D02*
X78470019Y-126732868D01*
X78470019Y-126732868D02*
X77803352Y-126542392D01*
X78422400Y-125780487D02*
X78470019Y-125875725D01*
X78470019Y-125875725D02*
X78470019Y-126066201D01*
X78470019Y-126066201D02*
X78422400Y-126161439D01*
X78422400Y-126161439D02*
X78327161Y-126209058D01*
X78327161Y-126209058D02*
X77946209Y-126209058D01*
X77946209Y-126209058D02*
X77850971Y-126161439D01*
X77850971Y-126161439D02*
X77803352Y-126066201D01*
X77803352Y-126066201D02*
X77803352Y-125875725D01*
X77803352Y-125875725D02*
X77850971Y-125780487D01*
X77850971Y-125780487D02*
X77946209Y-125732868D01*
X77946209Y-125732868D02*
X78041447Y-125732868D01*
X78041447Y-125732868D02*
X78136685Y-126209058D01*
X78470019Y-125304296D02*
X77803352Y-125304296D01*
X77993828Y-125304296D02*
X77898590Y-125256677D01*
X77898590Y-125256677D02*
X77850971Y-125209058D01*
X77850971Y-125209058D02*
X77803352Y-125113820D01*
X77803352Y-125113820D02*
X77803352Y-125018582D01*
X78422400Y-123970962D02*
X78470019Y-123828105D01*
X78470019Y-123828105D02*
X78470019Y-123590010D01*
X78470019Y-123590010D02*
X78422400Y-123494772D01*
X78422400Y-123494772D02*
X78374780Y-123447153D01*
X78374780Y-123447153D02*
X78279542Y-123399534D01*
X78279542Y-123399534D02*
X78184304Y-123399534D01*
X78184304Y-123399534D02*
X78089066Y-123447153D01*
X78089066Y-123447153D02*
X78041447Y-123494772D01*
X78041447Y-123494772D02*
X77993828Y-123590010D01*
X77993828Y-123590010D02*
X77946209Y-123780486D01*
X77946209Y-123780486D02*
X77898590Y-123875724D01*
X77898590Y-123875724D02*
X77850971Y-123923343D01*
X77850971Y-123923343D02*
X77755733Y-123970962D01*
X77755733Y-123970962D02*
X77660495Y-123970962D01*
X77660495Y-123970962D02*
X77565257Y-123923343D01*
X77565257Y-123923343D02*
X77517638Y-123875724D01*
X77517638Y-123875724D02*
X77470019Y-123780486D01*
X77470019Y-123780486D02*
X77470019Y-123542391D01*
X77470019Y-123542391D02*
X77517638Y-123399534D01*
X77803352Y-123066200D02*
X78470019Y-122875724D01*
X78470019Y-122875724D02*
X77993828Y-122685248D01*
X77993828Y-122685248D02*
X78470019Y-122494772D01*
X78470019Y-122494772D02*
X77803352Y-122304296D01*
X78470019Y-121923343D02*
X77803352Y-121923343D01*
X77470019Y-121923343D02*
X77517638Y-121970962D01*
X77517638Y-121970962D02*
X77565257Y-121923343D01*
X77565257Y-121923343D02*
X77517638Y-121875724D01*
X77517638Y-121875724D02*
X77470019Y-121923343D01*
X77470019Y-121923343D02*
X77565257Y-121923343D01*
X77803352Y-121590010D02*
X77803352Y-121209058D01*
X77470019Y-121447153D02*
X78327161Y-121447153D01*
X78327161Y-121447153D02*
X78422400Y-121399534D01*
X78422400Y-121399534D02*
X78470019Y-121304296D01*
X78470019Y-121304296D02*
X78470019Y-121209058D01*
X78422400Y-120447153D02*
X78470019Y-120542391D01*
X78470019Y-120542391D02*
X78470019Y-120732867D01*
X78470019Y-120732867D02*
X78422400Y-120828105D01*
X78422400Y-120828105D02*
X78374780Y-120875724D01*
X78374780Y-120875724D02*
X78279542Y-120923343D01*
X78279542Y-120923343D02*
X77993828Y-120923343D01*
X77993828Y-120923343D02*
X77898590Y-120875724D01*
X77898590Y-120875724D02*
X77850971Y-120828105D01*
X77850971Y-120828105D02*
X77803352Y-120732867D01*
X77803352Y-120732867D02*
X77803352Y-120542391D01*
X77803352Y-120542391D02*
X77850971Y-120447153D01*
X78470019Y-120018581D02*
X77470019Y-120018581D01*
X78470019Y-119590010D02*
X77946209Y-119590010D01*
X77946209Y-119590010D02*
X77850971Y-119637629D01*
X77850971Y-119637629D02*
X77803352Y-119732867D01*
X77803352Y-119732867D02*
X77803352Y-119875724D01*
X77803352Y-119875724D02*
X77850971Y-119970962D01*
X77850971Y-119970962D02*
X77898590Y-120018581D01*
X148586779Y-136619819D02*
X148586779Y-135619819D01*
X148586779Y-136096009D02*
X149158207Y-136096009D01*
X149158207Y-136619819D02*
X149158207Y-135619819D01*
X150205826Y-136524580D02*
X150158207Y-136572200D01*
X150158207Y-136572200D02*
X150015350Y-136619819D01*
X150015350Y-136619819D02*
X149920112Y-136619819D01*
X149920112Y-136619819D02*
X149777255Y-136572200D01*
X149777255Y-136572200D02*
X149682017Y-136476961D01*
X149682017Y-136476961D02*
X149634398Y-136381723D01*
X149634398Y-136381723D02*
X149586779Y-136191247D01*
X149586779Y-136191247D02*
X149586779Y-136048390D01*
X149586779Y-136048390D02*
X149634398Y-135857914D01*
X149634398Y-135857914D02*
X149682017Y-135762676D01*
X149682017Y-135762676D02*
X149777255Y-135667438D01*
X149777255Y-135667438D02*
X149920112Y-135619819D01*
X149920112Y-135619819D02*
X150015350Y-135619819D01*
X150015350Y-135619819D02*
X150158207Y-135667438D01*
X150158207Y-135667438D02*
X150205826Y-135715057D01*
X150634398Y-136238866D02*
X151396303Y-136238866D01*
X152396302Y-136619819D02*
X151824874Y-136619819D01*
X152110588Y-136619819D02*
X152110588Y-135619819D01*
X152110588Y-135619819D02*
X152015350Y-135762676D01*
X152015350Y-135762676D02*
X151920112Y-135857914D01*
X151920112Y-135857914D02*
X151824874Y-135905533D01*
X152777255Y-135715057D02*
X152824874Y-135667438D01*
X152824874Y-135667438D02*
X152920112Y-135619819D01*
X152920112Y-135619819D02*
X153158207Y-135619819D01*
X153158207Y-135619819D02*
X153253445Y-135667438D01*
X153253445Y-135667438D02*
X153301064Y-135715057D01*
X153301064Y-135715057D02*
X153348683Y-135810295D01*
X153348683Y-135810295D02*
X153348683Y-135905533D01*
X153348683Y-135905533D02*
X153301064Y-136048390D01*
X153301064Y-136048390D02*
X152729636Y-136619819D01*
X152729636Y-136619819D02*
X153348683Y-136619819D01*
X113836779Y-156369819D02*
X113836779Y-155369819D01*
X113836779Y-155369819D02*
X114074874Y-155369819D01*
X114074874Y-155369819D02*
X114217731Y-155417438D01*
X114217731Y-155417438D02*
X114312969Y-155512676D01*
X114312969Y-155512676D02*
X114360588Y-155607914D01*
X114360588Y-155607914D02*
X114408207Y-155798390D01*
X114408207Y-155798390D02*
X114408207Y-155941247D01*
X114408207Y-155941247D02*
X114360588Y-156131723D01*
X114360588Y-156131723D02*
X114312969Y-156226961D01*
X114312969Y-156226961D02*
X114217731Y-156322200D01*
X114217731Y-156322200D02*
X114074874Y-156369819D01*
X114074874Y-156369819D02*
X113836779Y-156369819D01*
X114741541Y-155369819D02*
X115360588Y-155369819D01*
X115360588Y-155369819D02*
X115027255Y-155750771D01*
X115027255Y-155750771D02*
X115170112Y-155750771D01*
X115170112Y-155750771D02*
X115265350Y-155798390D01*
X115265350Y-155798390D02*
X115312969Y-155846009D01*
X115312969Y-155846009D02*
X115360588Y-155941247D01*
X115360588Y-155941247D02*
X115360588Y-156179342D01*
X115360588Y-156179342D02*
X115312969Y-156274580D01*
X115312969Y-156274580D02*
X115265350Y-156322200D01*
X115265350Y-156322200D02*
X115170112Y-156369819D01*
X115170112Y-156369819D02*
X114884398Y-156369819D01*
X114884398Y-156369819D02*
X114789160Y-156322200D01*
X114789160Y-156322200D02*
X114741541Y-156274580D01*
X104349874Y-97569295D02*
X104616541Y-98369295D01*
X104616541Y-98369295D02*
X104883207Y-97569295D01*
X105149874Y-98369295D02*
X105149874Y-97835961D01*
X105149874Y-97569295D02*
X105111778Y-97607390D01*
X105111778Y-97607390D02*
X105149874Y-97645485D01*
X105149874Y-97645485D02*
X105187969Y-97607390D01*
X105187969Y-97607390D02*
X105149874Y-97569295D01*
X105149874Y-97569295D02*
X105149874Y-97645485D01*
X105530826Y-97835961D02*
X105530826Y-98369295D01*
X105530826Y-97912152D02*
X105568921Y-97874057D01*
X105568921Y-97874057D02*
X105645111Y-97835961D01*
X105645111Y-97835961D02*
X105759397Y-97835961D01*
X105759397Y-97835961D02*
X105835588Y-97874057D01*
X105835588Y-97874057D02*
X105873683Y-97950247D01*
X105873683Y-97950247D02*
X105873683Y-98369295D01*
X124839160Y-118144295D02*
X124839160Y-117344295D01*
X124839160Y-117344295D02*
X125029636Y-117344295D01*
X125029636Y-117344295D02*
X125143922Y-117382390D01*
X125143922Y-117382390D02*
X125220112Y-117458580D01*
X125220112Y-117458580D02*
X125258207Y-117534771D01*
X125258207Y-117534771D02*
X125296303Y-117687152D01*
X125296303Y-117687152D02*
X125296303Y-117801438D01*
X125296303Y-117801438D02*
X125258207Y-117953819D01*
X125258207Y-117953819D02*
X125220112Y-118030009D01*
X125220112Y-118030009D02*
X125143922Y-118106200D01*
X125143922Y-118106200D02*
X125029636Y-118144295D01*
X125029636Y-118144295D02*
X124839160Y-118144295D01*
X125982017Y-117344295D02*
X125829636Y-117344295D01*
X125829636Y-117344295D02*
X125753445Y-117382390D01*
X125753445Y-117382390D02*
X125715350Y-117420485D01*
X125715350Y-117420485D02*
X125639160Y-117534771D01*
X125639160Y-117534771D02*
X125601064Y-117687152D01*
X125601064Y-117687152D02*
X125601064Y-117991914D01*
X125601064Y-117991914D02*
X125639160Y-118068104D01*
X125639160Y-118068104D02*
X125677255Y-118106200D01*
X125677255Y-118106200D02*
X125753445Y-118144295D01*
X125753445Y-118144295D02*
X125905826Y-118144295D01*
X125905826Y-118144295D02*
X125982017Y-118106200D01*
X125982017Y-118106200D02*
X126020112Y-118068104D01*
X126020112Y-118068104D02*
X126058207Y-117991914D01*
X126058207Y-117991914D02*
X126058207Y-117801438D01*
X126058207Y-117801438D02*
X126020112Y-117725247D01*
X126020112Y-117725247D02*
X125982017Y-117687152D01*
X125982017Y-117687152D02*
X125905826Y-117649057D01*
X125905826Y-117649057D02*
X125753445Y-117649057D01*
X125753445Y-117649057D02*
X125677255Y-117687152D01*
X125677255Y-117687152D02*
X125639160Y-117725247D01*
X125639160Y-117725247D02*
X125601064Y-117801438D01*
X146360588Y-145917438D02*
X146265350Y-145869819D01*
X146265350Y-145869819D02*
X146122493Y-145869819D01*
X146122493Y-145869819D02*
X145979636Y-145917438D01*
X145979636Y-145917438D02*
X145884398Y-146012676D01*
X145884398Y-146012676D02*
X145836779Y-146107914D01*
X145836779Y-146107914D02*
X145789160Y-146298390D01*
X145789160Y-146298390D02*
X145789160Y-146441247D01*
X145789160Y-146441247D02*
X145836779Y-146631723D01*
X145836779Y-146631723D02*
X145884398Y-146726961D01*
X145884398Y-146726961D02*
X145979636Y-146822200D01*
X145979636Y-146822200D02*
X146122493Y-146869819D01*
X146122493Y-146869819D02*
X146217731Y-146869819D01*
X146217731Y-146869819D02*
X146360588Y-146822200D01*
X146360588Y-146822200D02*
X146408207Y-146774580D01*
X146408207Y-146774580D02*
X146408207Y-146441247D01*
X146408207Y-146441247D02*
X146217731Y-146441247D01*
X146836779Y-146869819D02*
X146836779Y-145869819D01*
X146836779Y-145869819D02*
X147408207Y-146869819D01*
X147408207Y-146869819D02*
X147408207Y-145869819D01*
X147884398Y-146869819D02*
X147884398Y-145869819D01*
X147884398Y-145869819D02*
X148122493Y-145869819D01*
X148122493Y-145869819D02*
X148265350Y-145917438D01*
X148265350Y-145917438D02*
X148360588Y-146012676D01*
X148360588Y-146012676D02*
X148408207Y-146107914D01*
X148408207Y-146107914D02*
X148455826Y-146298390D01*
X148455826Y-146298390D02*
X148455826Y-146441247D01*
X148455826Y-146441247D02*
X148408207Y-146631723D01*
X148408207Y-146631723D02*
X148360588Y-146726961D01*
X148360588Y-146726961D02*
X148265350Y-146822200D01*
X148265350Y-146822200D02*
X148122493Y-146869819D01*
X148122493Y-146869819D02*
X147884398Y-146869819D01*
X98336779Y-159869819D02*
X98336779Y-158869819D01*
X98336779Y-159346009D02*
X98908207Y-159346009D01*
X98908207Y-159869819D02*
X98908207Y-158869819D01*
X99955826Y-159774580D02*
X99908207Y-159822200D01*
X99908207Y-159822200D02*
X99765350Y-159869819D01*
X99765350Y-159869819D02*
X99670112Y-159869819D01*
X99670112Y-159869819D02*
X99527255Y-159822200D01*
X99527255Y-159822200D02*
X99432017Y-159726961D01*
X99432017Y-159726961D02*
X99384398Y-159631723D01*
X99384398Y-159631723D02*
X99336779Y-159441247D01*
X99336779Y-159441247D02*
X99336779Y-159298390D01*
X99336779Y-159298390D02*
X99384398Y-159107914D01*
X99384398Y-159107914D02*
X99432017Y-159012676D01*
X99432017Y-159012676D02*
X99527255Y-158917438D01*
X99527255Y-158917438D02*
X99670112Y-158869819D01*
X99670112Y-158869819D02*
X99765350Y-158869819D01*
X99765350Y-158869819D02*
X99908207Y-158917438D01*
X99908207Y-158917438D02*
X99955826Y-158965057D01*
X100384398Y-159488866D02*
X101146303Y-159488866D01*
X101574874Y-159822200D02*
X101717731Y-159869819D01*
X101717731Y-159869819D02*
X101955826Y-159869819D01*
X101955826Y-159869819D02*
X102051064Y-159822200D01*
X102051064Y-159822200D02*
X102098683Y-159774580D01*
X102098683Y-159774580D02*
X102146302Y-159679342D01*
X102146302Y-159679342D02*
X102146302Y-159584104D01*
X102146302Y-159584104D02*
X102098683Y-159488866D01*
X102098683Y-159488866D02*
X102051064Y-159441247D01*
X102051064Y-159441247D02*
X101955826Y-159393628D01*
X101955826Y-159393628D02*
X101765350Y-159346009D01*
X101765350Y-159346009D02*
X101670112Y-159298390D01*
X101670112Y-159298390D02*
X101622493Y-159250771D01*
X101622493Y-159250771D02*
X101574874Y-159155533D01*
X101574874Y-159155533D02*
X101574874Y-159060295D01*
X101574874Y-159060295D02*
X101622493Y-158965057D01*
X101622493Y-158965057D02*
X101670112Y-158917438D01*
X101670112Y-158917438D02*
X101765350Y-158869819D01*
X101765350Y-158869819D02*
X102003445Y-158869819D01*
X102003445Y-158869819D02*
X102146302Y-158917438D01*
X103146302Y-159869819D02*
X102812969Y-159393628D01*
X102574874Y-159869819D02*
X102574874Y-158869819D01*
X102574874Y-158869819D02*
X102955826Y-158869819D01*
X102955826Y-158869819D02*
X103051064Y-158917438D01*
X103051064Y-158917438D02*
X103098683Y-158965057D01*
X103098683Y-158965057D02*
X103146302Y-159060295D01*
X103146302Y-159060295D02*
X103146302Y-159203152D01*
X103146302Y-159203152D02*
X103098683Y-159298390D01*
X103098683Y-159298390D02*
X103051064Y-159346009D01*
X103051064Y-159346009D02*
X102955826Y-159393628D01*
X102955826Y-159393628D02*
X102574874Y-159393628D01*
X103765350Y-158869819D02*
X103860588Y-158869819D01*
X103860588Y-158869819D02*
X103955826Y-158917438D01*
X103955826Y-158917438D02*
X104003445Y-158965057D01*
X104003445Y-158965057D02*
X104051064Y-159060295D01*
X104051064Y-159060295D02*
X104098683Y-159250771D01*
X104098683Y-159250771D02*
X104098683Y-159488866D01*
X104098683Y-159488866D02*
X104051064Y-159679342D01*
X104051064Y-159679342D02*
X104003445Y-159774580D01*
X104003445Y-159774580D02*
X103955826Y-159822200D01*
X103955826Y-159822200D02*
X103860588Y-159869819D01*
X103860588Y-159869819D02*
X103765350Y-159869819D01*
X103765350Y-159869819D02*
X103670112Y-159822200D01*
X103670112Y-159822200D02*
X103622493Y-159774580D01*
X103622493Y-159774580D02*
X103574874Y-159679342D01*
X103574874Y-159679342D02*
X103527255Y-159488866D01*
X103527255Y-159488866D02*
X103527255Y-159250771D01*
X103527255Y-159250771D02*
X103574874Y-159060295D01*
X103574874Y-159060295D02*
X103622493Y-158965057D01*
X103622493Y-158965057D02*
X103670112Y-158917438D01*
X103670112Y-158917438D02*
X103765350Y-158869819D01*
X104955826Y-159203152D02*
X104955826Y-159869819D01*
X104717731Y-158822200D02*
X104479636Y-159536485D01*
X104479636Y-159536485D02*
X105098683Y-159536485D01*
X147312969Y-132119819D02*
X146836779Y-132119819D01*
X146836779Y-132119819D02*
X146789160Y-132596009D01*
X146789160Y-132596009D02*
X146836779Y-132548390D01*
X146836779Y-132548390D02*
X146932017Y-132500771D01*
X146932017Y-132500771D02*
X147170112Y-132500771D01*
X147170112Y-132500771D02*
X147265350Y-132548390D01*
X147265350Y-132548390D02*
X147312969Y-132596009D01*
X147312969Y-132596009D02*
X147360588Y-132691247D01*
X147360588Y-132691247D02*
X147360588Y-132929342D01*
X147360588Y-132929342D02*
X147312969Y-133024580D01*
X147312969Y-133024580D02*
X147265350Y-133072200D01*
X147265350Y-133072200D02*
X147170112Y-133119819D01*
X147170112Y-133119819D02*
X146932017Y-133119819D01*
X146932017Y-133119819D02*
X146836779Y-133072200D01*
X146836779Y-133072200D02*
X146789160Y-133024580D01*
X147646303Y-132119819D02*
X147979636Y-133119819D01*
X147979636Y-133119819D02*
X148312969Y-132119819D01*
X132501064Y-98115723D02*
X132882017Y-98115723D01*
X132424874Y-98344295D02*
X132691541Y-97544295D01*
X132691541Y-97544295D02*
X132958207Y-98344295D01*
X133377255Y-97544295D02*
X133453445Y-97544295D01*
X133453445Y-97544295D02*
X133529636Y-97582390D01*
X133529636Y-97582390D02*
X133567731Y-97620485D01*
X133567731Y-97620485D02*
X133605826Y-97696676D01*
X133605826Y-97696676D02*
X133643921Y-97849057D01*
X133643921Y-97849057D02*
X133643921Y-98039533D01*
X133643921Y-98039533D02*
X133605826Y-98191914D01*
X133605826Y-98191914D02*
X133567731Y-98268104D01*
X133567731Y-98268104D02*
X133529636Y-98306200D01*
X133529636Y-98306200D02*
X133453445Y-98344295D01*
X133453445Y-98344295D02*
X133377255Y-98344295D01*
X133377255Y-98344295D02*
X133301064Y-98306200D01*
X133301064Y-98306200D02*
X133262969Y-98268104D01*
X133262969Y-98268104D02*
X133224874Y-98191914D01*
X133224874Y-98191914D02*
X133186778Y-98039533D01*
X133186778Y-98039533D02*
X133186778Y-97849057D01*
X133186778Y-97849057D02*
X133224874Y-97696676D01*
X133224874Y-97696676D02*
X133262969Y-97620485D01*
X133262969Y-97620485D02*
X133301064Y-97582390D01*
X133301064Y-97582390D02*
X133377255Y-97544295D01*
X122264160Y-118069295D02*
X122264160Y-117269295D01*
X122264160Y-117269295D02*
X122454636Y-117269295D01*
X122454636Y-117269295D02*
X122568922Y-117307390D01*
X122568922Y-117307390D02*
X122645112Y-117383580D01*
X122645112Y-117383580D02*
X122683207Y-117459771D01*
X122683207Y-117459771D02*
X122721303Y-117612152D01*
X122721303Y-117612152D02*
X122721303Y-117726438D01*
X122721303Y-117726438D02*
X122683207Y-117878819D01*
X122683207Y-117878819D02*
X122645112Y-117955009D01*
X122645112Y-117955009D02*
X122568922Y-118031200D01*
X122568922Y-118031200D02*
X122454636Y-118069295D01*
X122454636Y-118069295D02*
X122264160Y-118069295D01*
X123445112Y-117269295D02*
X123064160Y-117269295D01*
X123064160Y-117269295D02*
X123026064Y-117650247D01*
X123026064Y-117650247D02*
X123064160Y-117612152D01*
X123064160Y-117612152D02*
X123140350Y-117574057D01*
X123140350Y-117574057D02*
X123330826Y-117574057D01*
X123330826Y-117574057D02*
X123407017Y-117612152D01*
X123407017Y-117612152D02*
X123445112Y-117650247D01*
X123445112Y-117650247D02*
X123483207Y-117726438D01*
X123483207Y-117726438D02*
X123483207Y-117916914D01*
X123483207Y-117916914D02*
X123445112Y-117993104D01*
X123445112Y-117993104D02*
X123407017Y-118031200D01*
X123407017Y-118031200D02*
X123330826Y-118069295D01*
X123330826Y-118069295D02*
X123140350Y-118069295D01*
X123140350Y-118069295D02*
X123064160Y-118031200D01*
X123064160Y-118031200D02*
X123026064Y-117993104D01*
X148336779Y-152869819D02*
X148336779Y-151869819D01*
X148336779Y-151869819D02*
X148670112Y-152584104D01*
X148670112Y-152584104D02*
X149003445Y-151869819D01*
X149003445Y-151869819D02*
X149003445Y-152869819D01*
X150146302Y-152965057D02*
X150051064Y-152917438D01*
X150051064Y-152917438D02*
X149955826Y-152822200D01*
X149955826Y-152822200D02*
X149812969Y-152679342D01*
X149812969Y-152679342D02*
X149717731Y-152631723D01*
X149717731Y-152631723D02*
X149622493Y-152631723D01*
X149670112Y-152869819D02*
X149574874Y-152822200D01*
X149574874Y-152822200D02*
X149479636Y-152726961D01*
X149479636Y-152726961D02*
X149432017Y-152536485D01*
X149432017Y-152536485D02*
X149432017Y-152203152D01*
X149432017Y-152203152D02*
X149479636Y-152012676D01*
X149479636Y-152012676D02*
X149574874Y-151917438D01*
X149574874Y-151917438D02*
X149670112Y-151869819D01*
X149670112Y-151869819D02*
X149860588Y-151869819D01*
X149860588Y-151869819D02*
X149955826Y-151917438D01*
X149955826Y-151917438D02*
X150051064Y-152012676D01*
X150051064Y-152012676D02*
X150098683Y-152203152D01*
X150098683Y-152203152D02*
X150098683Y-152536485D01*
X150098683Y-152536485D02*
X150051064Y-152726961D01*
X150051064Y-152726961D02*
X149955826Y-152822200D01*
X149955826Y-152822200D02*
X149860588Y-152869819D01*
X149860588Y-152869819D02*
X149670112Y-152869819D01*
X151812969Y-152869819D02*
X151241541Y-152869819D01*
X151527255Y-152869819D02*
X151527255Y-151869819D01*
X151527255Y-151869819D02*
X151432017Y-152012676D01*
X151432017Y-152012676D02*
X151336779Y-152107914D01*
X151336779Y-152107914D02*
X151241541Y-152155533D01*
X152146303Y-151869819D02*
X152765350Y-151869819D01*
X152765350Y-151869819D02*
X152432017Y-152250771D01*
X152432017Y-152250771D02*
X152574874Y-152250771D01*
X152574874Y-152250771D02*
X152670112Y-152298390D01*
X152670112Y-152298390D02*
X152717731Y-152346009D01*
X152717731Y-152346009D02*
X152765350Y-152441247D01*
X152765350Y-152441247D02*
X152765350Y-152679342D01*
X152765350Y-152679342D02*
X152717731Y-152774580D01*
X152717731Y-152774580D02*
X152670112Y-152822200D01*
X152670112Y-152822200D02*
X152574874Y-152869819D01*
X152574874Y-152869819D02*
X152289160Y-152869819D01*
X152289160Y-152869819D02*
X152193922Y-152822200D01*
X152193922Y-152822200D02*
X152146303Y-152774580D01*
X153670112Y-151869819D02*
X153193922Y-151869819D01*
X153193922Y-151869819D02*
X153146303Y-152346009D01*
X153146303Y-152346009D02*
X153193922Y-152298390D01*
X153193922Y-152298390D02*
X153289160Y-152250771D01*
X153289160Y-152250771D02*
X153527255Y-152250771D01*
X153527255Y-152250771D02*
X153622493Y-152298390D01*
X153622493Y-152298390D02*
X153670112Y-152346009D01*
X153670112Y-152346009D02*
X153717731Y-152441247D01*
X153717731Y-152441247D02*
X153717731Y-152679342D01*
X153717731Y-152679342D02*
X153670112Y-152774580D01*
X153670112Y-152774580D02*
X153622493Y-152822200D01*
X153622493Y-152822200D02*
X153527255Y-152869819D01*
X153527255Y-152869819D02*
X153289160Y-152869819D01*
X153289160Y-152869819D02*
X153193922Y-152822200D01*
X153193922Y-152822200D02*
X153146303Y-152774580D01*
D12*
%TO.C,SW2*%
X83834600Y-103571000D02*
X83834600Y-104871000D01*
X82534600Y-103571000D02*
X83834600Y-103571000D01*
X76934600Y-103871000D02*
X82134600Y-103871000D01*
X82884600Y-105921000D02*
X82884600Y-115821000D01*
X76184600Y-115821000D02*
X76184600Y-105921000D01*
X82134600Y-117871000D02*
X76934600Y-117871000D01*
%TO.C,J1*%
X149670000Y-145270000D02*
X149670000Y-150410000D01*
X149670000Y-145270000D02*
X152330000Y-145270000D01*
X149670000Y-150410000D02*
X152330000Y-150410000D01*
X151000000Y-142670000D02*
X152330000Y-142670000D01*
X152330000Y-142670000D02*
X152330000Y-144000000D01*
X152330000Y-145270000D02*
X152330000Y-150410000D01*
%TO.C,A1*%
X101260000Y-116760000D02*
X103930000Y-116760000D01*
X106470000Y-116760000D02*
X144700000Y-116760000D01*
X144700000Y-116760000D02*
X144700000Y-111680000D01*
X103930000Y-114090000D02*
X103930000Y-116760000D01*
X106470000Y-114090000D02*
X106470000Y-116760000D01*
X106470000Y-114090000D02*
X103930000Y-114090000D01*
X106470000Y-114090000D02*
X142030000Y-114090000D01*
X142030000Y-114090000D02*
X142030000Y-116760000D01*
X136820000Y-111680000D02*
X136820000Y-103800000D01*
X147240000Y-111680000D02*
X136820000Y-111680000D01*
X136820000Y-103800000D02*
X147240000Y-103800000D01*
X147240000Y-103800000D02*
X147240000Y-111680000D01*
X103930000Y-101390000D02*
X142030000Y-101390000D01*
X103930000Y-101390000D02*
X103930000Y-98720000D01*
X142030000Y-101390000D02*
X142030000Y-98720000D01*
X101260000Y-98720000D02*
X101260000Y-116760000D01*
X144700000Y-98720000D02*
X144700000Y-103800000D01*
X144700000Y-98720000D02*
X101260000Y-98720000D01*
D13*
%TO.C,U1*%
X90730000Y-162770000D02*
X135730000Y-162770000D01*
X90730000Y-163970000D02*
X90730000Y-162770000D01*
X91730000Y-163970000D02*
X90730000Y-163970000D01*
X91730000Y-163970000D02*
X91730000Y-177770000D01*
X91730000Y-177770000D02*
X107730000Y-177770000D01*
X107730000Y-163970000D02*
X91730000Y-163970000D01*
X107730000Y-163970000D02*
X107730000Y-177770000D01*
X118730000Y-163970000D02*
X107730000Y-163970000D01*
X118730000Y-163970000D02*
X118730000Y-177770000D01*
X118730000Y-177770000D02*
X134730000Y-177770000D01*
X134730000Y-163970000D02*
X118730000Y-163970000D01*
X134730000Y-163970000D02*
X134730000Y-177770000D01*
X135730000Y-162770000D02*
X135730000Y-163970000D01*
X135730000Y-163970000D02*
X134730000Y-163970000D01*
%TO.C,BT4*%
X122835000Y-97015000D02*
X122835000Y-95515000D01*
X135535000Y-97015000D02*
X135535000Y-95515000D01*
X123585000Y-96265000D02*
X122085000Y-96265000D01*
X113875000Y-94275000D02*
X113875000Y-36275000D01*
X144375000Y-94275000D02*
X113875000Y-94275000D01*
X113875000Y-36275000D02*
X144375000Y-36275000D01*
X144375000Y-36275000D02*
X144375000Y-94275000D01*
%TO.C,BT1*%
X87460000Y-96740000D02*
X87460000Y-95240000D01*
X100160000Y-96740000D02*
X100160000Y-95240000D01*
X88210000Y-95990000D02*
X86710000Y-95990000D01*
X78500000Y-94000000D02*
X78500000Y-36000000D01*
X109000000Y-94000000D02*
X78500000Y-94000000D01*
X78500000Y-36000000D02*
X109000000Y-36000000D01*
X109000000Y-36000000D02*
X109000000Y-94000000D01*
%TO.C,BT5*%
X81450000Y-132720000D02*
X82950000Y-132720000D01*
X81450000Y-145420000D02*
X82950000Y-145420000D01*
X82200000Y-133470000D02*
X82200000Y-131970000D01*
X84190000Y-123760000D02*
X142190000Y-123760000D01*
X84190000Y-154260000D02*
X84190000Y-123760000D01*
X142190000Y-123760000D02*
X142190000Y-154260000D01*
X142190000Y-154260000D02*
X84190000Y-154260000D01*
D12*
%TO.C,J3*%
X149670000Y-126270000D02*
X149670000Y-133950000D01*
X149670000Y-126270000D02*
X152330000Y-126270000D01*
X149670000Y-133950000D02*
X152330000Y-133950000D01*
X151000000Y-123670000D02*
X152330000Y-123670000D01*
X152330000Y-123670000D02*
X152330000Y-125000000D01*
X152330000Y-126270000D02*
X152330000Y-133950000D01*
%TD*%
M02*
