%TF.GenerationSoftware,KiCad,Pcbnew,7.0.10*%
%TF.CreationDate,2024-05-29T17:31:35+08:00*%
%TF.ProjectId,toilet_monitoring_unit,746f696c-6574-45f6-9d6f-6e69746f7269,rev?*%
%TF.SameCoordinates,Original*%
%TF.FileFunction,Copper,L2,Bot*%
%TF.FilePolarity,Positive*%
%FSLAX46Y46*%
G04 Gerber Fmt 4.6, Leading zero omitted, Abs format (unit mm)*
G04 Created by KiCad (PCBNEW 7.0.10) date 2024-05-29 17:31:35*
%MOMM*%
%LPD*%
G01*
G04 APERTURE LIST*
%TA.AperFunction,ComponentPad*%
%ADD10C,2.000000*%
%TD*%
%TA.AperFunction,ComponentPad*%
%ADD11C,1.700000*%
%TD*%
%TA.AperFunction,ComponentPad*%
%ADD12R,1.700000X1.700000*%
%TD*%
%TA.AperFunction,ComponentPad*%
%ADD13O,1.700000X1.700000*%
%TD*%
%TA.AperFunction,ComponentPad*%
%ADD14R,1.600000X1.600000*%
%TD*%
%TA.AperFunction,ComponentPad*%
%ADD15O,1.600000X1.600000*%
%TD*%
%TA.AperFunction,ComponentPad*%
%ADD16C,1.530000*%
%TD*%
%TA.AperFunction,ComponentPad*%
%ADD17C,1.755000*%
%TD*%
%TA.AperFunction,Conductor*%
%ADD18C,0.400000*%
%TD*%
G04 APERTURE END LIST*
D10*
%TO.P,SW2,*%
%TO.N,*%
X82534600Y-104871000D03*
X76534600Y-104871000D03*
X82534600Y-116871000D03*
X76534600Y-116871000D03*
D11*
%TO.P,SW2,1,A*%
%TO.N,Net-(SW2-A)*%
X80784600Y-106871000D03*
%TO.P,SW2,2,B*%
%TO.N,Net-(A1-VIN)*%
X80784600Y-110871000D03*
%TO.P,SW2,3*%
%TO.N,N/C*%
X80784600Y-114871000D03*
%TD*%
D12*
%TO.P,J1,1,Pin_1*%
%TO.N,/A0*%
X151000000Y-144000000D03*
D13*
%TO.P,J1,2,Pin_2*%
%TO.N,GND*%
X151000000Y-146540000D03*
%TO.P,J1,3,Pin_3*%
%TO.N,/5V*%
X151000000Y-149080000D03*
%TD*%
D14*
%TO.P,A1,1,TX1*%
%TO.N,unconnected-(A1-TX1-Pad1)*%
X105200000Y-115360000D03*
D15*
%TO.P,A1,2,RX1*%
%TO.N,unconnected-(A1-RX1-Pad2)*%
X107740000Y-115360000D03*
%TO.P,A1,3,~{RESET}*%
%TO.N,unconnected-(A1-~{RESET}-Pad3)*%
X110280000Y-115360000D03*
%TO.P,A1,4,GND*%
%TO.N,GND*%
X112820000Y-115360000D03*
%TO.P,A1,5,D2*%
%TO.N,unconnected-(A1-D2-Pad5)*%
X115360000Y-115360000D03*
%TO.P,A1,6,D3*%
%TO.N,/D3*%
X117900000Y-115360000D03*
%TO.P,A1,7,D4*%
%TO.N,/D4*%
X120440000Y-115360000D03*
%TO.P,A1,8,D5*%
%TO.N,/D5*%
X122980000Y-115360000D03*
%TO.P,A1,9,D6*%
%TO.N,/D6*%
X125520000Y-115360000D03*
%TO.P,A1,10,D7*%
%TO.N,unconnected-(A1-D7-Pad10)*%
X128060000Y-115360000D03*
%TO.P,A1,11,D8*%
%TO.N,unconnected-(A1-D8-Pad11)*%
X130600000Y-115360000D03*
%TO.P,A1,12,D9*%
%TO.N,unconnected-(A1-D9-Pad12)*%
X133140000Y-115360000D03*
%TO.P,A1,13,D10*%
%TO.N,unconnected-(A1-D10-Pad13)*%
X135680000Y-115360000D03*
%TO.P,A1,14,MOSI*%
%TO.N,unconnected-(A1-MOSI-Pad14)*%
X138220000Y-115360000D03*
%TO.P,A1,15,MISO*%
%TO.N,unconnected-(A1-MISO-Pad15)*%
X140760000Y-115360000D03*
%TO.P,A1,16,SCK*%
%TO.N,unconnected-(A1-SCK-Pad16)*%
X140760000Y-100120000D03*
%TO.P,A1,17,3V3*%
%TO.N,unconnected-(A1-3V3-Pad17)*%
X138220000Y-100120000D03*
%TO.P,A1,18,AREF*%
%TO.N,unconnected-(A1-AREF-Pad18)*%
X135680000Y-100120000D03*
%TO.P,A1,19,A0*%
%TO.N,/A0*%
X133140000Y-100120000D03*
%TO.P,A1,20,A1*%
%TO.N,unconnected-(A1-A1-Pad20)*%
X130600000Y-100120000D03*
%TO.P,A1,21,A2*%
%TO.N,unconnected-(A1-A2-Pad21)*%
X128060000Y-100120000D03*
%TO.P,A1,22,A3*%
%TO.N,unconnected-(A1-A3-Pad22)*%
X125520000Y-100120000D03*
%TO.P,A1,23,SDA/A4*%
%TO.N,unconnected-(A1-SDA{slash}A4-Pad23)*%
X122980000Y-100120000D03*
%TO.P,A1,24,SCL/A5*%
%TO.N,unconnected-(A1-SCL{slash}A5-Pad24)*%
X120440000Y-100120000D03*
%TO.P,A1,25,A6*%
%TO.N,unconnected-(A1-A6-Pad25)*%
X117900000Y-100120000D03*
%TO.P,A1,26,A7*%
%TO.N,unconnected-(A1-A7-Pad26)*%
X115360000Y-100120000D03*
%TO.P,A1,27,+5V*%
%TO.N,/5V*%
X112820000Y-100120000D03*
%TO.P,A1,28,~{RESET}*%
%TO.N,unconnected-(A1-~{RESET}-Pad28)*%
X110280000Y-100120000D03*
%TO.P,A1,29,GND*%
%TO.N,GND*%
X107740000Y-100120000D03*
%TO.P,A1,30,VIN*%
%TO.N,Net-(A1-VIN)*%
X105200000Y-100120000D03*
%TD*%
D16*
%TO.P,U1,1,VCC*%
%TO.N,/5V*%
X109420000Y-158500000D03*
%TO.P,U1,2,TRIG*%
%TO.N,/D4*%
X111960000Y-158500000D03*
%TO.P,U1,3,ECHO*%
%TO.N,/D3*%
X114500000Y-158500000D03*
%TO.P,U1,4,GND*%
%TO.N,GND*%
X117040000Y-158500000D03*
%TD*%
D17*
%TO.P,BT4,+*%
%TO.N,Net-(BT1-Pad-)*%
X122485000Y-91435000D03*
%TO.P,BT4,-*%
%TO.N,Net-(BT4-Pad-)*%
X136075000Y-91435000D03*
%TD*%
%TO.P,BT1,+*%
%TO.N,Net-(SW2-A)*%
X87110000Y-91160000D03*
%TO.P,BT1,-*%
%TO.N,Net-(BT1-Pad-)*%
X100700000Y-91160000D03*
%TD*%
%TO.P,BT5,+*%
%TO.N,Net-(BT4-Pad-)*%
X87030000Y-132370000D03*
%TO.P,BT5,-*%
%TO.N,GND*%
X87030000Y-145960000D03*
%TD*%
D12*
%TO.P,J3,1,Pin_1*%
%TO.N,/D6*%
X151000000Y-125000000D03*
D13*
%TO.P,J3,2,Pin_2*%
%TO.N,/D5*%
X151000000Y-127540000D03*
%TO.P,J3,3,Pin_3*%
%TO.N,GND*%
X151000000Y-130080000D03*
%TO.P,J3,4,Pin_4*%
%TO.N,/5V*%
X151000000Y-132620000D03*
%TD*%
D18*
%TO.N,GND*%
X145460000Y-146540000D02*
X145000000Y-147000000D01*
X87030000Y-145960000D02*
X85040000Y-145960000D01*
X107740000Y-104260000D02*
X107000000Y-105000000D01*
X147080000Y-130080000D02*
X147000000Y-130000000D01*
X117040000Y-158250000D02*
X118290000Y-157000000D01*
X118290000Y-157000000D02*
X124000000Y-157000000D01*
X151000000Y-130080000D02*
X147080000Y-130080000D01*
X151000000Y-146540000D02*
X145460000Y-146540000D01*
X107740000Y-100120000D02*
X107740000Y-104260000D01*
X85040000Y-145960000D02*
X81000000Y-150000000D01*
%TD*%
%TA.AperFunction,Conductor*%
%TO.N,GND*%
G36*
X146417539Y-34770185D02*
G01*
X146463294Y-34822989D01*
X146474500Y-34874500D01*
X146474500Y-117321499D01*
X146474341Y-117327779D01*
X146470631Y-117400935D01*
X146470631Y-117400936D01*
X146481719Y-117473325D01*
X146482513Y-117479553D01*
X146489925Y-117552437D01*
X146489926Y-117552440D01*
X146494749Y-117567814D01*
X146499003Y-117586147D01*
X146501442Y-117602064D01*
X146501443Y-117602068D01*
X146526882Y-117670760D01*
X146528911Y-117676696D01*
X146550841Y-117746588D01*
X146550842Y-117746589D01*
X146550843Y-117746592D01*
X146558657Y-117760670D01*
X146566517Y-117777777D01*
X146572111Y-117792881D01*
X146572113Y-117792884D01*
X146572114Y-117792887D01*
X146588198Y-117818692D01*
X146610864Y-117855057D01*
X146614050Y-117860469D01*
X146649592Y-117924503D01*
X146649593Y-117924504D01*
X146660078Y-117936718D01*
X146671222Y-117951894D01*
X146679745Y-117965567D01*
X146679746Y-117965568D01*
X146679748Y-117965571D01*
X146730246Y-118018695D01*
X146734421Y-118023317D01*
X146749279Y-118040625D01*
X146782132Y-118078894D01*
X146782133Y-118078895D01*
X146794869Y-118088753D01*
X146808844Y-118101379D01*
X146819940Y-118113052D01*
X146880051Y-118154891D01*
X146885115Y-118158609D01*
X146943042Y-118203448D01*
X146957515Y-118210547D01*
X146973726Y-118220090D01*
X146986951Y-118229295D01*
X147054264Y-118258181D01*
X147059954Y-118260795D01*
X147084785Y-118272976D01*
X147125724Y-118293058D01*
X147125726Y-118293058D01*
X147125729Y-118293060D01*
X147141316Y-118297095D01*
X147159128Y-118303182D01*
X147173942Y-118309540D01*
X147245700Y-118324285D01*
X147251779Y-118325695D01*
X147322711Y-118344062D01*
X147322715Y-118344063D01*
X147338807Y-118344879D01*
X147357480Y-118347257D01*
X147366413Y-118349093D01*
X147373258Y-118350500D01*
X147373259Y-118350500D01*
X147446500Y-118350500D01*
X147452778Y-118350658D01*
X147525936Y-118354369D01*
X147541857Y-118351930D01*
X147560633Y-118350500D01*
X154875500Y-118350500D01*
X154942539Y-118370185D01*
X154988294Y-118422989D01*
X154999500Y-118474500D01*
X154999500Y-161375500D01*
X154979815Y-161442539D01*
X154927011Y-161488294D01*
X154875500Y-161499500D01*
X75599500Y-161499500D01*
X75532461Y-161479815D01*
X75486706Y-161427011D01*
X75475500Y-161375500D01*
X75475500Y-158500001D01*
X108149666Y-158500001D01*
X108168964Y-158720585D01*
X108168965Y-158720592D01*
X108226275Y-158934475D01*
X108226279Y-158934486D01*
X108319740Y-159134915D01*
X108319858Y-159135167D01*
X108446868Y-159316555D01*
X108603445Y-159473132D01*
X108784833Y-159600142D01*
X108905572Y-159656443D01*
X108985513Y-159693720D01*
X108985515Y-159693720D01*
X108985520Y-159693723D01*
X109199409Y-159751035D01*
X109356974Y-159764820D01*
X109419998Y-159770334D01*
X109420000Y-159770334D01*
X109420002Y-159770334D01*
X109475147Y-159765509D01*
X109640591Y-159751035D01*
X109854480Y-159693723D01*
X110055167Y-159600142D01*
X110236555Y-159473132D01*
X110393132Y-159316555D01*
X110520142Y-159135167D01*
X110577618Y-159011907D01*
X110623790Y-158959468D01*
X110690983Y-158940316D01*
X110757864Y-158960531D01*
X110802381Y-159011907D01*
X110859858Y-159135167D01*
X110986868Y-159316555D01*
X111143445Y-159473132D01*
X111324833Y-159600142D01*
X111445572Y-159656443D01*
X111525513Y-159693720D01*
X111525515Y-159693720D01*
X111525520Y-159693723D01*
X111739409Y-159751035D01*
X111896974Y-159764820D01*
X111959998Y-159770334D01*
X111960000Y-159770334D01*
X111960002Y-159770334D01*
X112015147Y-159765509D01*
X112180591Y-159751035D01*
X112394480Y-159693723D01*
X112595167Y-159600142D01*
X112776555Y-159473132D01*
X112933132Y-159316555D01*
X113060142Y-159135167D01*
X113117618Y-159011907D01*
X113163790Y-158959468D01*
X113230983Y-158940316D01*
X113297864Y-158960531D01*
X113342381Y-159011907D01*
X113399858Y-159135167D01*
X113526868Y-159316555D01*
X113683445Y-159473132D01*
X113864833Y-159600142D01*
X113985572Y-159656443D01*
X114065513Y-159693720D01*
X114065515Y-159693720D01*
X114065520Y-159693723D01*
X114279409Y-159751035D01*
X114436974Y-159764820D01*
X114499998Y-159770334D01*
X114500000Y-159770334D01*
X114500002Y-159770334D01*
X114555147Y-159765509D01*
X114720591Y-159751035D01*
X114934480Y-159693723D01*
X115135167Y-159600142D01*
X115316555Y-159473132D01*
X115473132Y-159316555D01*
X115600142Y-159135167D01*
X115657895Y-159011312D01*
X115704064Y-158958878D01*
X115771258Y-158939725D01*
X115838139Y-158959940D01*
X115882657Y-159011316D01*
X115940295Y-159134919D01*
X115986103Y-159200341D01*
X115986105Y-159200342D01*
X116548866Y-158637580D01*
X116571318Y-158714040D01*
X116650605Y-158837413D01*
X116761438Y-158933451D01*
X116894839Y-158994373D01*
X116898633Y-158994918D01*
X116339656Y-159553894D01*
X116405083Y-159599706D01*
X116405085Y-159599707D01*
X116605690Y-159693250D01*
X116605699Y-159693254D01*
X116819490Y-159750538D01*
X116819500Y-159750540D01*
X117039999Y-159769832D01*
X117040001Y-159769832D01*
X117260499Y-159750540D01*
X117260509Y-159750538D01*
X117474300Y-159693254D01*
X117474309Y-159693250D01*
X117674915Y-159599706D01*
X117740342Y-159553894D01*
X117181366Y-158994918D01*
X117185161Y-158994373D01*
X117318562Y-158933451D01*
X117429395Y-158837413D01*
X117508682Y-158714040D01*
X117531133Y-158637580D01*
X118093894Y-159200342D01*
X118139706Y-159134915D01*
X118233250Y-158934309D01*
X118233254Y-158934300D01*
X118290538Y-158720509D01*
X118290540Y-158720499D01*
X118309832Y-158500000D01*
X118309832Y-158499999D01*
X118290540Y-158279500D01*
X118290538Y-158279490D01*
X118233254Y-158065699D01*
X118233250Y-158065690D01*
X118139707Y-157865085D01*
X118139706Y-157865083D01*
X118093894Y-157799657D01*
X118093894Y-157799656D01*
X117531132Y-158362418D01*
X117508682Y-158285960D01*
X117429395Y-158162587D01*
X117318562Y-158066549D01*
X117185161Y-158005627D01*
X117181366Y-158005081D01*
X117740342Y-157446105D01*
X117740341Y-157446103D01*
X117674919Y-157400295D01*
X117474309Y-157306749D01*
X117474300Y-157306745D01*
X117260509Y-157249461D01*
X117260499Y-157249459D01*
X117040001Y-157230168D01*
X117039999Y-157230168D01*
X116819500Y-157249459D01*
X116819490Y-157249461D01*
X116605699Y-157306745D01*
X116605690Y-157306749D01*
X116405084Y-157400293D01*
X116339657Y-157446104D01*
X116898634Y-158005081D01*
X116894839Y-158005627D01*
X116761438Y-158066549D01*
X116650605Y-158162587D01*
X116571318Y-158285960D01*
X116548866Y-158362419D01*
X115986104Y-157799657D01*
X115940293Y-157865084D01*
X115882657Y-157988683D01*
X115836484Y-158041122D01*
X115769290Y-158060274D01*
X115702409Y-158040058D01*
X115657893Y-157988682D01*
X115600142Y-157864833D01*
X115473132Y-157683445D01*
X115316555Y-157526868D01*
X115135167Y-157399858D01*
X115135163Y-157399856D01*
X114934486Y-157306279D01*
X114934475Y-157306275D01*
X114720592Y-157248965D01*
X114720585Y-157248964D01*
X114500002Y-157229666D01*
X114499998Y-157229666D01*
X114279414Y-157248964D01*
X114279407Y-157248965D01*
X114065524Y-157306275D01*
X114065513Y-157306279D01*
X113864836Y-157399856D01*
X113864834Y-157399857D01*
X113683444Y-157526868D01*
X113526868Y-157683444D01*
X113399857Y-157864834D01*
X113399856Y-157864836D01*
X113342382Y-157988091D01*
X113296210Y-158040531D01*
X113229017Y-158059683D01*
X113162135Y-158039467D01*
X113117618Y-157988091D01*
X113089050Y-157926828D01*
X113060142Y-157864833D01*
X112933132Y-157683445D01*
X112776555Y-157526868D01*
X112595167Y-157399858D01*
X112595163Y-157399856D01*
X112394486Y-157306279D01*
X112394475Y-157306275D01*
X112180592Y-157248965D01*
X112180585Y-157248964D01*
X111960002Y-157229666D01*
X111959998Y-157229666D01*
X111739414Y-157248964D01*
X111739407Y-157248965D01*
X111525524Y-157306275D01*
X111525513Y-157306279D01*
X111324836Y-157399856D01*
X111324834Y-157399857D01*
X111143444Y-157526868D01*
X110986868Y-157683444D01*
X110859857Y-157864834D01*
X110859856Y-157864836D01*
X110802382Y-157988091D01*
X110756210Y-158040531D01*
X110689017Y-158059683D01*
X110622135Y-158039467D01*
X110577618Y-157988091D01*
X110549050Y-157926828D01*
X110520142Y-157864833D01*
X110393132Y-157683445D01*
X110236555Y-157526868D01*
X110055167Y-157399858D01*
X110055163Y-157399856D01*
X109854486Y-157306279D01*
X109854475Y-157306275D01*
X109640592Y-157248965D01*
X109640585Y-157248964D01*
X109420002Y-157229666D01*
X109419998Y-157229666D01*
X109199414Y-157248964D01*
X109199407Y-157248965D01*
X108985524Y-157306275D01*
X108985513Y-157306279D01*
X108784836Y-157399856D01*
X108784834Y-157399857D01*
X108603444Y-157526868D01*
X108446868Y-157683444D01*
X108319857Y-157864834D01*
X108319856Y-157864836D01*
X108226279Y-158065513D01*
X108226275Y-158065524D01*
X108168965Y-158279407D01*
X108168964Y-158279414D01*
X108149666Y-158499998D01*
X108149666Y-158500001D01*
X75475500Y-158500001D01*
X75475500Y-149080000D01*
X149644341Y-149080000D01*
X149664936Y-149315403D01*
X149664938Y-149315413D01*
X149726094Y-149543655D01*
X149726096Y-149543659D01*
X149726097Y-149543663D01*
X149825965Y-149757830D01*
X149825967Y-149757834D01*
X149934281Y-149912521D01*
X149961505Y-149951401D01*
X150128599Y-150118495D01*
X150225384Y-150186265D01*
X150322165Y-150254032D01*
X150322167Y-150254033D01*
X150322170Y-150254035D01*
X150536337Y-150353903D01*
X150764592Y-150415063D01*
X150952918Y-150431539D01*
X150999999Y-150435659D01*
X151000000Y-150435659D01*
X151000001Y-150435659D01*
X151039234Y-150432226D01*
X151235408Y-150415063D01*
X151463663Y-150353903D01*
X151677830Y-150254035D01*
X151871401Y-150118495D01*
X152038495Y-149951401D01*
X152174035Y-149757830D01*
X152273903Y-149543663D01*
X152335063Y-149315408D01*
X152355659Y-149080000D01*
X152335063Y-148844592D01*
X152273903Y-148616337D01*
X152174035Y-148402171D01*
X152038495Y-148208599D01*
X152038494Y-148208597D01*
X151871402Y-148041506D01*
X151871401Y-148041505D01*
X151685405Y-147911269D01*
X151641781Y-147856692D01*
X151634588Y-147787193D01*
X151666110Y-147724839D01*
X151685405Y-147708119D01*
X151871082Y-147578105D01*
X152038105Y-147411082D01*
X152173600Y-147217578D01*
X152273429Y-147003492D01*
X152273432Y-147003486D01*
X152330636Y-146790000D01*
X151433686Y-146790000D01*
X151459493Y-146749844D01*
X151500000Y-146611889D01*
X151500000Y-146468111D01*
X151459493Y-146330156D01*
X151433686Y-146290000D01*
X152330636Y-146290000D01*
X152330635Y-146289999D01*
X152273432Y-146076513D01*
X152273429Y-146076507D01*
X152173600Y-145862422D01*
X152173599Y-145862420D01*
X152038113Y-145668926D01*
X152038108Y-145668920D01*
X151916053Y-145546865D01*
X151882568Y-145485542D01*
X151887552Y-145415850D01*
X151929424Y-145359917D01*
X151960400Y-145343002D01*
X152092331Y-145293796D01*
X152207546Y-145207546D01*
X152293796Y-145092331D01*
X152344091Y-144957483D01*
X152350500Y-144897873D01*
X152350499Y-143102128D01*
X152344091Y-143042517D01*
X152293796Y-142907669D01*
X152293795Y-142907668D01*
X152293793Y-142907664D01*
X152207547Y-142792455D01*
X152207544Y-142792452D01*
X152092335Y-142706206D01*
X152092328Y-142706202D01*
X151957482Y-142655908D01*
X151957483Y-142655908D01*
X151897883Y-142649501D01*
X151897881Y-142649500D01*
X151897873Y-142649500D01*
X151897864Y-142649500D01*
X150102129Y-142649500D01*
X150102123Y-142649501D01*
X150042516Y-142655908D01*
X149907671Y-142706202D01*
X149907664Y-142706206D01*
X149792455Y-142792452D01*
X149792452Y-142792455D01*
X149706206Y-142907664D01*
X149706202Y-142907671D01*
X149655908Y-143042517D01*
X149649501Y-143102116D01*
X149649501Y-143102123D01*
X149649500Y-143102135D01*
X149649500Y-144897870D01*
X149649501Y-144897876D01*
X149655908Y-144957483D01*
X149706202Y-145092328D01*
X149706206Y-145092335D01*
X149792452Y-145207544D01*
X149792455Y-145207547D01*
X149907664Y-145293793D01*
X149907671Y-145293797D01*
X149969902Y-145317007D01*
X150039598Y-145343002D01*
X150095531Y-145384873D01*
X150119949Y-145450337D01*
X150105098Y-145518610D01*
X150083947Y-145546865D01*
X149961886Y-145668926D01*
X149826400Y-145862420D01*
X149826399Y-145862422D01*
X149726570Y-146076507D01*
X149726567Y-146076513D01*
X149669364Y-146289999D01*
X149669364Y-146290000D01*
X150566314Y-146290000D01*
X150540507Y-146330156D01*
X150500000Y-146468111D01*
X150500000Y-146611889D01*
X150540507Y-146749844D01*
X150566314Y-146790000D01*
X149669364Y-146790000D01*
X149726567Y-147003486D01*
X149726570Y-147003492D01*
X149826399Y-147217578D01*
X149961894Y-147411082D01*
X150128917Y-147578105D01*
X150314595Y-147708119D01*
X150358219Y-147762696D01*
X150365412Y-147832195D01*
X150333890Y-147894549D01*
X150314595Y-147911269D01*
X150128594Y-148041508D01*
X149961505Y-148208597D01*
X149825965Y-148402169D01*
X149825964Y-148402171D01*
X149726098Y-148616335D01*
X149726094Y-148616344D01*
X149664938Y-148844586D01*
X149664936Y-148844596D01*
X149644341Y-149079999D01*
X149644341Y-149080000D01*
X75475500Y-149080000D01*
X75475500Y-145960005D01*
X85647779Y-145960005D01*
X85666629Y-146187497D01*
X85666631Y-146187509D01*
X85722671Y-146408804D01*
X85814371Y-146617860D01*
X85895068Y-146741376D01*
X86478706Y-146157739D01*
X86519003Y-146255024D01*
X86612773Y-146377227D01*
X86734976Y-146470997D01*
X86832259Y-146511293D01*
X86247233Y-147096318D01*
X86273999Y-147117149D01*
X86474766Y-147225800D01*
X86474771Y-147225802D01*
X86690682Y-147299924D01*
X86915858Y-147337500D01*
X87144142Y-147337500D01*
X87369317Y-147299924D01*
X87585228Y-147225802D01*
X87585233Y-147225800D01*
X87786004Y-147117147D01*
X87812764Y-147096319D01*
X87812764Y-147096318D01*
X87227740Y-146511293D01*
X87325024Y-146470997D01*
X87447227Y-146377227D01*
X87540997Y-146255024D01*
X87581293Y-146157740D01*
X88164930Y-146741377D01*
X88245626Y-146617865D01*
X88337328Y-146408804D01*
X88393368Y-146187509D01*
X88393370Y-146187497D01*
X88412221Y-145960005D01*
X88412221Y-145959994D01*
X88393370Y-145732502D01*
X88393368Y-145732490D01*
X88337328Y-145511195D01*
X88245628Y-145302139D01*
X88164930Y-145178621D01*
X87581292Y-145762258D01*
X87540997Y-145664976D01*
X87447227Y-145542773D01*
X87325024Y-145449003D01*
X87227740Y-145408706D01*
X87812765Y-144823681D01*
X87812765Y-144823680D01*
X87786000Y-144802850D01*
X87585233Y-144694199D01*
X87585228Y-144694197D01*
X87369317Y-144620075D01*
X87144142Y-144582500D01*
X86915858Y-144582500D01*
X86690682Y-144620075D01*
X86474771Y-144694197D01*
X86474766Y-144694199D01*
X86273993Y-144802853D01*
X86247234Y-144823679D01*
X86247234Y-144823680D01*
X86832260Y-145408706D01*
X86734976Y-145449003D01*
X86612773Y-145542773D01*
X86519003Y-145664976D01*
X86478706Y-145762260D01*
X85895067Y-145178621D01*
X85814372Y-145302136D01*
X85722671Y-145511195D01*
X85666631Y-145732490D01*
X85666629Y-145732502D01*
X85647779Y-145959994D01*
X85647779Y-145960005D01*
X75475500Y-145960005D01*
X75475500Y-138928974D01*
X111155781Y-138928974D01*
X111165691Y-139212759D01*
X111165692Y-139212764D01*
X111215004Y-139492422D01*
X111215004Y-139492423D01*
X111302757Y-139762500D01*
X111427237Y-140017721D01*
X111427240Y-140017725D01*
X111427242Y-140017729D01*
X111586037Y-140253153D01*
X111776052Y-140464186D01*
X111993588Y-140646720D01*
X112114159Y-140722061D01*
X112234403Y-140797199D01*
X112234405Y-140797199D01*
X112234410Y-140797203D01*
X112493832Y-140912705D01*
X112493840Y-140912707D01*
X112493842Y-140912708D01*
X112766800Y-140990977D01*
X112766808Y-140990979D01*
X113048011Y-141030500D01*
X113048014Y-141030500D01*
X113260890Y-141030500D01*
X113260902Y-141030500D01*
X113473281Y-141015649D01*
X113751048Y-140956608D01*
X114017895Y-140859483D01*
X114268628Y-140726166D01*
X114498367Y-140559251D01*
X114702640Y-140361987D01*
X114877471Y-140138214D01*
X115019458Y-139892286D01*
X115125836Y-139628991D01*
X115194535Y-139353454D01*
X115224218Y-139071036D01*
X115214308Y-138787237D01*
X115164996Y-138507578D01*
X115077244Y-138237504D01*
X115013941Y-138107714D01*
X114952762Y-137982278D01*
X114952760Y-137982275D01*
X114952758Y-137982271D01*
X114793963Y-137746847D01*
X114603948Y-137535814D01*
X114386412Y-137353280D01*
X114380937Y-137349859D01*
X114145596Y-137202800D01*
X114145591Y-137202798D01*
X114145590Y-137202797D01*
X113886168Y-137087295D01*
X113886157Y-137087291D01*
X113613199Y-137009022D01*
X113613191Y-137009020D01*
X113331989Y-136969500D01*
X113331986Y-136969500D01*
X113119098Y-136969500D01*
X113119085Y-136969500D01*
X112906720Y-136984350D01*
X112906709Y-136984352D01*
X112628954Y-137043391D01*
X112362109Y-137140515D01*
X112111377Y-137273830D01*
X112111370Y-137273835D01*
X111881640Y-137440743D01*
X111881633Y-137440748D01*
X111677358Y-137638015D01*
X111502529Y-137861785D01*
X111360544Y-138107709D01*
X111360539Y-138107720D01*
X111254164Y-138371007D01*
X111185465Y-138646546D01*
X111155781Y-138928974D01*
X75475500Y-138928974D01*
X75475500Y-132370005D01*
X85647277Y-132370005D01*
X85666134Y-132597580D01*
X85666136Y-132597592D01*
X85722196Y-132818967D01*
X85813930Y-133028102D01*
X85938834Y-133219283D01*
X85938837Y-133219286D01*
X86093507Y-133387302D01*
X86273722Y-133527569D01*
X86474566Y-133636261D01*
X86690562Y-133710412D01*
X86915816Y-133748000D01*
X87144184Y-133748000D01*
X87369438Y-133710412D01*
X87585434Y-133636261D01*
X87786278Y-133527569D01*
X87966493Y-133387302D01*
X88121163Y-133219286D01*
X88246069Y-133028103D01*
X88337803Y-132818969D01*
X88388189Y-132620000D01*
X149644341Y-132620000D01*
X149664936Y-132855403D01*
X149664938Y-132855413D01*
X149726094Y-133083655D01*
X149726096Y-133083659D01*
X149726097Y-133083663D01*
X149789338Y-133219283D01*
X149825965Y-133297830D01*
X149825967Y-133297834D01*
X149888614Y-133387302D01*
X149961505Y-133491401D01*
X150128599Y-133658495D01*
X150202743Y-133710411D01*
X150322165Y-133794032D01*
X150322167Y-133794033D01*
X150322170Y-133794035D01*
X150536337Y-133893903D01*
X150764592Y-133955063D01*
X150952918Y-133971539D01*
X150999999Y-133975659D01*
X151000000Y-133975659D01*
X151000001Y-133975659D01*
X151039234Y-133972226D01*
X151235408Y-133955063D01*
X151463663Y-133893903D01*
X151677830Y-133794035D01*
X151871401Y-133658495D01*
X152038495Y-133491401D01*
X152174035Y-133297830D01*
X152273903Y-133083663D01*
X152335063Y-132855408D01*
X152355659Y-132620000D01*
X152353697Y-132597580D01*
X152335063Y-132384596D01*
X152335063Y-132384592D01*
X152273903Y-132156337D01*
X152174035Y-131942171D01*
X152159234Y-131921032D01*
X152038494Y-131748597D01*
X151871402Y-131581506D01*
X151871401Y-131581505D01*
X151685405Y-131451269D01*
X151641781Y-131396692D01*
X151634588Y-131327193D01*
X151666110Y-131264839D01*
X151685405Y-131248119D01*
X151871082Y-131118105D01*
X152038105Y-130951082D01*
X152173600Y-130757578D01*
X152273429Y-130543492D01*
X152273432Y-130543486D01*
X152330636Y-130330000D01*
X151433686Y-130330000D01*
X151459493Y-130289844D01*
X151500000Y-130151889D01*
X151500000Y-130008111D01*
X151459493Y-129870156D01*
X151433686Y-129830000D01*
X152330636Y-129830000D01*
X152330635Y-129829999D01*
X152273432Y-129616513D01*
X152273429Y-129616507D01*
X152173600Y-129402422D01*
X152173599Y-129402420D01*
X152038113Y-129208926D01*
X152038108Y-129208920D01*
X151871078Y-129041890D01*
X151685405Y-128911879D01*
X151641780Y-128857302D01*
X151634588Y-128787804D01*
X151666110Y-128725449D01*
X151685406Y-128708730D01*
X151871401Y-128578495D01*
X152038495Y-128411401D01*
X152174035Y-128217830D01*
X152273903Y-128003663D01*
X152335063Y-127775408D01*
X152355659Y-127540000D01*
X152335063Y-127304592D01*
X152273903Y-127076337D01*
X152174035Y-126862171D01*
X152038495Y-126668599D01*
X151916567Y-126546671D01*
X151883084Y-126485351D01*
X151888068Y-126415659D01*
X151929939Y-126359725D01*
X151960915Y-126342810D01*
X152092331Y-126293796D01*
X152207546Y-126207546D01*
X152293796Y-126092331D01*
X152344091Y-125957483D01*
X152350500Y-125897873D01*
X152350499Y-124102128D01*
X152344091Y-124042517D01*
X152293796Y-123907669D01*
X152293795Y-123907668D01*
X152293793Y-123907664D01*
X152207547Y-123792455D01*
X152207544Y-123792452D01*
X152092335Y-123706206D01*
X152092328Y-123706202D01*
X151957482Y-123655908D01*
X151957483Y-123655908D01*
X151897883Y-123649501D01*
X151897881Y-123649500D01*
X151897873Y-123649500D01*
X151897864Y-123649500D01*
X150102129Y-123649500D01*
X150102123Y-123649501D01*
X150042516Y-123655908D01*
X149907671Y-123706202D01*
X149907664Y-123706206D01*
X149792455Y-123792452D01*
X149792452Y-123792455D01*
X149706206Y-123907664D01*
X149706202Y-123907671D01*
X149655908Y-124042517D01*
X149649501Y-124102116D01*
X149649501Y-124102123D01*
X149649500Y-124102135D01*
X149649500Y-125897870D01*
X149649501Y-125897876D01*
X149655908Y-125957483D01*
X149706202Y-126092328D01*
X149706206Y-126092335D01*
X149792452Y-126207544D01*
X149792455Y-126207547D01*
X149907664Y-126293793D01*
X149907671Y-126293797D01*
X150039081Y-126342810D01*
X150095015Y-126384681D01*
X150119432Y-126450145D01*
X150104580Y-126518418D01*
X150083430Y-126546673D01*
X149961503Y-126668600D01*
X149825965Y-126862169D01*
X149825964Y-126862171D01*
X149726098Y-127076335D01*
X149726094Y-127076344D01*
X149664938Y-127304586D01*
X149664936Y-127304596D01*
X149644341Y-127539999D01*
X149644341Y-127540000D01*
X149664936Y-127775403D01*
X149664938Y-127775413D01*
X149726094Y-128003655D01*
X149726096Y-128003659D01*
X149726097Y-128003663D01*
X149825965Y-128217830D01*
X149825967Y-128217834D01*
X149961501Y-128411395D01*
X149961506Y-128411402D01*
X150128597Y-128578493D01*
X150128603Y-128578498D01*
X150314594Y-128708730D01*
X150358219Y-128763307D01*
X150365413Y-128832805D01*
X150333890Y-128895160D01*
X150314595Y-128911880D01*
X150128922Y-129041890D01*
X150128920Y-129041891D01*
X149961891Y-129208920D01*
X149961886Y-129208926D01*
X149826400Y-129402420D01*
X149826399Y-129402422D01*
X149726570Y-129616507D01*
X149726567Y-129616513D01*
X149669364Y-129829999D01*
X149669364Y-129830000D01*
X150566314Y-129830000D01*
X150540507Y-129870156D01*
X150500000Y-130008111D01*
X150500000Y-130151889D01*
X150540507Y-130289844D01*
X150566314Y-130330000D01*
X149669364Y-130330000D01*
X149726567Y-130543486D01*
X149726570Y-130543492D01*
X149826399Y-130757578D01*
X149961894Y-130951082D01*
X150128917Y-131118105D01*
X150314595Y-131248119D01*
X150358219Y-131302696D01*
X150365412Y-131372195D01*
X150333890Y-131434549D01*
X150314595Y-131451269D01*
X150128594Y-131581508D01*
X149961505Y-131748597D01*
X149825965Y-131942169D01*
X149825964Y-131942171D01*
X149726098Y-132156335D01*
X149726094Y-132156344D01*
X149664938Y-132384586D01*
X149664936Y-132384596D01*
X149644341Y-132619999D01*
X149644341Y-132620000D01*
X88388189Y-132620000D01*
X88393864Y-132597589D01*
X88411514Y-132384592D01*
X88412723Y-132370005D01*
X88412723Y-132369994D01*
X88393865Y-132142419D01*
X88393863Y-132142407D01*
X88337803Y-131921032D01*
X88246069Y-131711897D01*
X88121165Y-131520716D01*
X88057234Y-131451269D01*
X87966493Y-131352698D01*
X87786278Y-131212431D01*
X87786276Y-131212430D01*
X87786275Y-131212429D01*
X87585435Y-131103739D01*
X87585430Y-131103737D01*
X87369440Y-131029588D01*
X87144184Y-130992000D01*
X86915816Y-130992000D01*
X86690559Y-131029588D01*
X86474569Y-131103737D01*
X86474564Y-131103739D01*
X86273724Y-131212429D01*
X86093508Y-131352697D01*
X85938834Y-131520716D01*
X85813930Y-131711897D01*
X85722196Y-131921032D01*
X85666136Y-132142407D01*
X85666134Y-132142419D01*
X85647277Y-132369994D01*
X85647277Y-132370005D01*
X75475500Y-132370005D01*
X75475500Y-118201751D01*
X75495185Y-118134712D01*
X75547989Y-118088957D01*
X75617147Y-118079013D01*
X75675659Y-118103896D01*
X75711091Y-118131474D01*
X75929790Y-118249828D01*
X76164986Y-118330571D01*
X76410265Y-118371500D01*
X76658935Y-118371500D01*
X76904214Y-118330571D01*
X77139410Y-118249828D01*
X77358109Y-118131474D01*
X77554344Y-117978738D01*
X77722764Y-117795785D01*
X77858773Y-117587607D01*
X77958663Y-117359881D01*
X78019708Y-117118821D01*
X78021439Y-117097929D01*
X78040243Y-116871005D01*
X78040243Y-116870994D01*
X78019709Y-116623187D01*
X78019707Y-116623175D01*
X77958663Y-116382118D01*
X77858773Y-116154393D01*
X77722766Y-115946217D01*
X77682758Y-115902757D01*
X77554344Y-115763262D01*
X77358109Y-115610526D01*
X77358107Y-115610525D01*
X77358106Y-115610524D01*
X77139411Y-115492172D01*
X77139402Y-115492169D01*
X76904216Y-115411429D01*
X76658935Y-115370500D01*
X76410265Y-115370500D01*
X76164983Y-115411429D01*
X75929797Y-115492169D01*
X75929788Y-115492172D01*
X75755143Y-115586686D01*
X75711091Y-115610526D01*
X75675660Y-115638102D01*
X75610668Y-115663744D01*
X75542128Y-115650177D01*
X75491803Y-115601708D01*
X75475500Y-115540248D01*
X75475500Y-114871000D01*
X79428941Y-114871000D01*
X79449536Y-115106403D01*
X79449538Y-115106413D01*
X79510694Y-115334655D01*
X79510696Y-115334659D01*
X79510697Y-115334663D01*
X79584145Y-115492172D01*
X79610565Y-115548830D01*
X79610567Y-115548834D01*
X79653764Y-115610525D01*
X79746105Y-115742401D01*
X79913199Y-115909495D01*
X79976949Y-115954133D01*
X80106765Y-116045032D01*
X80106767Y-116045033D01*
X80106770Y-116045035D01*
X80320937Y-116144903D01*
X80320943Y-116144904D01*
X80320944Y-116144905D01*
X80359094Y-116155127D01*
X80549192Y-116206063D01*
X80737518Y-116222539D01*
X80784599Y-116226659D01*
X80784600Y-116226659D01*
X80784601Y-116226659D01*
X80801463Y-116225183D01*
X80986065Y-116209032D01*
X81054562Y-116222798D01*
X81104745Y-116271413D01*
X81120679Y-116339442D01*
X81111688Y-116377100D01*
X81112200Y-116377276D01*
X81110536Y-116382120D01*
X81049492Y-116623175D01*
X81049490Y-116623187D01*
X81028957Y-116870994D01*
X81028957Y-116871005D01*
X81049490Y-117118812D01*
X81049492Y-117118824D01*
X81110536Y-117359881D01*
X81210426Y-117587606D01*
X81346433Y-117795782D01*
X81346436Y-117795785D01*
X81514856Y-117978738D01*
X81711091Y-118131474D01*
X81711093Y-118131475D01*
X81840951Y-118201751D01*
X81929790Y-118249828D01*
X82164986Y-118330571D01*
X82410265Y-118371500D01*
X82658935Y-118371500D01*
X82904214Y-118330571D01*
X83139410Y-118249828D01*
X83358109Y-118131474D01*
X83554344Y-117978738D01*
X83722764Y-117795785D01*
X83858773Y-117587607D01*
X83958663Y-117359881D01*
X84019708Y-117118821D01*
X84021439Y-117097929D01*
X84040243Y-116871005D01*
X84040243Y-116870994D01*
X84019709Y-116623187D01*
X84019707Y-116623175D01*
X83958663Y-116382118D01*
X83882230Y-116207870D01*
X103899500Y-116207870D01*
X103899501Y-116207876D01*
X103905908Y-116267483D01*
X103956202Y-116402328D01*
X103956206Y-116402335D01*
X104042452Y-116517544D01*
X104042455Y-116517547D01*
X104157664Y-116603793D01*
X104157671Y-116603797D01*
X104292517Y-116654091D01*
X104292516Y-116654091D01*
X104299444Y-116654835D01*
X104352127Y-116660500D01*
X106047872Y-116660499D01*
X106107483Y-116654091D01*
X106242331Y-116603796D01*
X106357546Y-116517546D01*
X106443796Y-116402331D01*
X106494091Y-116267483D01*
X106497862Y-116232401D01*
X106524599Y-116167855D01*
X106581990Y-116128006D01*
X106651816Y-116125511D01*
X106711905Y-116161163D01*
X106722726Y-116174536D01*
X106739956Y-116199143D01*
X106900858Y-116360045D01*
X106900861Y-116360047D01*
X107087266Y-116490568D01*
X107293504Y-116586739D01*
X107513308Y-116645635D01*
X107675230Y-116659801D01*
X107739998Y-116665468D01*
X107740000Y-116665468D01*
X107740002Y-116665468D01*
X107796807Y-116660498D01*
X107966692Y-116645635D01*
X108186496Y-116586739D01*
X108392734Y-116490568D01*
X108579139Y-116360047D01*
X108740047Y-116199139D01*
X108870568Y-116012734D01*
X108897618Y-115954724D01*
X108943790Y-115902285D01*
X109010983Y-115883133D01*
X109077865Y-115903348D01*
X109122382Y-115954725D01*
X109149429Y-116012728D01*
X109149432Y-116012734D01*
X109279954Y-116199141D01*
X109440858Y-116360045D01*
X109440861Y-116360047D01*
X109627266Y-116490568D01*
X109833504Y-116586739D01*
X110053308Y-116645635D01*
X110215230Y-116659801D01*
X110279998Y-116665468D01*
X110280000Y-116665468D01*
X110280002Y-116665468D01*
X110336807Y-116660498D01*
X110506692Y-116645635D01*
X110726496Y-116586739D01*
X110932734Y-116490568D01*
X111119139Y-116360047D01*
X111280047Y-116199139D01*
X111410568Y-116012734D01*
X111437895Y-115954129D01*
X111484064Y-115901695D01*
X111551257Y-115882542D01*
X111618139Y-115902757D01*
X111662657Y-115954133D01*
X111689865Y-116012482D01*
X111820342Y-116198820D01*
X111981179Y-116359657D01*
X112167517Y-116490134D01*
X112373673Y-116586265D01*
X112373682Y-116586269D01*
X112569999Y-116638872D01*
X112570000Y-116638871D01*
X112570000Y-115795501D01*
X112677685Y-115844680D01*
X112784237Y-115860000D01*
X112855763Y-115860000D01*
X112962315Y-115844680D01*
X113070000Y-115795501D01*
X113070000Y-116638872D01*
X113266317Y-116586269D01*
X113266326Y-116586265D01*
X113472482Y-116490134D01*
X113658820Y-116359657D01*
X113819657Y-116198820D01*
X113950132Y-116012484D01*
X113977341Y-115954134D01*
X114023513Y-115901695D01*
X114090707Y-115882542D01*
X114157588Y-115902757D01*
X114202106Y-115954133D01*
X114229431Y-116012732D01*
X114229432Y-116012734D01*
X114359954Y-116199141D01*
X114520858Y-116360045D01*
X114520861Y-116360047D01*
X114707266Y-116490568D01*
X114913504Y-116586739D01*
X115133308Y-116645635D01*
X115295230Y-116659801D01*
X115359998Y-116665468D01*
X115360000Y-116665468D01*
X115360002Y-116665468D01*
X115416807Y-116660498D01*
X115586692Y-116645635D01*
X115806496Y-116586739D01*
X116012734Y-116490568D01*
X116199139Y-116360047D01*
X116360047Y-116199139D01*
X116490568Y-116012734D01*
X116517618Y-115954724D01*
X116563790Y-115902285D01*
X116630983Y-115883133D01*
X116697865Y-115903348D01*
X116742382Y-115954725D01*
X116769429Y-116012728D01*
X116769432Y-116012734D01*
X116899954Y-116199141D01*
X117060858Y-116360045D01*
X117060861Y-116360047D01*
X117247266Y-116490568D01*
X117453504Y-116586739D01*
X117673308Y-116645635D01*
X117835230Y-116659801D01*
X117899998Y-116665468D01*
X117900000Y-116665468D01*
X117900002Y-116665468D01*
X117956807Y-116660498D01*
X118126692Y-116645635D01*
X118346496Y-116586739D01*
X118552734Y-116490568D01*
X118739139Y-116360047D01*
X118900047Y-116199139D01*
X119030568Y-116012734D01*
X119057618Y-115954724D01*
X119103790Y-115902285D01*
X119170983Y-115883133D01*
X119237865Y-115903348D01*
X119282382Y-115954725D01*
X119309429Y-116012728D01*
X119309432Y-116012734D01*
X119439954Y-116199141D01*
X119600858Y-116360045D01*
X119600861Y-116360047D01*
X119787266Y-116490568D01*
X119993504Y-116586739D01*
X120213308Y-116645635D01*
X120375230Y-116659801D01*
X120439998Y-116665468D01*
X120440000Y-116665468D01*
X120440002Y-116665468D01*
X120496807Y-116660498D01*
X120666692Y-116645635D01*
X120886496Y-116586739D01*
X121092734Y-116490568D01*
X121279139Y-116360047D01*
X121440047Y-116199139D01*
X121570568Y-116012734D01*
X121597618Y-115954724D01*
X121643790Y-115902285D01*
X121710983Y-115883133D01*
X121777865Y-115903348D01*
X121822382Y-115954725D01*
X121849429Y-116012728D01*
X121849432Y-116012734D01*
X121979954Y-116199141D01*
X122140858Y-116360045D01*
X122140861Y-116360047D01*
X122327266Y-116490568D01*
X122533504Y-116586739D01*
X122753308Y-116645635D01*
X122915230Y-116659801D01*
X122979998Y-116665468D01*
X122980000Y-116665468D01*
X122980002Y-116665468D01*
X123036807Y-116660498D01*
X123206692Y-116645635D01*
X123426496Y-116586739D01*
X123632734Y-116490568D01*
X123819139Y-116360047D01*
X123980047Y-116199139D01*
X124110568Y-116012734D01*
X124137618Y-115954724D01*
X124183790Y-115902285D01*
X124250983Y-115883133D01*
X124317865Y-115903348D01*
X124362382Y-115954725D01*
X124389429Y-116012728D01*
X124389432Y-116012734D01*
X124519954Y-116199141D01*
X124680858Y-116360045D01*
X124680861Y-116360047D01*
X124867266Y-116490568D01*
X125073504Y-116586739D01*
X125293308Y-116645635D01*
X125455230Y-116659801D01*
X125519998Y-116665468D01*
X125520000Y-116665468D01*
X125520002Y-116665468D01*
X125576807Y-116660498D01*
X125746692Y-116645635D01*
X125966496Y-116586739D01*
X126172734Y-116490568D01*
X126359139Y-116360047D01*
X126520047Y-116199139D01*
X126650568Y-116012734D01*
X126677618Y-115954724D01*
X126723790Y-115902285D01*
X126790983Y-115883133D01*
X126857865Y-115903348D01*
X126902382Y-115954725D01*
X126929429Y-116012728D01*
X126929432Y-116012734D01*
X127059954Y-116199141D01*
X127220858Y-116360045D01*
X127220861Y-116360047D01*
X127407266Y-116490568D01*
X127613504Y-116586739D01*
X127833308Y-116645635D01*
X127995230Y-116659801D01*
X128059998Y-116665468D01*
X128060000Y-116665468D01*
X128060002Y-116665468D01*
X128116807Y-116660498D01*
X128286692Y-116645635D01*
X128506496Y-116586739D01*
X128712734Y-116490568D01*
X128899139Y-116360047D01*
X129060047Y-116199139D01*
X129190568Y-116012734D01*
X129217618Y-115954724D01*
X129263790Y-115902285D01*
X129330983Y-115883133D01*
X129397865Y-115903348D01*
X129442382Y-115954725D01*
X129469429Y-116012728D01*
X129469432Y-116012734D01*
X129599954Y-116199141D01*
X129760858Y-116360045D01*
X129760861Y-116360047D01*
X129947266Y-116490568D01*
X130153504Y-116586739D01*
X130373308Y-116645635D01*
X130535230Y-116659801D01*
X130599998Y-116665468D01*
X130600000Y-116665468D01*
X130600002Y-116665468D01*
X130656807Y-116660498D01*
X130826692Y-116645635D01*
X131046496Y-116586739D01*
X131252734Y-116490568D01*
X131439139Y-116360047D01*
X131600047Y-116199139D01*
X131730568Y-116012734D01*
X131757618Y-115954724D01*
X131803790Y-115902285D01*
X131870983Y-115883133D01*
X131937865Y-115903348D01*
X131982382Y-115954725D01*
X132009429Y-116012728D01*
X132009432Y-116012734D01*
X132139954Y-116199141D01*
X132300858Y-116360045D01*
X132300861Y-116360047D01*
X132487266Y-116490568D01*
X132693504Y-116586739D01*
X132913308Y-116645635D01*
X133075230Y-116659801D01*
X133139998Y-116665468D01*
X133140000Y-116665468D01*
X133140002Y-116665468D01*
X133196807Y-116660498D01*
X133366692Y-116645635D01*
X133586496Y-116586739D01*
X133792734Y-116490568D01*
X133979139Y-116360047D01*
X134140047Y-116199139D01*
X134270568Y-116012734D01*
X134297618Y-115954724D01*
X134343790Y-115902285D01*
X134410983Y-115883133D01*
X134477865Y-115903348D01*
X134522382Y-115954725D01*
X134549429Y-116012728D01*
X134549432Y-116012734D01*
X134679954Y-116199141D01*
X134840858Y-116360045D01*
X134840861Y-116360047D01*
X135027266Y-116490568D01*
X135233504Y-116586739D01*
X135453308Y-116645635D01*
X135615230Y-116659801D01*
X135679998Y-116665468D01*
X135680000Y-116665468D01*
X135680002Y-116665468D01*
X135736807Y-116660498D01*
X135906692Y-116645635D01*
X136126496Y-116586739D01*
X136332734Y-116490568D01*
X136519139Y-116360047D01*
X136680047Y-116199139D01*
X136810568Y-116012734D01*
X136837618Y-115954724D01*
X136883790Y-115902285D01*
X136950983Y-115883133D01*
X137017865Y-115903348D01*
X137062382Y-115954725D01*
X137089429Y-116012728D01*
X137089432Y-116012734D01*
X137219954Y-116199141D01*
X137380858Y-116360045D01*
X137380861Y-116360047D01*
X137567266Y-116490568D01*
X137773504Y-116586739D01*
X137993308Y-116645635D01*
X138155230Y-116659801D01*
X138219998Y-116665468D01*
X138220000Y-116665468D01*
X138220002Y-116665468D01*
X138276807Y-116660498D01*
X138446692Y-116645635D01*
X138666496Y-116586739D01*
X138872734Y-116490568D01*
X139059139Y-116360047D01*
X139220047Y-116199139D01*
X139350568Y-116012734D01*
X139377618Y-115954724D01*
X139423790Y-115902285D01*
X139490983Y-115883133D01*
X139557865Y-115903348D01*
X139602382Y-115954725D01*
X139629429Y-116012728D01*
X139629432Y-116012734D01*
X139759954Y-116199141D01*
X139920858Y-116360045D01*
X139920861Y-116360047D01*
X140107266Y-116490568D01*
X140313504Y-116586739D01*
X140533308Y-116645635D01*
X140695230Y-116659801D01*
X140759998Y-116665468D01*
X140760000Y-116665468D01*
X140760002Y-116665468D01*
X140816807Y-116660498D01*
X140986692Y-116645635D01*
X141206496Y-116586739D01*
X141412734Y-116490568D01*
X141599139Y-116360047D01*
X141760047Y-116199139D01*
X141890568Y-116012734D01*
X141986739Y-115806496D01*
X142045635Y-115586692D01*
X142065468Y-115360000D01*
X142045635Y-115133308D01*
X141986739Y-114913504D01*
X141890568Y-114707266D01*
X141760047Y-114520861D01*
X141760045Y-114520858D01*
X141599141Y-114359954D01*
X141412734Y-114229432D01*
X141412732Y-114229431D01*
X141206497Y-114133261D01*
X141206488Y-114133258D01*
X140986697Y-114074366D01*
X140986693Y-114074365D01*
X140986692Y-114074365D01*
X140986691Y-114074364D01*
X140986686Y-114074364D01*
X140760002Y-114054532D01*
X140759998Y-114054532D01*
X140533313Y-114074364D01*
X140533302Y-114074366D01*
X140313511Y-114133258D01*
X140313502Y-114133261D01*
X140107267Y-114229431D01*
X140107265Y-114229432D01*
X139920858Y-114359954D01*
X139759954Y-114520858D01*
X139629432Y-114707265D01*
X139629431Y-114707267D01*
X139602382Y-114765275D01*
X139556209Y-114817714D01*
X139489016Y-114836866D01*
X139422135Y-114816650D01*
X139377618Y-114765275D01*
X139350686Y-114707520D01*
X139350568Y-114707266D01*
X139220047Y-114520861D01*
X139220045Y-114520858D01*
X139059141Y-114359954D01*
X138872734Y-114229432D01*
X138872732Y-114229431D01*
X138666497Y-114133261D01*
X138666488Y-114133258D01*
X138446697Y-114074366D01*
X138446693Y-114074365D01*
X138446692Y-114074365D01*
X138446691Y-114074364D01*
X138446686Y-114074364D01*
X138220002Y-114054532D01*
X138219998Y-114054532D01*
X137993313Y-114074364D01*
X137993302Y-114074366D01*
X137773511Y-114133258D01*
X137773502Y-114133261D01*
X137567267Y-114229431D01*
X137567265Y-114229432D01*
X137380858Y-114359954D01*
X137219954Y-114520858D01*
X137089432Y-114707265D01*
X137089431Y-114707267D01*
X137062382Y-114765275D01*
X137016209Y-114817714D01*
X136949016Y-114836866D01*
X136882135Y-114816650D01*
X136837618Y-114765275D01*
X136810686Y-114707520D01*
X136810568Y-114707266D01*
X136680047Y-114520861D01*
X136680045Y-114520858D01*
X136519141Y-114359954D01*
X136332734Y-114229432D01*
X136332732Y-114229431D01*
X136126497Y-114133261D01*
X136126488Y-114133258D01*
X135906697Y-114074366D01*
X135906693Y-114074365D01*
X135906692Y-114074365D01*
X135906691Y-114074364D01*
X135906686Y-114074364D01*
X135680002Y-114054532D01*
X135679998Y-114054532D01*
X135453313Y-114074364D01*
X135453302Y-114074366D01*
X135233511Y-114133258D01*
X135233502Y-114133261D01*
X135027267Y-114229431D01*
X135027265Y-114229432D01*
X134840858Y-114359954D01*
X134679954Y-114520858D01*
X134549432Y-114707265D01*
X134549431Y-114707267D01*
X134522382Y-114765275D01*
X134476209Y-114817714D01*
X134409016Y-114836866D01*
X134342135Y-114816650D01*
X134297618Y-114765275D01*
X134270686Y-114707520D01*
X134270568Y-114707266D01*
X134140047Y-114520861D01*
X134140045Y-114520858D01*
X133979141Y-114359954D01*
X133792734Y-114229432D01*
X133792732Y-114229431D01*
X133586497Y-114133261D01*
X133586488Y-114133258D01*
X133366697Y-114074366D01*
X133366693Y-114074365D01*
X133366692Y-114074365D01*
X133366691Y-114074364D01*
X133366686Y-114074364D01*
X133140002Y-114054532D01*
X133139998Y-114054532D01*
X132913313Y-114074364D01*
X132913302Y-114074366D01*
X132693511Y-114133258D01*
X132693502Y-114133261D01*
X132487267Y-114229431D01*
X132487265Y-114229432D01*
X132300858Y-114359954D01*
X132139954Y-114520858D01*
X132009432Y-114707265D01*
X132009431Y-114707267D01*
X131982382Y-114765275D01*
X131936209Y-114817714D01*
X131869016Y-114836866D01*
X131802135Y-114816650D01*
X131757618Y-114765275D01*
X131730686Y-114707520D01*
X131730568Y-114707266D01*
X131600047Y-114520861D01*
X131600045Y-114520858D01*
X131439141Y-114359954D01*
X131252734Y-114229432D01*
X131252732Y-114229431D01*
X131046497Y-114133261D01*
X131046488Y-114133258D01*
X130826697Y-114074366D01*
X130826693Y-114074365D01*
X130826692Y-114074365D01*
X130826691Y-114074364D01*
X130826686Y-114074364D01*
X130600002Y-114054532D01*
X130599998Y-114054532D01*
X130373313Y-114074364D01*
X130373302Y-114074366D01*
X130153511Y-114133258D01*
X130153502Y-114133261D01*
X129947267Y-114229431D01*
X129947265Y-114229432D01*
X129760858Y-114359954D01*
X129599954Y-114520858D01*
X129469432Y-114707265D01*
X129469431Y-114707267D01*
X129442382Y-114765275D01*
X129396209Y-114817714D01*
X129329016Y-114836866D01*
X129262135Y-114816650D01*
X129217618Y-114765275D01*
X129190686Y-114707520D01*
X129190568Y-114707266D01*
X129060047Y-114520861D01*
X129060045Y-114520858D01*
X128899141Y-114359954D01*
X128712734Y-114229432D01*
X128712732Y-114229431D01*
X128506497Y-114133261D01*
X128506488Y-114133258D01*
X128286697Y-114074366D01*
X128286693Y-114074365D01*
X128286692Y-114074365D01*
X128286691Y-114074364D01*
X128286686Y-114074364D01*
X128060002Y-114054532D01*
X128059998Y-114054532D01*
X127833313Y-114074364D01*
X127833302Y-114074366D01*
X127613511Y-114133258D01*
X127613502Y-114133261D01*
X127407267Y-114229431D01*
X127407265Y-114229432D01*
X127220858Y-114359954D01*
X127059954Y-114520858D01*
X126929432Y-114707265D01*
X126929431Y-114707267D01*
X126902382Y-114765275D01*
X126856209Y-114817714D01*
X126789016Y-114836866D01*
X126722135Y-114816650D01*
X126677618Y-114765275D01*
X126650686Y-114707520D01*
X126650568Y-114707266D01*
X126520047Y-114520861D01*
X126520045Y-114520858D01*
X126359141Y-114359954D01*
X126172734Y-114229432D01*
X126172732Y-114229431D01*
X125966497Y-114133261D01*
X125966488Y-114133258D01*
X125746697Y-114074366D01*
X125746693Y-114074365D01*
X125746692Y-114074365D01*
X125746691Y-114074364D01*
X125746686Y-114074364D01*
X125520002Y-114054532D01*
X125519998Y-114054532D01*
X125293313Y-114074364D01*
X125293302Y-114074366D01*
X125073511Y-114133258D01*
X125073502Y-114133261D01*
X124867267Y-114229431D01*
X124867265Y-114229432D01*
X124680858Y-114359954D01*
X124519954Y-114520858D01*
X124389432Y-114707265D01*
X124389431Y-114707267D01*
X124362382Y-114765275D01*
X124316209Y-114817714D01*
X124249016Y-114836866D01*
X124182135Y-114816650D01*
X124137618Y-114765275D01*
X124110686Y-114707520D01*
X124110568Y-114707266D01*
X123980047Y-114520861D01*
X123980045Y-114520858D01*
X123819141Y-114359954D01*
X123632734Y-114229432D01*
X123632732Y-114229431D01*
X123426497Y-114133261D01*
X123426488Y-114133258D01*
X123206697Y-114074366D01*
X123206693Y-114074365D01*
X123206692Y-114074365D01*
X123206691Y-114074364D01*
X123206686Y-114074364D01*
X122980002Y-114054532D01*
X122979998Y-114054532D01*
X122753313Y-114074364D01*
X122753302Y-114074366D01*
X122533511Y-114133258D01*
X122533502Y-114133261D01*
X122327267Y-114229431D01*
X122327265Y-114229432D01*
X122140858Y-114359954D01*
X121979954Y-114520858D01*
X121849432Y-114707265D01*
X121849431Y-114707267D01*
X121822382Y-114765275D01*
X121776209Y-114817714D01*
X121709016Y-114836866D01*
X121642135Y-114816650D01*
X121597618Y-114765275D01*
X121570686Y-114707520D01*
X121570568Y-114707266D01*
X121440047Y-114520861D01*
X121440045Y-114520858D01*
X121279141Y-114359954D01*
X121092734Y-114229432D01*
X121092732Y-114229431D01*
X120886497Y-114133261D01*
X120886488Y-114133258D01*
X120666697Y-114074366D01*
X120666693Y-114074365D01*
X120666692Y-114074365D01*
X120666691Y-114074364D01*
X120666686Y-114074364D01*
X120440002Y-114054532D01*
X120439998Y-114054532D01*
X120213313Y-114074364D01*
X120213302Y-114074366D01*
X119993511Y-114133258D01*
X119993502Y-114133261D01*
X119787267Y-114229431D01*
X119787265Y-114229432D01*
X119600858Y-114359954D01*
X119439954Y-114520858D01*
X119309432Y-114707265D01*
X119309431Y-114707267D01*
X119282382Y-114765275D01*
X119236209Y-114817714D01*
X119169016Y-114836866D01*
X119102135Y-114816650D01*
X119057618Y-114765275D01*
X119030686Y-114707520D01*
X119030568Y-114707266D01*
X118900047Y-114520861D01*
X118900045Y-114520858D01*
X118739141Y-114359954D01*
X118552734Y-114229432D01*
X118552732Y-114229431D01*
X118346497Y-114133261D01*
X118346488Y-114133258D01*
X118126697Y-114074366D01*
X118126693Y-114074365D01*
X118126692Y-114074365D01*
X118126691Y-114074364D01*
X118126686Y-114074364D01*
X117900002Y-114054532D01*
X117899998Y-114054532D01*
X117673313Y-114074364D01*
X117673302Y-114074366D01*
X117453511Y-114133258D01*
X117453502Y-114133261D01*
X117247267Y-114229431D01*
X117247265Y-114229432D01*
X117060858Y-114359954D01*
X116899954Y-114520858D01*
X116769432Y-114707265D01*
X116769431Y-114707267D01*
X116742382Y-114765275D01*
X116696209Y-114817714D01*
X116629016Y-114836866D01*
X116562135Y-114816650D01*
X116517618Y-114765275D01*
X116490686Y-114707520D01*
X116490568Y-114707266D01*
X116360047Y-114520861D01*
X116360045Y-114520858D01*
X116199141Y-114359954D01*
X116012734Y-114229432D01*
X116012732Y-114229431D01*
X115806497Y-114133261D01*
X115806488Y-114133258D01*
X115586697Y-114074366D01*
X115586693Y-114074365D01*
X115586692Y-114074365D01*
X115586691Y-114074364D01*
X115586686Y-114074364D01*
X115360002Y-114054532D01*
X115359998Y-114054532D01*
X115133313Y-114074364D01*
X115133302Y-114074366D01*
X114913511Y-114133258D01*
X114913502Y-114133261D01*
X114707267Y-114229431D01*
X114707265Y-114229432D01*
X114520858Y-114359954D01*
X114359954Y-114520858D01*
X114279622Y-114635586D01*
X114229432Y-114707266D01*
X114229315Y-114707518D01*
X114202106Y-114765867D01*
X114155933Y-114818306D01*
X114088739Y-114837457D01*
X114021858Y-114817241D01*
X113977342Y-114765865D01*
X113950135Y-114707520D01*
X113950134Y-114707518D01*
X113819657Y-114521179D01*
X113658820Y-114360342D01*
X113472482Y-114229865D01*
X113266328Y-114133734D01*
X113070000Y-114081127D01*
X113070000Y-114924498D01*
X112962315Y-114875320D01*
X112855763Y-114860000D01*
X112784237Y-114860000D01*
X112677685Y-114875320D01*
X112570000Y-114924498D01*
X112570000Y-114081127D01*
X112373671Y-114133734D01*
X112167517Y-114229865D01*
X111981179Y-114360342D01*
X111820342Y-114521179D01*
X111689867Y-114707515D01*
X111662657Y-114765867D01*
X111616484Y-114818306D01*
X111549290Y-114837457D01*
X111482409Y-114817241D01*
X111437893Y-114765865D01*
X111410685Y-114707518D01*
X111410568Y-114707266D01*
X111280047Y-114520861D01*
X111280045Y-114520858D01*
X111119141Y-114359954D01*
X110932734Y-114229432D01*
X110932732Y-114229431D01*
X110726497Y-114133261D01*
X110726488Y-114133258D01*
X110506697Y-114074366D01*
X110506693Y-114074365D01*
X110506692Y-114074365D01*
X110506691Y-114074364D01*
X110506686Y-114074364D01*
X110280002Y-114054532D01*
X110279998Y-114054532D01*
X110053313Y-114074364D01*
X110053302Y-114074366D01*
X109833511Y-114133258D01*
X109833502Y-114133261D01*
X109627267Y-114229431D01*
X109627265Y-114229432D01*
X109440858Y-114359954D01*
X109279954Y-114520858D01*
X109149432Y-114707265D01*
X109149431Y-114707267D01*
X109122382Y-114765275D01*
X109076209Y-114817714D01*
X109009016Y-114836866D01*
X108942135Y-114816650D01*
X108897618Y-114765275D01*
X108870686Y-114707520D01*
X108870568Y-114707266D01*
X108740047Y-114520861D01*
X108740045Y-114520858D01*
X108579141Y-114359954D01*
X108392734Y-114229432D01*
X108392732Y-114229431D01*
X108186497Y-114133261D01*
X108186488Y-114133258D01*
X107966697Y-114074366D01*
X107966693Y-114074365D01*
X107966692Y-114074365D01*
X107966691Y-114074364D01*
X107966686Y-114074364D01*
X107740002Y-114054532D01*
X107739998Y-114054532D01*
X107513313Y-114074364D01*
X107513302Y-114074366D01*
X107293511Y-114133258D01*
X107293502Y-114133261D01*
X107087267Y-114229431D01*
X107087265Y-114229432D01*
X106900858Y-114359954D01*
X106739954Y-114520858D01*
X106722725Y-114545464D01*
X106668147Y-114589088D01*
X106598648Y-114596280D01*
X106536294Y-114564757D01*
X106500882Y-114504526D01*
X106497861Y-114487591D01*
X106494091Y-114452516D01*
X106443797Y-114317671D01*
X106443793Y-114317664D01*
X106357547Y-114202455D01*
X106357544Y-114202452D01*
X106242335Y-114116206D01*
X106242328Y-114116202D01*
X106107482Y-114065908D01*
X106107483Y-114065908D01*
X106047883Y-114059501D01*
X106047881Y-114059500D01*
X106047873Y-114059500D01*
X106047864Y-114059500D01*
X104352129Y-114059500D01*
X104352123Y-114059501D01*
X104292516Y-114065908D01*
X104157671Y-114116202D01*
X104157664Y-114116206D01*
X104042455Y-114202452D01*
X104042452Y-114202455D01*
X103956206Y-114317664D01*
X103956202Y-114317671D01*
X103905908Y-114452517D01*
X103899501Y-114512116D01*
X103899500Y-114512135D01*
X103899500Y-116207870D01*
X83882230Y-116207870D01*
X83858773Y-116154393D01*
X83722766Y-115946217D01*
X83682758Y-115902757D01*
X83554344Y-115763262D01*
X83358109Y-115610526D01*
X83358107Y-115610525D01*
X83358106Y-115610524D01*
X83139411Y-115492172D01*
X83139402Y-115492169D01*
X82904216Y-115411429D01*
X82658935Y-115370500D01*
X82410265Y-115370500D01*
X82222040Y-115401908D01*
X82152675Y-115393526D01*
X82098853Y-115348973D01*
X82077663Y-115282394D01*
X82081856Y-115247506D01*
X82119663Y-115106408D01*
X82140259Y-114871000D01*
X82119663Y-114635592D01*
X82058503Y-114407337D01*
X81958635Y-114193171D01*
X81904743Y-114116204D01*
X81823094Y-113999597D01*
X81656002Y-113832506D01*
X81655995Y-113832501D01*
X81462434Y-113696967D01*
X81462430Y-113696965D01*
X81462428Y-113696964D01*
X81248263Y-113597097D01*
X81248259Y-113597096D01*
X81248255Y-113597094D01*
X81020013Y-113535938D01*
X81020003Y-113535936D01*
X80784601Y-113515341D01*
X80784599Y-113515341D01*
X80549196Y-113535936D01*
X80549186Y-113535938D01*
X80320944Y-113597094D01*
X80320935Y-113597098D01*
X80106771Y-113696964D01*
X80106769Y-113696965D01*
X79913197Y-113832505D01*
X79746105Y-113999597D01*
X79610565Y-114193169D01*
X79610564Y-114193171D01*
X79510698Y-114407335D01*
X79510694Y-114407344D01*
X79449538Y-114635586D01*
X79449536Y-114635596D01*
X79428941Y-114870999D01*
X79428941Y-114871000D01*
X75475500Y-114871000D01*
X75475500Y-110871000D01*
X79428941Y-110871000D01*
X79449536Y-111106403D01*
X79449538Y-111106413D01*
X79510694Y-111334655D01*
X79510696Y-111334659D01*
X79510697Y-111334663D01*
X79610565Y-111548830D01*
X79610567Y-111548834D01*
X79718881Y-111703521D01*
X79746105Y-111742401D01*
X79913199Y-111909495D01*
X80009984Y-111977265D01*
X80106765Y-112045032D01*
X80106767Y-112045033D01*
X80106770Y-112045035D01*
X80320937Y-112144903D01*
X80549192Y-112206063D01*
X80737518Y-112222539D01*
X80784599Y-112226659D01*
X80784600Y-112226659D01*
X80784601Y-112226659D01*
X80823834Y-112223226D01*
X81020008Y-112206063D01*
X81248263Y-112144903D01*
X81462430Y-112045035D01*
X81656001Y-111909495D01*
X81823095Y-111742401D01*
X81958635Y-111548830D01*
X82058503Y-111334663D01*
X82119663Y-111106408D01*
X82140259Y-110871000D01*
X82119663Y-110635592D01*
X82058503Y-110407337D01*
X81958635Y-110193171D01*
X81823095Y-109999599D01*
X81823094Y-109999597D01*
X81656002Y-109832506D01*
X81655995Y-109832501D01*
X81462434Y-109696967D01*
X81462430Y-109696965D01*
X81462428Y-109696964D01*
X81248263Y-109597097D01*
X81248259Y-109597096D01*
X81248255Y-109597094D01*
X81020013Y-109535938D01*
X81020003Y-109535936D01*
X80784601Y-109515341D01*
X80784599Y-109515341D01*
X80549196Y-109535936D01*
X80549186Y-109535938D01*
X80320944Y-109597094D01*
X80320935Y-109597098D01*
X80106771Y-109696964D01*
X80106769Y-109696965D01*
X79913197Y-109832505D01*
X79746105Y-109999597D01*
X79610565Y-110193169D01*
X79610564Y-110193171D01*
X79510698Y-110407335D01*
X79510694Y-110407344D01*
X79449538Y-110635586D01*
X79449536Y-110635596D01*
X79428941Y-110870999D01*
X79428941Y-110871000D01*
X75475500Y-110871000D01*
X75475500Y-106871000D01*
X79428941Y-106871000D01*
X79449536Y-107106403D01*
X79449538Y-107106413D01*
X79510694Y-107334655D01*
X79510696Y-107334659D01*
X79510697Y-107334663D01*
X79610565Y-107548830D01*
X79610567Y-107548834D01*
X79718881Y-107703521D01*
X79746105Y-107742401D01*
X79913199Y-107909495D01*
X80009984Y-107977265D01*
X80106765Y-108045032D01*
X80106767Y-108045033D01*
X80106770Y-108045035D01*
X80320937Y-108144903D01*
X80549192Y-108206063D01*
X80737518Y-108222539D01*
X80784599Y-108226659D01*
X80784600Y-108226659D01*
X80784601Y-108226659D01*
X80823834Y-108223226D01*
X81020008Y-108206063D01*
X81248263Y-108144903D01*
X81462430Y-108045035D01*
X81656001Y-107909495D01*
X81823095Y-107742401D01*
X81958635Y-107548830D01*
X82058503Y-107334663D01*
X82119663Y-107106408D01*
X82140259Y-106871000D01*
X82119663Y-106635592D01*
X82081856Y-106494492D01*
X82083519Y-106424643D01*
X82122682Y-106366781D01*
X82186910Y-106339277D01*
X82222036Y-106340090D01*
X82410265Y-106371500D01*
X82410266Y-106371500D01*
X82658935Y-106371500D01*
X82904214Y-106330571D01*
X83139410Y-106249828D01*
X83358109Y-106131474D01*
X83554344Y-105978738D01*
X83722764Y-105795785D01*
X83858773Y-105587607D01*
X83958663Y-105359881D01*
X84019708Y-105118821D01*
X84040243Y-104871000D01*
X84019708Y-104623179D01*
X83958663Y-104382119D01*
X83858773Y-104154393D01*
X83722766Y-103946217D01*
X83701157Y-103922744D01*
X83554344Y-103763262D01*
X83358109Y-103610526D01*
X83358107Y-103610525D01*
X83358106Y-103610524D01*
X83139411Y-103492172D01*
X83139402Y-103492169D01*
X82904216Y-103411429D01*
X82658935Y-103370500D01*
X82410265Y-103370500D01*
X82164983Y-103411429D01*
X81929797Y-103492169D01*
X81929788Y-103492172D01*
X81711093Y-103610524D01*
X81514857Y-103763261D01*
X81346433Y-103946217D01*
X81210426Y-104154393D01*
X81110536Y-104382118D01*
X81049492Y-104623175D01*
X81049490Y-104623187D01*
X81028957Y-104870994D01*
X81028957Y-104871005D01*
X81049490Y-105118812D01*
X81049492Y-105118824D01*
X81110536Y-105359879D01*
X81112200Y-105364724D01*
X81111131Y-105365090D01*
X81119326Y-105428946D01*
X81089340Y-105492054D01*
X81029995Y-105528933D01*
X80986062Y-105532967D01*
X80784601Y-105515341D01*
X80784599Y-105515341D01*
X80549196Y-105535936D01*
X80549186Y-105535938D01*
X80320944Y-105597094D01*
X80320935Y-105597098D01*
X80106771Y-105696964D01*
X80106769Y-105696965D01*
X79913197Y-105832505D01*
X79746105Y-105999597D01*
X79610565Y-106193169D01*
X79610564Y-106193171D01*
X79510698Y-106407335D01*
X79510694Y-106407344D01*
X79449538Y-106635586D01*
X79449536Y-106635596D01*
X79428941Y-106870999D01*
X79428941Y-106871000D01*
X75475500Y-106871000D01*
X75475500Y-106201751D01*
X75495185Y-106134712D01*
X75547989Y-106088957D01*
X75617147Y-106079013D01*
X75675659Y-106103896D01*
X75711091Y-106131474D01*
X75929790Y-106249828D01*
X76164986Y-106330571D01*
X76410265Y-106371500D01*
X76658935Y-106371500D01*
X76904214Y-106330571D01*
X77139410Y-106249828D01*
X77358109Y-106131474D01*
X77554344Y-105978738D01*
X77722764Y-105795785D01*
X77858773Y-105587607D01*
X77958663Y-105359881D01*
X78019708Y-105118821D01*
X78040243Y-104871000D01*
X78019708Y-104623179D01*
X77958663Y-104382119D01*
X77858773Y-104154393D01*
X77722766Y-103946217D01*
X77701157Y-103922744D01*
X77554344Y-103763262D01*
X77358109Y-103610526D01*
X77358107Y-103610525D01*
X77358106Y-103610524D01*
X77139411Y-103492172D01*
X77139402Y-103492169D01*
X76904216Y-103411429D01*
X76658935Y-103370500D01*
X76410265Y-103370500D01*
X76164983Y-103411429D01*
X75929797Y-103492169D01*
X75929788Y-103492172D01*
X75727385Y-103601708D01*
X75711091Y-103610526D01*
X75675660Y-103638102D01*
X75610668Y-103663744D01*
X75542128Y-103650177D01*
X75491803Y-103601708D01*
X75475500Y-103540248D01*
X75475500Y-100120001D01*
X103894532Y-100120001D01*
X103914364Y-100346686D01*
X103914366Y-100346697D01*
X103973258Y-100566488D01*
X103973261Y-100566497D01*
X104069431Y-100772732D01*
X104069432Y-100772734D01*
X104199954Y-100959141D01*
X104360858Y-101120045D01*
X104360861Y-101120047D01*
X104547266Y-101250568D01*
X104753504Y-101346739D01*
X104973308Y-101405635D01*
X105135230Y-101419801D01*
X105199998Y-101425468D01*
X105200000Y-101425468D01*
X105200002Y-101425468D01*
X105256673Y-101420509D01*
X105426692Y-101405635D01*
X105646496Y-101346739D01*
X105852734Y-101250568D01*
X106039139Y-101120047D01*
X106200047Y-100959139D01*
X106330568Y-100772734D01*
X106357895Y-100714129D01*
X106404064Y-100661695D01*
X106471257Y-100642542D01*
X106538139Y-100662757D01*
X106582657Y-100714133D01*
X106609865Y-100772482D01*
X106740342Y-100958820D01*
X106901179Y-101119657D01*
X107087517Y-101250134D01*
X107293673Y-101346265D01*
X107293682Y-101346269D01*
X107489999Y-101398872D01*
X107490000Y-101398871D01*
X107490000Y-100555501D01*
X107597685Y-100604680D01*
X107704237Y-100620000D01*
X107775763Y-100620000D01*
X107882315Y-100604680D01*
X107990000Y-100555501D01*
X107990000Y-101398872D01*
X108186317Y-101346269D01*
X108186326Y-101346265D01*
X108392482Y-101250134D01*
X108578820Y-101119657D01*
X108739657Y-100958820D01*
X108870132Y-100772484D01*
X108897341Y-100714134D01*
X108943513Y-100661695D01*
X109010707Y-100642542D01*
X109077588Y-100662757D01*
X109122106Y-100714133D01*
X109149431Y-100772732D01*
X109149432Y-100772734D01*
X109279954Y-100959141D01*
X109440858Y-101120045D01*
X109440861Y-101120047D01*
X109627266Y-101250568D01*
X109833504Y-101346739D01*
X110053308Y-101405635D01*
X110215230Y-101419801D01*
X110279998Y-101425468D01*
X110280000Y-101425468D01*
X110280002Y-101425468D01*
X110336673Y-101420509D01*
X110506692Y-101405635D01*
X110726496Y-101346739D01*
X110932734Y-101250568D01*
X111119139Y-101120047D01*
X111280047Y-100959139D01*
X111410568Y-100772734D01*
X111437618Y-100714724D01*
X111483790Y-100662285D01*
X111550983Y-100643133D01*
X111617865Y-100663348D01*
X111662382Y-100714725D01*
X111689429Y-100772728D01*
X111689432Y-100772734D01*
X111819954Y-100959141D01*
X111980858Y-101120045D01*
X111980861Y-101120047D01*
X112167266Y-101250568D01*
X112373504Y-101346739D01*
X112593308Y-101405635D01*
X112755230Y-101419801D01*
X112819998Y-101425468D01*
X112820000Y-101425468D01*
X112820002Y-101425468D01*
X112876673Y-101420509D01*
X113046692Y-101405635D01*
X113266496Y-101346739D01*
X113472734Y-101250568D01*
X113659139Y-101120047D01*
X113820047Y-100959139D01*
X113950568Y-100772734D01*
X113977618Y-100714724D01*
X114023790Y-100662285D01*
X114090983Y-100643133D01*
X114157865Y-100663348D01*
X114202382Y-100714725D01*
X114229429Y-100772728D01*
X114229432Y-100772734D01*
X114359954Y-100959141D01*
X114520858Y-101120045D01*
X114520861Y-101120047D01*
X114707266Y-101250568D01*
X114913504Y-101346739D01*
X115133308Y-101405635D01*
X115295230Y-101419801D01*
X115359998Y-101425468D01*
X115360000Y-101425468D01*
X115360002Y-101425468D01*
X115416673Y-101420509D01*
X115586692Y-101405635D01*
X115806496Y-101346739D01*
X116012734Y-101250568D01*
X116199139Y-101120047D01*
X116360047Y-100959139D01*
X116490568Y-100772734D01*
X116517618Y-100714724D01*
X116563790Y-100662285D01*
X116630983Y-100643133D01*
X116697865Y-100663348D01*
X116742382Y-100714725D01*
X116769429Y-100772728D01*
X116769432Y-100772734D01*
X116899954Y-100959141D01*
X117060858Y-101120045D01*
X117060861Y-101120047D01*
X117247266Y-101250568D01*
X117453504Y-101346739D01*
X117673308Y-101405635D01*
X117835230Y-101419801D01*
X117899998Y-101425468D01*
X117900000Y-101425468D01*
X117900002Y-101425468D01*
X117956673Y-101420509D01*
X118126692Y-101405635D01*
X118346496Y-101346739D01*
X118552734Y-101250568D01*
X118739139Y-101120047D01*
X118900047Y-100959139D01*
X119030568Y-100772734D01*
X119057618Y-100714724D01*
X119103790Y-100662285D01*
X119170983Y-100643133D01*
X119237865Y-100663348D01*
X119282382Y-100714725D01*
X119309429Y-100772728D01*
X119309432Y-100772734D01*
X119439954Y-100959141D01*
X119600858Y-101120045D01*
X119600861Y-101120047D01*
X119787266Y-101250568D01*
X119993504Y-101346739D01*
X120213308Y-101405635D01*
X120375230Y-101419801D01*
X120439998Y-101425468D01*
X120440000Y-101425468D01*
X120440002Y-101425468D01*
X120496673Y-101420509D01*
X120666692Y-101405635D01*
X120886496Y-101346739D01*
X121092734Y-101250568D01*
X121279139Y-101120047D01*
X121440047Y-100959139D01*
X121570568Y-100772734D01*
X121597618Y-100714724D01*
X121643790Y-100662285D01*
X121710983Y-100643133D01*
X121777865Y-100663348D01*
X121822382Y-100714725D01*
X121849429Y-100772728D01*
X121849432Y-100772734D01*
X121979954Y-100959141D01*
X122140858Y-101120045D01*
X122140861Y-101120047D01*
X122327266Y-101250568D01*
X122533504Y-101346739D01*
X122753308Y-101405635D01*
X122915230Y-101419801D01*
X122979998Y-101425468D01*
X122980000Y-101425468D01*
X122980002Y-101425468D01*
X123036673Y-101420509D01*
X123206692Y-101405635D01*
X123426496Y-101346739D01*
X123632734Y-101250568D01*
X123819139Y-101120047D01*
X123980047Y-100959139D01*
X124110568Y-100772734D01*
X124137618Y-100714724D01*
X124183790Y-100662285D01*
X124250983Y-100643133D01*
X124317865Y-100663348D01*
X124362382Y-100714725D01*
X124389429Y-100772728D01*
X124389432Y-100772734D01*
X124519954Y-100959141D01*
X124680858Y-101120045D01*
X124680861Y-101120047D01*
X124867266Y-101250568D01*
X125073504Y-101346739D01*
X125293308Y-101405635D01*
X125455230Y-101419801D01*
X125519998Y-101425468D01*
X125520000Y-101425468D01*
X125520002Y-101425468D01*
X125576673Y-101420509D01*
X125746692Y-101405635D01*
X125966496Y-101346739D01*
X126172734Y-101250568D01*
X126359139Y-101120047D01*
X126520047Y-100959139D01*
X126650568Y-100772734D01*
X126677618Y-100714724D01*
X126723790Y-100662285D01*
X126790983Y-100643133D01*
X126857865Y-100663348D01*
X126902382Y-100714725D01*
X126929429Y-100772728D01*
X126929432Y-100772734D01*
X127059954Y-100959141D01*
X127220858Y-101120045D01*
X127220861Y-101120047D01*
X127407266Y-101250568D01*
X127613504Y-101346739D01*
X127833308Y-101405635D01*
X127995230Y-101419801D01*
X128059998Y-101425468D01*
X128060000Y-101425468D01*
X128060002Y-101425468D01*
X128116673Y-101420509D01*
X128286692Y-101405635D01*
X128506496Y-101346739D01*
X128712734Y-101250568D01*
X128899139Y-101120047D01*
X129060047Y-100959139D01*
X129190568Y-100772734D01*
X129217618Y-100714724D01*
X129263790Y-100662285D01*
X129330983Y-100643133D01*
X129397865Y-100663348D01*
X129442382Y-100714725D01*
X129469429Y-100772728D01*
X129469432Y-100772734D01*
X129599954Y-100959141D01*
X129760858Y-101120045D01*
X129760861Y-101120047D01*
X129947266Y-101250568D01*
X130153504Y-101346739D01*
X130373308Y-101405635D01*
X130535230Y-101419801D01*
X130599998Y-101425468D01*
X130600000Y-101425468D01*
X130600002Y-101425468D01*
X130656673Y-101420509D01*
X130826692Y-101405635D01*
X131046496Y-101346739D01*
X131252734Y-101250568D01*
X131439139Y-101120047D01*
X131600047Y-100959139D01*
X131730568Y-100772734D01*
X131757618Y-100714724D01*
X131803790Y-100662285D01*
X131870983Y-100643133D01*
X131937865Y-100663348D01*
X131982382Y-100714725D01*
X132009429Y-100772728D01*
X132009432Y-100772734D01*
X132139954Y-100959141D01*
X132300858Y-101120045D01*
X132300861Y-101120047D01*
X132487266Y-101250568D01*
X132693504Y-101346739D01*
X132913308Y-101405635D01*
X133075230Y-101419801D01*
X133139998Y-101425468D01*
X133140000Y-101425468D01*
X133140002Y-101425468D01*
X133196673Y-101420509D01*
X133366692Y-101405635D01*
X133586496Y-101346739D01*
X133792734Y-101250568D01*
X133979139Y-101120047D01*
X134140047Y-100959139D01*
X134270568Y-100772734D01*
X134297618Y-100714724D01*
X134343790Y-100662285D01*
X134410983Y-100643133D01*
X134477865Y-100663348D01*
X134522382Y-100714725D01*
X134549429Y-100772728D01*
X134549432Y-100772734D01*
X134679954Y-100959141D01*
X134840858Y-101120045D01*
X134840861Y-101120047D01*
X135027266Y-101250568D01*
X135233504Y-101346739D01*
X135453308Y-101405635D01*
X135615230Y-101419801D01*
X135679998Y-101425468D01*
X135680000Y-101425468D01*
X135680002Y-101425468D01*
X135736673Y-101420509D01*
X135906692Y-101405635D01*
X136126496Y-101346739D01*
X136332734Y-101250568D01*
X136519139Y-101120047D01*
X136680047Y-100959139D01*
X136810568Y-100772734D01*
X136837618Y-100714724D01*
X136883790Y-100662285D01*
X136950983Y-100643133D01*
X137017865Y-100663348D01*
X137062382Y-100714725D01*
X137089429Y-100772728D01*
X137089432Y-100772734D01*
X137219954Y-100959141D01*
X137380858Y-101120045D01*
X137380861Y-101120047D01*
X137567266Y-101250568D01*
X137773504Y-101346739D01*
X137993308Y-101405635D01*
X138155230Y-101419801D01*
X138219998Y-101425468D01*
X138220000Y-101425468D01*
X138220002Y-101425468D01*
X138276673Y-101420509D01*
X138446692Y-101405635D01*
X138666496Y-101346739D01*
X138872734Y-101250568D01*
X139059139Y-101120047D01*
X139220047Y-100959139D01*
X139350568Y-100772734D01*
X139377618Y-100714724D01*
X139423790Y-100662285D01*
X139490983Y-100643133D01*
X139557865Y-100663348D01*
X139602382Y-100714725D01*
X139629429Y-100772728D01*
X139629432Y-100772734D01*
X139759954Y-100959141D01*
X139920858Y-101120045D01*
X139920861Y-101120047D01*
X140107266Y-101250568D01*
X140313504Y-101346739D01*
X140533308Y-101405635D01*
X140695230Y-101419801D01*
X140759998Y-101425468D01*
X140760000Y-101425468D01*
X140760002Y-101425468D01*
X140816673Y-101420509D01*
X140986692Y-101405635D01*
X141206496Y-101346739D01*
X141412734Y-101250568D01*
X141599139Y-101120047D01*
X141760047Y-100959139D01*
X141890568Y-100772734D01*
X141986739Y-100566496D01*
X142045635Y-100346692D01*
X142065468Y-100120000D01*
X142045635Y-99893308D01*
X141986739Y-99673504D01*
X141890568Y-99467266D01*
X141760047Y-99280861D01*
X141760045Y-99280858D01*
X141599141Y-99119954D01*
X141412734Y-98989432D01*
X141412732Y-98989431D01*
X141206497Y-98893261D01*
X141206488Y-98893258D01*
X140986697Y-98834366D01*
X140986693Y-98834365D01*
X140986692Y-98834365D01*
X140986691Y-98834364D01*
X140986686Y-98834364D01*
X140760002Y-98814532D01*
X140759998Y-98814532D01*
X140533313Y-98834364D01*
X140533302Y-98834366D01*
X140313511Y-98893258D01*
X140313502Y-98893261D01*
X140107267Y-98989431D01*
X140107265Y-98989432D01*
X139920858Y-99119954D01*
X139759954Y-99280858D01*
X139629432Y-99467265D01*
X139629431Y-99467267D01*
X139602382Y-99525275D01*
X139556209Y-99577714D01*
X139489016Y-99596866D01*
X139422135Y-99576650D01*
X139377618Y-99525275D01*
X139350686Y-99467520D01*
X139350568Y-99467266D01*
X139220047Y-99280861D01*
X139220045Y-99280858D01*
X139059141Y-99119954D01*
X138872734Y-98989432D01*
X138872732Y-98989431D01*
X138666497Y-98893261D01*
X138666488Y-98893258D01*
X138446697Y-98834366D01*
X138446693Y-98834365D01*
X138446692Y-98834365D01*
X138446691Y-98834364D01*
X138446686Y-98834364D01*
X138220002Y-98814532D01*
X138219998Y-98814532D01*
X137993313Y-98834364D01*
X137993302Y-98834366D01*
X137773511Y-98893258D01*
X137773502Y-98893261D01*
X137567267Y-98989431D01*
X137567265Y-98989432D01*
X137380858Y-99119954D01*
X137219954Y-99280858D01*
X137089432Y-99467265D01*
X137089431Y-99467267D01*
X137062382Y-99525275D01*
X137016209Y-99577714D01*
X136949016Y-99596866D01*
X136882135Y-99576650D01*
X136837618Y-99525275D01*
X136810686Y-99467520D01*
X136810568Y-99467266D01*
X136680047Y-99280861D01*
X136680045Y-99280858D01*
X136519141Y-99119954D01*
X136332734Y-98989432D01*
X136332732Y-98989431D01*
X136126497Y-98893261D01*
X136126488Y-98893258D01*
X135906697Y-98834366D01*
X135906693Y-98834365D01*
X135906692Y-98834365D01*
X135906691Y-98834364D01*
X135906686Y-98834364D01*
X135680002Y-98814532D01*
X135679998Y-98814532D01*
X135453313Y-98834364D01*
X135453302Y-98834366D01*
X135233511Y-98893258D01*
X135233502Y-98893261D01*
X135027267Y-98989431D01*
X135027265Y-98989432D01*
X134840858Y-99119954D01*
X134679954Y-99280858D01*
X134549432Y-99467265D01*
X134549431Y-99467267D01*
X134522382Y-99525275D01*
X134476209Y-99577714D01*
X134409016Y-99596866D01*
X134342135Y-99576650D01*
X134297618Y-99525275D01*
X134270686Y-99467520D01*
X134270568Y-99467266D01*
X134140047Y-99280861D01*
X134140045Y-99280858D01*
X133979141Y-99119954D01*
X133792734Y-98989432D01*
X133792732Y-98989431D01*
X133586497Y-98893261D01*
X133586488Y-98893258D01*
X133366697Y-98834366D01*
X133366693Y-98834365D01*
X133366692Y-98834365D01*
X133366691Y-98834364D01*
X133366686Y-98834364D01*
X133140002Y-98814532D01*
X133139998Y-98814532D01*
X132913313Y-98834364D01*
X132913302Y-98834366D01*
X132693511Y-98893258D01*
X132693502Y-98893261D01*
X132487267Y-98989431D01*
X132487265Y-98989432D01*
X132300858Y-99119954D01*
X132139954Y-99280858D01*
X132009432Y-99467265D01*
X132009431Y-99467267D01*
X131982382Y-99525275D01*
X131936209Y-99577714D01*
X131869016Y-99596866D01*
X131802135Y-99576650D01*
X131757618Y-99525275D01*
X131730686Y-99467520D01*
X131730568Y-99467266D01*
X131600047Y-99280861D01*
X131600045Y-99280858D01*
X131439141Y-99119954D01*
X131252734Y-98989432D01*
X131252732Y-98989431D01*
X131046497Y-98893261D01*
X131046488Y-98893258D01*
X130826697Y-98834366D01*
X130826693Y-98834365D01*
X130826692Y-98834365D01*
X130826691Y-98834364D01*
X130826686Y-98834364D01*
X130600002Y-98814532D01*
X130599998Y-98814532D01*
X130373313Y-98834364D01*
X130373302Y-98834366D01*
X130153511Y-98893258D01*
X130153502Y-98893261D01*
X129947267Y-98989431D01*
X129947265Y-98989432D01*
X129760858Y-99119954D01*
X129599954Y-99280858D01*
X129469432Y-99467265D01*
X129469431Y-99467267D01*
X129442382Y-99525275D01*
X129396209Y-99577714D01*
X129329016Y-99596866D01*
X129262135Y-99576650D01*
X129217618Y-99525275D01*
X129190686Y-99467520D01*
X129190568Y-99467266D01*
X129060047Y-99280861D01*
X129060045Y-99280858D01*
X128899141Y-99119954D01*
X128712734Y-98989432D01*
X128712732Y-98989431D01*
X128506497Y-98893261D01*
X128506488Y-98893258D01*
X128286697Y-98834366D01*
X128286693Y-98834365D01*
X128286692Y-98834365D01*
X128286691Y-98834364D01*
X128286686Y-98834364D01*
X128060002Y-98814532D01*
X128059998Y-98814532D01*
X127833313Y-98834364D01*
X127833302Y-98834366D01*
X127613511Y-98893258D01*
X127613502Y-98893261D01*
X127407267Y-98989431D01*
X127407265Y-98989432D01*
X127220858Y-99119954D01*
X127059954Y-99280858D01*
X126929432Y-99467265D01*
X126929431Y-99467267D01*
X126902382Y-99525275D01*
X126856209Y-99577714D01*
X126789016Y-99596866D01*
X126722135Y-99576650D01*
X126677618Y-99525275D01*
X126650686Y-99467520D01*
X126650568Y-99467266D01*
X126520047Y-99280861D01*
X126520045Y-99280858D01*
X126359141Y-99119954D01*
X126172734Y-98989432D01*
X126172732Y-98989431D01*
X125966497Y-98893261D01*
X125966488Y-98893258D01*
X125746697Y-98834366D01*
X125746693Y-98834365D01*
X125746692Y-98834365D01*
X125746691Y-98834364D01*
X125746686Y-98834364D01*
X125520002Y-98814532D01*
X125519998Y-98814532D01*
X125293313Y-98834364D01*
X125293302Y-98834366D01*
X125073511Y-98893258D01*
X125073502Y-98893261D01*
X124867267Y-98989431D01*
X124867265Y-98989432D01*
X124680858Y-99119954D01*
X124519954Y-99280858D01*
X124389432Y-99467265D01*
X124389431Y-99467267D01*
X124362382Y-99525275D01*
X124316209Y-99577714D01*
X124249016Y-99596866D01*
X124182135Y-99576650D01*
X124137618Y-99525275D01*
X124110686Y-99467520D01*
X124110568Y-99467266D01*
X123980047Y-99280861D01*
X123980045Y-99280858D01*
X123819141Y-99119954D01*
X123632734Y-98989432D01*
X123632732Y-98989431D01*
X123426497Y-98893261D01*
X123426488Y-98893258D01*
X123206697Y-98834366D01*
X123206693Y-98834365D01*
X123206692Y-98834365D01*
X123206691Y-98834364D01*
X123206686Y-98834364D01*
X122980002Y-98814532D01*
X122979998Y-98814532D01*
X122753313Y-98834364D01*
X122753302Y-98834366D01*
X122533511Y-98893258D01*
X122533502Y-98893261D01*
X122327267Y-98989431D01*
X122327265Y-98989432D01*
X122140858Y-99119954D01*
X121979954Y-99280858D01*
X121849432Y-99467265D01*
X121849431Y-99467267D01*
X121822382Y-99525275D01*
X121776209Y-99577714D01*
X121709016Y-99596866D01*
X121642135Y-99576650D01*
X121597618Y-99525275D01*
X121570686Y-99467520D01*
X121570568Y-99467266D01*
X121440047Y-99280861D01*
X121440045Y-99280858D01*
X121279141Y-99119954D01*
X121092734Y-98989432D01*
X121092732Y-98989431D01*
X120886497Y-98893261D01*
X120886488Y-98893258D01*
X120666697Y-98834366D01*
X120666693Y-98834365D01*
X120666692Y-98834365D01*
X120666691Y-98834364D01*
X120666686Y-98834364D01*
X120440002Y-98814532D01*
X120439998Y-98814532D01*
X120213313Y-98834364D01*
X120213302Y-98834366D01*
X119993511Y-98893258D01*
X119993502Y-98893261D01*
X119787267Y-98989431D01*
X119787265Y-98989432D01*
X119600858Y-99119954D01*
X119439954Y-99280858D01*
X119309432Y-99467265D01*
X119309431Y-99467267D01*
X119282382Y-99525275D01*
X119236209Y-99577714D01*
X119169016Y-99596866D01*
X119102135Y-99576650D01*
X119057618Y-99525275D01*
X119030686Y-99467520D01*
X119030568Y-99467266D01*
X118900047Y-99280861D01*
X118900045Y-99280858D01*
X118739141Y-99119954D01*
X118552734Y-98989432D01*
X118552732Y-98989431D01*
X118346497Y-98893261D01*
X118346488Y-98893258D01*
X118126697Y-98834366D01*
X118126693Y-98834365D01*
X118126692Y-98834365D01*
X118126691Y-98834364D01*
X118126686Y-98834364D01*
X117900002Y-98814532D01*
X117899998Y-98814532D01*
X117673313Y-98834364D01*
X117673302Y-98834366D01*
X117453511Y-98893258D01*
X117453502Y-98893261D01*
X117247267Y-98989431D01*
X117247265Y-98989432D01*
X117060858Y-99119954D01*
X116899954Y-99280858D01*
X116769432Y-99467265D01*
X116769431Y-99467267D01*
X116742382Y-99525275D01*
X116696209Y-99577714D01*
X116629016Y-99596866D01*
X116562135Y-99576650D01*
X116517618Y-99525275D01*
X116490686Y-99467520D01*
X116490568Y-99467266D01*
X116360047Y-99280861D01*
X116360045Y-99280858D01*
X116199141Y-99119954D01*
X116012734Y-98989432D01*
X116012732Y-98989431D01*
X115806497Y-98893261D01*
X115806488Y-98893258D01*
X115586697Y-98834366D01*
X115586693Y-98834365D01*
X115586692Y-98834365D01*
X115586691Y-98834364D01*
X115586686Y-98834364D01*
X115360002Y-98814532D01*
X115359998Y-98814532D01*
X115133313Y-98834364D01*
X115133302Y-98834366D01*
X114913511Y-98893258D01*
X114913502Y-98893261D01*
X114707267Y-98989431D01*
X114707265Y-98989432D01*
X114520858Y-99119954D01*
X114359954Y-99280858D01*
X114229432Y-99467265D01*
X114229431Y-99467267D01*
X114202382Y-99525275D01*
X114156209Y-99577714D01*
X114089016Y-99596866D01*
X114022135Y-99576650D01*
X113977618Y-99525275D01*
X113950686Y-99467520D01*
X113950568Y-99467266D01*
X113820047Y-99280861D01*
X113820045Y-99280858D01*
X113659141Y-99119954D01*
X113472734Y-98989432D01*
X113472732Y-98989431D01*
X113266497Y-98893261D01*
X113266488Y-98893258D01*
X113046697Y-98834366D01*
X113046693Y-98834365D01*
X113046692Y-98834365D01*
X113046691Y-98834364D01*
X113046686Y-98834364D01*
X112820002Y-98814532D01*
X112819998Y-98814532D01*
X112593313Y-98834364D01*
X112593302Y-98834366D01*
X112373511Y-98893258D01*
X112373502Y-98893261D01*
X112167267Y-98989431D01*
X112167265Y-98989432D01*
X111980858Y-99119954D01*
X111819954Y-99280858D01*
X111689432Y-99467265D01*
X111689431Y-99467267D01*
X111662382Y-99525275D01*
X111616209Y-99577714D01*
X111549016Y-99596866D01*
X111482135Y-99576650D01*
X111437618Y-99525275D01*
X111410686Y-99467520D01*
X111410568Y-99467266D01*
X111280047Y-99280861D01*
X111280045Y-99280858D01*
X111119141Y-99119954D01*
X110932734Y-98989432D01*
X110932732Y-98989431D01*
X110726497Y-98893261D01*
X110726488Y-98893258D01*
X110506697Y-98834366D01*
X110506693Y-98834365D01*
X110506692Y-98834365D01*
X110506691Y-98834364D01*
X110506686Y-98834364D01*
X110280002Y-98814532D01*
X110279998Y-98814532D01*
X110053313Y-98834364D01*
X110053302Y-98834366D01*
X109833511Y-98893258D01*
X109833502Y-98893261D01*
X109627267Y-98989431D01*
X109627265Y-98989432D01*
X109440858Y-99119954D01*
X109279954Y-99280858D01*
X109149433Y-99467264D01*
X109149432Y-99467266D01*
X109149315Y-99467518D01*
X109122106Y-99525867D01*
X109075933Y-99578306D01*
X109008739Y-99597457D01*
X108941858Y-99577241D01*
X108897342Y-99525865D01*
X108870135Y-99467520D01*
X108870134Y-99467518D01*
X108739657Y-99281179D01*
X108578820Y-99120342D01*
X108392482Y-98989865D01*
X108186328Y-98893734D01*
X107990000Y-98841127D01*
X107990000Y-99684498D01*
X107882315Y-99635320D01*
X107775763Y-99620000D01*
X107704237Y-99620000D01*
X107597685Y-99635320D01*
X107490000Y-99684498D01*
X107490000Y-98841127D01*
X107293671Y-98893734D01*
X107087517Y-98989865D01*
X106901179Y-99120342D01*
X106740342Y-99281179D01*
X106609867Y-99467515D01*
X106582657Y-99525867D01*
X106536484Y-99578306D01*
X106469290Y-99597457D01*
X106402409Y-99577241D01*
X106357893Y-99525865D01*
X106330685Y-99467518D01*
X106330568Y-99467266D01*
X106200047Y-99280861D01*
X106200045Y-99280858D01*
X106039141Y-99119954D01*
X105852734Y-98989432D01*
X105852732Y-98989431D01*
X105646497Y-98893261D01*
X105646488Y-98893258D01*
X105426697Y-98834366D01*
X105426693Y-98834365D01*
X105426692Y-98834365D01*
X105426691Y-98834364D01*
X105426686Y-98834364D01*
X105200002Y-98814532D01*
X105199998Y-98814532D01*
X104973313Y-98834364D01*
X104973302Y-98834366D01*
X104753511Y-98893258D01*
X104753502Y-98893261D01*
X104547267Y-98989431D01*
X104547265Y-98989432D01*
X104360858Y-99119954D01*
X104199954Y-99280858D01*
X104069432Y-99467265D01*
X104069431Y-99467267D01*
X103973261Y-99673502D01*
X103973258Y-99673511D01*
X103914366Y-99893302D01*
X103914364Y-99893313D01*
X103894532Y-100119998D01*
X103894532Y-100120001D01*
X75475500Y-100120001D01*
X75475500Y-91160005D01*
X85727277Y-91160005D01*
X85746134Y-91387580D01*
X85746136Y-91387592D01*
X85802196Y-91608967D01*
X85893930Y-91818102D01*
X86018834Y-92009283D01*
X86018837Y-92009286D01*
X86173507Y-92177302D01*
X86353722Y-92317569D01*
X86554566Y-92426261D01*
X86770562Y-92500412D01*
X86995816Y-92538000D01*
X87224184Y-92538000D01*
X87449438Y-92500412D01*
X87665434Y-92426261D01*
X87866278Y-92317569D01*
X88046493Y-92177302D01*
X88201163Y-92009286D01*
X88326069Y-91818103D01*
X88417803Y-91608969D01*
X88473864Y-91387589D01*
X88488794Y-91207419D01*
X88492723Y-91160005D01*
X99317277Y-91160005D01*
X99336134Y-91387580D01*
X99336136Y-91387592D01*
X99392196Y-91608967D01*
X99483930Y-91818102D01*
X99608834Y-92009283D01*
X99608837Y-92009286D01*
X99763507Y-92177302D01*
X99943722Y-92317569D01*
X100144566Y-92426261D01*
X100360562Y-92500412D01*
X100585816Y-92538000D01*
X100814184Y-92538000D01*
X101039438Y-92500412D01*
X101255434Y-92426261D01*
X101456278Y-92317569D01*
X101636493Y-92177302D01*
X101791163Y-92009286D01*
X101916069Y-91818103D01*
X102007803Y-91608969D01*
X102051857Y-91435005D01*
X121102277Y-91435005D01*
X121121134Y-91662580D01*
X121121136Y-91662592D01*
X121177196Y-91883967D01*
X121268930Y-92093102D01*
X121393834Y-92284283D01*
X121393837Y-92284286D01*
X121548507Y-92452302D01*
X121728722Y-92592569D01*
X121929566Y-92701261D01*
X122145562Y-92775412D01*
X122370816Y-92813000D01*
X122599184Y-92813000D01*
X122824438Y-92775412D01*
X123040434Y-92701261D01*
X123241278Y-92592569D01*
X123421493Y-92452302D01*
X123576163Y-92284286D01*
X123701069Y-92093103D01*
X123792803Y-91883969D01*
X123848864Y-91662589D01*
X123853307Y-91608969D01*
X123867723Y-91435005D01*
X134692277Y-91435005D01*
X134711134Y-91662580D01*
X134711136Y-91662592D01*
X134767196Y-91883967D01*
X134858930Y-92093102D01*
X134983834Y-92284283D01*
X134983837Y-92284286D01*
X135138507Y-92452302D01*
X135318722Y-92592569D01*
X135519566Y-92701261D01*
X135735562Y-92775412D01*
X135960816Y-92813000D01*
X136189184Y-92813000D01*
X136414438Y-92775412D01*
X136630434Y-92701261D01*
X136831278Y-92592569D01*
X137011493Y-92452302D01*
X137166163Y-92284286D01*
X137291069Y-92093103D01*
X137382803Y-91883969D01*
X137438864Y-91662589D01*
X137443307Y-91608969D01*
X137457723Y-91435005D01*
X137457723Y-91434994D01*
X137438865Y-91207419D01*
X137438863Y-91207407D01*
X137382803Y-90986032D01*
X137359286Y-90932419D01*
X137291069Y-90776897D01*
X137166165Y-90585716D01*
X137146321Y-90564160D01*
X137011493Y-90417698D01*
X136831278Y-90277431D01*
X136831276Y-90277430D01*
X136831275Y-90277429D01*
X136630435Y-90168739D01*
X136630430Y-90168737D01*
X136414440Y-90094588D01*
X136189184Y-90057000D01*
X135960816Y-90057000D01*
X135735559Y-90094588D01*
X135519569Y-90168737D01*
X135519564Y-90168739D01*
X135318724Y-90277429D01*
X135138508Y-90417697D01*
X134983834Y-90585716D01*
X134858930Y-90776897D01*
X134767196Y-90986032D01*
X134711136Y-91207407D01*
X134711134Y-91207419D01*
X134692277Y-91434994D01*
X134692277Y-91435005D01*
X123867723Y-91435005D01*
X123867723Y-91434994D01*
X123848865Y-91207419D01*
X123848863Y-91207407D01*
X123792803Y-90986032D01*
X123769286Y-90932419D01*
X123701069Y-90776897D01*
X123576165Y-90585716D01*
X123556321Y-90564160D01*
X123421493Y-90417698D01*
X123241278Y-90277431D01*
X123241276Y-90277430D01*
X123241275Y-90277429D01*
X123040435Y-90168739D01*
X123040430Y-90168737D01*
X122824440Y-90094588D01*
X122599184Y-90057000D01*
X122370816Y-90057000D01*
X122145559Y-90094588D01*
X121929569Y-90168737D01*
X121929564Y-90168739D01*
X121728724Y-90277429D01*
X121548508Y-90417697D01*
X121393834Y-90585716D01*
X121268930Y-90776897D01*
X121177196Y-90986032D01*
X121121136Y-91207407D01*
X121121134Y-91207419D01*
X121102277Y-91434994D01*
X121102277Y-91435005D01*
X102051857Y-91435005D01*
X102063864Y-91387589D01*
X102078794Y-91207419D01*
X102082723Y-91160005D01*
X102082723Y-91159994D01*
X102063865Y-90932419D01*
X102063863Y-90932407D01*
X102061138Y-90921647D01*
X102007803Y-90711031D01*
X101916069Y-90501897D01*
X101861059Y-90417698D01*
X101791165Y-90310716D01*
X101660465Y-90168739D01*
X101636493Y-90142698D01*
X101456278Y-90002431D01*
X101456276Y-90002430D01*
X101456275Y-90002429D01*
X101255435Y-89893739D01*
X101255430Y-89893737D01*
X101039440Y-89819588D01*
X100814184Y-89782000D01*
X100585816Y-89782000D01*
X100360559Y-89819588D01*
X100144569Y-89893737D01*
X100144564Y-89893739D01*
X99943724Y-90002429D01*
X99763508Y-90142697D01*
X99608834Y-90310716D01*
X99483930Y-90501897D01*
X99392196Y-90711032D01*
X99336136Y-90932407D01*
X99336134Y-90932419D01*
X99317277Y-91159994D01*
X99317277Y-91160005D01*
X88492723Y-91160005D01*
X88492723Y-91159994D01*
X88473865Y-90932419D01*
X88473863Y-90932407D01*
X88471138Y-90921647D01*
X88417803Y-90711031D01*
X88326069Y-90501897D01*
X88271059Y-90417698D01*
X88201165Y-90310716D01*
X88070465Y-90168739D01*
X88046493Y-90142698D01*
X87866278Y-90002431D01*
X87866276Y-90002430D01*
X87866275Y-90002429D01*
X87665435Y-89893739D01*
X87665430Y-89893737D01*
X87449440Y-89819588D01*
X87224184Y-89782000D01*
X86995816Y-89782000D01*
X86770559Y-89819588D01*
X86554569Y-89893737D01*
X86554564Y-89893739D01*
X86353724Y-90002429D01*
X86173508Y-90142697D01*
X86018834Y-90310716D01*
X85893930Y-90501897D01*
X85802196Y-90711032D01*
X85746136Y-90932407D01*
X85746134Y-90932419D01*
X85727277Y-91159994D01*
X85727277Y-91160005D01*
X75475500Y-91160005D01*
X75475500Y-64928974D01*
X91705781Y-64928974D01*
X91715691Y-65212759D01*
X91715692Y-65212764D01*
X91765004Y-65492422D01*
X91765004Y-65492423D01*
X91852757Y-65762500D01*
X91977237Y-66017721D01*
X91977240Y-66017725D01*
X91977242Y-66017729D01*
X92136037Y-66253153D01*
X92326052Y-66464186D01*
X92543588Y-66646720D01*
X92664159Y-66722061D01*
X92784403Y-66797199D01*
X92784405Y-66797199D01*
X92784410Y-66797203D01*
X93043832Y-66912705D01*
X93043840Y-66912707D01*
X93043842Y-66912708D01*
X93316800Y-66990977D01*
X93316808Y-66990979D01*
X93598011Y-67030500D01*
X93598014Y-67030500D01*
X93810890Y-67030500D01*
X93810902Y-67030500D01*
X94023281Y-67015649D01*
X94301048Y-66956608D01*
X94567895Y-66859483D01*
X94818628Y-66726166D01*
X95048367Y-66559251D01*
X95252640Y-66361987D01*
X95427471Y-66138214D01*
X95569458Y-65892286D01*
X95675836Y-65628991D01*
X95744535Y-65353454D01*
X95760246Y-65203974D01*
X127080781Y-65203974D01*
X127090691Y-65487759D01*
X127090692Y-65487764D01*
X127140004Y-65767422D01*
X127140004Y-65767423D01*
X127227757Y-66037500D01*
X127352237Y-66292721D01*
X127352240Y-66292725D01*
X127352242Y-66292729D01*
X127511037Y-66528153D01*
X127701052Y-66739186D01*
X127918588Y-66921720D01*
X128029422Y-66990977D01*
X128159403Y-67072199D01*
X128159405Y-67072199D01*
X128159410Y-67072203D01*
X128418832Y-67187705D01*
X128418840Y-67187707D01*
X128418842Y-67187708D01*
X128691800Y-67265977D01*
X128691808Y-67265979D01*
X128973011Y-67305500D01*
X128973014Y-67305500D01*
X129185890Y-67305500D01*
X129185902Y-67305500D01*
X129398281Y-67290649D01*
X129676048Y-67231608D01*
X129942895Y-67134483D01*
X130193628Y-67001166D01*
X130423367Y-66834251D01*
X130627640Y-66636987D01*
X130802471Y-66413214D01*
X130944458Y-66167286D01*
X131050836Y-65903991D01*
X131119535Y-65628454D01*
X131149218Y-65346036D01*
X131139308Y-65062237D01*
X131089996Y-64782578D01*
X131002244Y-64512504D01*
X131002242Y-64512499D01*
X130877762Y-64257278D01*
X130877760Y-64257275D01*
X130877758Y-64257271D01*
X130718963Y-64021847D01*
X130528948Y-63810814D01*
X130311412Y-63628280D01*
X130070596Y-63477800D01*
X130070591Y-63477798D01*
X130070590Y-63477797D01*
X129811168Y-63362295D01*
X129811157Y-63362291D01*
X129538199Y-63284022D01*
X129538191Y-63284020D01*
X129256989Y-63244500D01*
X129256986Y-63244500D01*
X129044098Y-63244500D01*
X129044085Y-63244500D01*
X128831720Y-63259350D01*
X128831709Y-63259352D01*
X128553954Y-63318391D01*
X128287109Y-63415515D01*
X128036377Y-63548830D01*
X128036370Y-63548835D01*
X127806640Y-63715743D01*
X127806633Y-63715748D01*
X127602358Y-63913015D01*
X127427529Y-64136785D01*
X127285544Y-64382709D01*
X127285539Y-64382720D01*
X127179164Y-64646007D01*
X127110465Y-64921546D01*
X127080781Y-65203974D01*
X95760246Y-65203974D01*
X95774218Y-65071036D01*
X95764308Y-64787237D01*
X95714996Y-64507578D01*
X95627244Y-64237504D01*
X95627242Y-64237499D01*
X95502762Y-63982278D01*
X95502760Y-63982275D01*
X95502758Y-63982271D01*
X95343963Y-63746847D01*
X95153948Y-63535814D01*
X94936412Y-63353280D01*
X94825577Y-63284022D01*
X94695596Y-63202800D01*
X94695591Y-63202798D01*
X94695590Y-63202797D01*
X94436168Y-63087295D01*
X94436157Y-63087291D01*
X94163199Y-63009022D01*
X94163191Y-63009020D01*
X93881989Y-62969500D01*
X93881986Y-62969500D01*
X93669098Y-62969500D01*
X93669085Y-62969500D01*
X93456720Y-62984350D01*
X93456709Y-62984352D01*
X93178954Y-63043391D01*
X92912109Y-63140515D01*
X92661377Y-63273830D01*
X92661370Y-63273835D01*
X92431640Y-63440743D01*
X92431633Y-63440748D01*
X92227358Y-63638015D01*
X92052529Y-63861785D01*
X91910544Y-64107709D01*
X91910539Y-64107720D01*
X91804164Y-64371007D01*
X91735465Y-64646546D01*
X91705781Y-64928974D01*
X75475500Y-64928974D01*
X75475500Y-34874500D01*
X75495185Y-34807461D01*
X75547989Y-34761706D01*
X75599500Y-34750500D01*
X146350500Y-34750500D01*
X146417539Y-34770185D01*
G37*
%TD.AperFunction*%
%TD*%
M02*
