%TF.GenerationSoftware,KiCad,Pcbnew,7.0.10*%
%TF.CreationDate,2024-05-29T17:31:35+08:00*%
%TF.ProjectId,toilet_monitoring_unit,746f696c-6574-45f6-9d6f-6e69746f7269,rev?*%
%TF.SameCoordinates,Original*%
%TF.FileFunction,Soldermask,Bot*%
%TF.FilePolarity,Negative*%
%FSLAX46Y46*%
G04 Gerber Fmt 4.6, Leading zero omitted, Abs format (unit mm)*
G04 Created by KiCad (PCBNEW 7.0.10) date 2024-05-29 17:31:35*
%MOMM*%
%LPD*%
G01*
G04 APERTURE LIST*
%ADD10C,2.000000*%
%ADD11C,1.700000*%
%ADD12R,1.700000X1.700000*%
%ADD13O,1.700000X1.700000*%
%ADD14R,1.600000X1.600000*%
%ADD15O,1.600000X1.600000*%
%ADD16C,1.734000*%
%ADD17C,3.560000*%
%ADD18C,1.959000*%
G04 APERTURE END LIST*
D10*
%TO.C,SW2*%
X82534600Y-104871000D03*
X76534600Y-104871000D03*
X82534600Y-116871000D03*
X76534600Y-116871000D03*
D11*
X80784600Y-106871000D03*
X80784600Y-110871000D03*
X80784600Y-114871000D03*
%TD*%
D12*
%TO.C,J1*%
X151000000Y-144000000D03*
D13*
X151000000Y-146540000D03*
X151000000Y-149080000D03*
%TD*%
D14*
%TO.C,A1*%
X105200000Y-115360000D03*
D15*
X107740000Y-115360000D03*
X110280000Y-115360000D03*
X112820000Y-115360000D03*
X115360000Y-115360000D03*
X117900000Y-115360000D03*
X120440000Y-115360000D03*
X122980000Y-115360000D03*
X125520000Y-115360000D03*
X128060000Y-115360000D03*
X130600000Y-115360000D03*
X133140000Y-115360000D03*
X135680000Y-115360000D03*
X138220000Y-115360000D03*
X140760000Y-115360000D03*
X140760000Y-100120000D03*
X138220000Y-100120000D03*
X135680000Y-100120000D03*
X133140000Y-100120000D03*
X130600000Y-100120000D03*
X128060000Y-100120000D03*
X125520000Y-100120000D03*
X122980000Y-100120000D03*
X120440000Y-100120000D03*
X117900000Y-100120000D03*
X115360000Y-100120000D03*
X112820000Y-100120000D03*
X110280000Y-100120000D03*
X107740000Y-100120000D03*
X105200000Y-100120000D03*
%TD*%
D16*
%TO.C,U1*%
X109420000Y-158500000D03*
X111960000Y-158500000D03*
X114500000Y-158500000D03*
X117040000Y-158500000D03*
%TD*%
D17*
%TO.C,BT4*%
X129115000Y-65275000D03*
D18*
X122485000Y-91435000D03*
X136075000Y-91435000D03*
%TD*%
D17*
%TO.C,BT1*%
X93740000Y-65000000D03*
D18*
X87110000Y-91160000D03*
X100700000Y-91160000D03*
%TD*%
D17*
%TO.C,BT5*%
X113190000Y-139000000D03*
D18*
X87030000Y-132370000D03*
X87030000Y-145960000D03*
%TD*%
D12*
%TO.C,J3*%
X151000000Y-125000000D03*
D13*
X151000000Y-127540000D03*
X151000000Y-130080000D03*
X151000000Y-132620000D03*
%TD*%
M02*
